  0
SECTION
  2
HEADER
  9
$ACADVER
  1
AC1015
  9
$ACADMAINTVER
 70
    20
  9
$DWGCODEPAGE
  3
ANSI_1252
  9
$INSBASE
 10
0.0
 20
0.0
 30
0.0
  9
$EXTMIN
 10
691253.0569341
 20
6460221.0598905
 30
-2.169999999999999
  9
$EXTMAX
 10
712809.5720729999
 20
6541096.4903567
 30
1.958412421624396E+99
  9
$LIMMIN
 10
350513.3890630001
 20
6364296.734719
  9
$LIMMAX
 10
757661.8437310002
 20
6646862.999236
  9
$ORTHOMODE
 70
     1
  9
$REGENMODE
 70
     1
  9
$FILLMODE
 70
     1
  9
$QTEXTMODE
 70
     0
  9
$MIRRTEXT
 70
     0
  9
$LTSCALE
 40
1.0
  9
$ATTMODE
 70
     1
  9
$TEXTSIZE
 40
0.2
  9
$TRACEWID
 40
0.05
  9
$TEXTSTYLE
  7
Standard
  9
$CLAYER
  8
telgprojekt
  9
$CELTYPE
  6
CONTINUOUS
  9
$CECOLOR
 62
   256
  9
$CELTSCALE
 40
1.0
  9
$DISPSILH
 70
     0
  9
$DIMSCALE
 40
1.0
  9
$DIMASZ
 40
0.18
  9
$DIMEXO
 40
0.0625
  9
$DIMDLI
 40
0.38
  9
$DIMRND
 40
0.0
  9
$DIMDLE
 40
0.0
  9
$DIMEXE
 40
0.18
  9
$DIMTP
 40
0.0
  9
$DIMTM
 40
0.0
  9
$DIMTXT
 40
0.18
  9
$DIMCEN
 40
0.09
  9
$DIMTSZ
 40
0.0
  9
$DIMTOL
 70
     0
  9
$DIMLIM
 70
     0
  9
$DIMTIH
 70
     1
  9
$DIMTOH
 70
     1
  9
$DIMSE1
 70
     0
  9
$DIMSE2
 70
     0
  9
$DIMTAD
 70
     0
  9
$DIMZIN
 70
     0
  9
$DIMBLK
  1

  9
$DIMASO
 70
     1
  9
$DIMSHO
 70
     1
  9
$DIMPOST
  1

  9
$DIMAPOST
  1

  9
$DIMALT
 70
     0
  9
$DIMALTD
 70
     2
  9
$DIMALTF
 40
25.4
  9
$DIMLFAC
 40
1.0
  9
$DIMTOFL
 70
     0
  9
$DIMTVP
 40
0.0
  9
$DIMTIX
 70
     0
  9
$DIMSOXD
 70
     0
  9
$DIMSAH
 70
     0
  9
$DIMBLK1
  1

  9
$DIMBLK2
  1

  9
$DIMSTYLE
  2
Standard
  9
$DIMCLRD
 70
     0
  9
$DIMCLRE
 70
     0
  9
$DIMCLRT
 70
     0
  9
$DIMTFAC
 40
1.0
  9
$DIMGAP
 40
0.09
  9
$DIMJUST
 70
     0
  9
$DIMSD1
 70
     0
  9
$DIMSD2
 70
     0
  9
$DIMTOLJ
 70
     1
  9
$DIMTZIN
 70
     0
  9
$DIMALTZ
 70
     0
  9
$DIMALTTZ
 70
     0
  9
$DIMUPT
 70
     0
  9
$DIMDEC
 70
     4
  9
$DIMTDEC
 70
     4
  9
$DIMALTU
 70
     2
  9
$DIMALTTD
 70
     2
  9
$DIMTXSTY
  7
Standard
  9
$DIMAUNIT
 70
     0
  9
$DIMADEC
 70
     0
  9
$DIMALTRND
 40
0.0
  9
$DIMAZIN
 70
     0
  9
$DIMDSEP
 70
    46
  9
$DIMATFIT
 70
     3
  9
$DIMFRAC
 70
     0
  9
$DIMLDRBLK
  1

  9
$DIMLUNIT
 70
     2
  9
$DIMLWD
 70
    -2
  9
$DIMLWE
 70
    -2
  9
$DIMTMOVE
 70
     0
  9
$LUNITS
 70
     2
  9
$LUPREC
 70
     4
  9
$SKETCHINC
 40
0.1
  9
$FILLETRAD
 40
0.0
  9
$AUNITS
 70
     0
  9
$AUPREC
 70
     0
  9
$MENU
  1
.
  9
$ELEVATION
 40
0.0
  9
$PELEVATION
 40
0.0
  9
$THICKNESS
 40
0.0
  9
$LIMCHECK
 70
     0
  9
$CHAMFERA
 40
0.0
  9
$CHAMFERB
 40
0.0
  9
$CHAMFERC
 40
0.0
  9
$CHAMFERD
 40
0.0
  9
$SKPOLY
 70
     0
  9
$TDCREATE
 40
2453511.628101725
  9
$TDUCREATE
 40
2453511.503101725
  9
$TDUPDATE
 40
2454359.762774699
  9
$TDUUPDATE
 40
2454359.637774699
  9
$TDINDWG
 40
0.1691623264
  9
$TDUSRTIMER
 40
0.1691619560
  9
$USRTIMER
 70
     1
  9
$ANGBASE
 50
0.0
  9
$ANGDIR
 70
     0
  9
$PDMODE
 70
     0
  9
$PDSIZE
 40
0.0
  9
$PLINEWID
 40
0.0
  9
$SPLFRAME
 70
     0
  9
$SPLINETYPE
 70
     6
  9
$SPLINESEGS
 70
     8
  9
$HANDSEED
  5
118
  9
$SURFTAB1
 70
     6
  9
$SURFTAB2
 70
     6
  9
$SURFTYPE
 70
     6
  9
$SURFU
 70
     6
  9
$SURFV
 70
     6
  9
$UCSBASE
  2

  9
$UCSNAME
  2

  9
$UCSORG
 10
0.0
 20
0.0
 30
0.0
  9
$UCSXDIR
 10
1.0
 20
0.0
 30
0.0
  9
$UCSYDIR
 10
0.0
 20
1.0
 30
0.0
  9
$UCSORTHOREF
  2

  9
$UCSORTHOVIEW
 70
     0
  9
$UCSORGTOP
 10
0.0
 20
0.0
 30
0.0
  9
$UCSORGBOTTOM
 10
0.0
 20
0.0
 30
0.0
  9
$UCSORGLEFT
 10
0.0
 20
0.0
 30
0.0
  9
$UCSORGRIGHT
 10
0.0
 20
0.0
 30
0.0
  9
$UCSORGFRONT
 10
0.0
 20
0.0
 30
0.0
  9
$UCSORGBACK
 10
0.0
 20
0.0
 30
0.0
  9
$PUCSBASE
  2

  9
$PUCSNAME
  2

  9
$PUCSORG
 10
0.0
 20
0.0
 30
0.0
  9
$PUCSXDIR
 10
1.0
 20
0.0
 30
0.0
  9
$PUCSYDIR
 10
0.0
 20
1.0
 30
0.0
  9
$PUCSORTHOREF
  2

  9
$PUCSORTHOVIEW
 70
     0
  9
$PUCSORGTOP
 10
0.0
 20
0.0
 30
0.0
  9
$PUCSORGBOTTOM
 10
0.0
 20
0.0
 30
0.0
  9
$PUCSORGLEFT
 10
0.0
 20
0.0
 30
0.0
  9
$PUCSORGRIGHT
 10
0.0
 20
0.0
 30
0.0
  9
$PUCSORGFRONT
 10
0.0
 20
0.0
 30
0.0
  9
$PUCSORGBACK
 10
0.0
 20
0.0
 30
0.0
  9
$USERI1
 70
     0
  9
$USERI2
 70
     0
  9
$USERI3
 70
     0
  9
$USERI4
 70
     0
  9
$USERI5
 70
     0
  9
$USERR1
 40
0.0
  9
$USERR2
 40
0.0
  9
$USERR3
 40
0.0
  9
$USERR4
 40
0.0
  9
$USERR5
 40
0.0
  9
$WORLDVIEW
 70
     1
  9
$SHADEDGE
 70
     3
  9
$SHADEDIF
 70
    70
  9
$TILEMODE
 70
     1
  9
$MAXACTVP
 70
    64
  9
$PINSBASE
 10
0.0
 20
0.0
 30
0.0
  9
$PLIMCHECK
 70
     0
  9
$PEXTMIN
 10
1.000000000000000E+20
 20
1.000000000000000E+20
 30
1.000000000000000E+20
  9
$PEXTMAX
 10
-1.000000000000000E+20
 20
-1.000000000000000E+20
 30
-1.000000000000000E+20
  9
$PLIMMIN
 10
0.0
 20
0.0
  9
$PLIMMAX
 10
12.0
 20
9.0
  9
$UNITMODE
 70
     0
  9
$VISRETAIN
 70
     1
  9
$PLINEGEN
 70
     0
  9
$PSLTSCALE
 70
     1
  9
$TREEDEPTH
 70
  3020
  9
$CMLSTYLE
  2
Standard
  9
$CMLJUST
 70
     0
  9
$CMLSCALE
 40
1.0
  9
$PROXYGRAPHICS
 70
     1
  9
$MEASUREMENT
 70
     0
  9
$CELWEIGHT
370
    -1
  9
$ENDCAPS
280
     0
  9
$JOINSTYLE
280
     0
  9
$LWDISPLAY
290
     0
  9
$INSUNITS
 70
     0
  9
$HYPERLINKBASE
  1

  9
$STYLESHEET
  1

  9
$XEDIT
290
     1
  9
$CEPSNTYPE
380
     0
  9
$PSTYLEMODE
290
     1
  9
$FINGERPRINTGUID
  2
{BC30E14D-8D84-452C-BA11-22517EC7ADC2}
  9
$VERSIONGUID
  2
{D05E0FF6-3DA7-4999-96D4-A0D436BF0384}
  9
$EXTNAMES
290
     1
  9
$PSVPSCALE
 40
0.0
  9
$OLESTARTUP
290
     0
  0
ENDSEC
  0
SECTION
  2
CLASSES
  0
CLASS
  1
ACDBDICTIONARYWDFLT
  2
AcDbDictionaryWithDefault
  3
ObjectDBX Classes
 90
        0
280
     0
281
     0
  0
CLASS
  1
TABLESTYLE
  2
AcDbTableStyle
  3
ObjectDBX Classes
 90
    34815
280
     1
281
     0
  0
CLASS
  1
DICTIONARYVAR
  2
AcDbDictionaryVar
  3
ObjectDBX Classes
 90
        0
280
     0
281
     0
  0
CLASS
  1
SORTENTSTABLE
  2
AcDbSortentsTable
  3
ObjectDBX Classes
 90
        0
280
     0
281
     0
  0
CLASS
  1
RASTERVARIABLES
  2
AcDbRasterVariables
  3
ISM
 90
    32768
280
     1
281
     0
  0
CLASS
  1
IMAGEDEF
  2
AcDbRasterImageDef
  3
ISM
 90
    32768
280
     1
281
     0
  0
CLASS
  1
IMAGEDEF_REACTOR
  2
AcDbRasterImageDefReactor
  3
ISM
 90
    32769
280
     1
281
     0
  0
CLASS
  1
IMAGE
  2
AcDbRasterImage
  3
ISM
 90
    32895
280
     1
281
     1
  0
CLASS
  1
ACDBPLACEHOLDER
  2
AcDbPlaceHolder
  3
ObjectDBX Classes
 90
        0
280
     0
281
     0
  0
CLASS
  1
LAYOUT
  2
AcDbLayout
  3
ObjectDBX Classes
 90
        0
280
     0
281
     0
  0
ENDSEC
  0
SECTION
  2
TABLES
  0
TABLE
  2
VPORT
  5
1F
330
0
100
AcDbSymbolTable
 70
     3
  0
VPORT
  5
112
330
1F
100
AcDbSymbolTableRecord
100
AcDbViewportTableRecord
  2
*Active
 70
     0
 10
0.0
 20
0.0
 11
1.0
 21
1.0
 12
776636.8503208635
 22
6511181.2359559
 13
0.0
 23
0.0
 14
1.0
 24
1.0
 15
0.0
 25
0.0
 16
0.0
 26
0.0
 36
1.0
 17
0.0
 27
0.0
 37
0.0
 40
143094.3435251461
 41
2.973770491803278
 42
50.0
 43
0.0
 44
0.0
 50
0.0
 51
0.0
 71
     0
 72
   100
 73
     1
 74
     1
 75
     0
 76
     0
 77
     0
 78
     0
281
     0
 65
     1
110
0.0
120
0.0
130
0.0
111
1.0
121
0.0
131
0.0
112
0.0
122
1.0
132
0.0
 79
     0
146
0.0
  0
ENDTAB
  0
TABLE
  2
LTYPE
  5
1A
330
0
100
AcDbSymbolTable
 70
     1
  0
LTYPE
  5
1B
330
1A
100
AcDbSymbolTableRecord
100
AcDbLinetypeTableRecord
  2
ByBlock
 70
     0
  3

 72
    65
 73
     0
 40
0.0
  0
LTYPE
  5
1C
330
1A
100
AcDbSymbolTableRecord
100
AcDbLinetypeTableRecord
  2
ByLayer
 70
     0
  3

 72
    65
 73
     0
 40
0.0
  0
LTYPE
  5
A
330
1A
100
AcDbSymbolTableRecord
100
AcDbLinetypeTableRecord
  2
CONTINUOUS
 70
     0
  3
Solid Line
 72
    65
 73
     0
 40
0.0
  0
ENDTAB
  0
TABLE
  2
LAYER
  5
13
102
{ACAD_XDICTIONARY
360
14
102
}
330
0
100
AcDbSymbolTable
 70
     7
  0
LAYER
  5
6
330
13
100
AcDbSymbolTableRecord
100
AcDbLayerTableRecord
  2
0
 70
     0
 62
     7
  6
CONTINUOUS
370
    -3
390
7
1001
RAK
1000
{ACET-LAYISO
1070
     0
1070
     7
1000
CONTINUOUS
1071
       -3
1071
        1
1005
7
1000
ACET-LAYISO}
  0
LAYER
  5
43
330
13
100
AcDbSymbolTableRecord
100
AcDbLayerTableRecord
  2
Punktid
 70
     0
 62
     2
  6
CONTINUOUS
370
    -3
390
7
1001
RAK
1000
{ACET-LAYISO
1070
     0
1070
     2
1000
CONTINUOUS
1071
       -3
1071
        1
1005
7
1000
ACET-LAYISO}
  0
LAYER
  5
45
330
13
100
AcDbSymbolTableRecord
100
AcDbLayerTableRecord
  2
3dPunktid
 70
     0
 62
     7
  6
CONTINUOUS
370
    -3
390
7
1001
RAK
1000
{ACET-LAYISO
1070
     0
1070
     7
1000
CONTINUOUS
1071
       -3
1071
        1
1005
7
1000
ACET-LAYISO}
  0
LAYER
  5
55
330
13
100
AcDbSymbolTableRecord
100
AcDbLayerTableRecord
  2
kaid
 70
     0
 62
     5
  6
CONTINUOUS
370
    -3
390
7
1001
RAK
1000
{ACET-LAYISO
1070
     0
1070
     5
1000
CONTINUOUS
1071
       -3
1071
        1
1005
7
1000
ACET-LAYISO}
  0
LAYER
  5
3A
330
13
100
AcDbSymbolTableRecord
100
AcDbLayerTableRecord
  2
ramp
 70
     0
 62
   210
  6
CONTINUOUS
370
    -3
390
7
1001
RAK
1000
{ACET-LAYISO
1070
     0
1070
   210
1000
CONTINUOUS
1071
       -3
1071
        1
1005
7
1000
ACET-LAYISO}
  0
LAYER
  5
5B
330
13
100
AcDbSymbolTableRecord
100
AcDbLayerTableRecord
  2
pollar
 70
     0
 62
     7
  6
CONTINUOUS
370
    -3
390
7
1001
RAK
1000
{ACET-LAYISO
1070
     0
1070
     7
1000
CONTINUOUS
1071
       -3
1071
        1
1005
7
1000
ACET-LAYISO}
  0
LAYER
  5
2A
330
13
100
AcDbSymbolTableRecord
100
AcDbLayerTableRecord
  2
telgprojekt
 70
     0
 62
     1
  6
CONTINUOUS
370
    -3
390
7
1001
RAK
1000
{ACET-LAYISO
1070
     0
1070
     1
1000
CONTINUOUS
1070
     1
1071
       -3
1071
        1
1005
7
1000
ACET-LAYISO}
  0
ENDTAB
  0
TABLE
  2
STYLE
  5
17
330
0
100
AcDbSymbolTable
 70
     1
  0
STYLE
  5
18
330
17
100
AcDbSymbolTableRecord
100
AcDbTextStyleTableRecord
  2
Standard
 70
     0
 40
0.0
 41
1.0
 50
0.0
 71
     0
 42
0.2
  3
txt
  4

  0
ENDTAB
  0
TABLE
  2
VIEW
  5
1D
330
0
100
AcDbSymbolTable
 70
     0
  0
ENDTAB
  0
TABLE
  2
UCS
  5
1E
330
0
100
AcDbSymbolTable
 70
     0
  0
ENDTAB
  0
TABLE
  2
APPID
  5
21
330
0
100
AcDbSymbolTable
 70
     2
  0
APPID
  5
22
330
21
100
AcDbSymbolTableRecord
100
AcDbRegAppTableRecord
  2
ACAD
 70
     0
  0
APPID
  5
B
330
21
100
AcDbSymbolTableRecord
100
AcDbRegAppTableRecord
  2
RAK
 70
     0
  0
ENDTAB
  0
TABLE
  2
DIMSTYLE
  5
23
330
0
100
AcDbSymbolTable
 70
     1
100
AcDbDimStyleTable
 71
     0
  0
DIMSTYLE
105
2C
330
23
100
AcDbSymbolTableRecord
100
AcDbDimStyleTableRecord
  2
Standard
 70
     0
340
18
  0
ENDTAB
  0
TABLE
  2
BLOCK_RECORD
  5
1
330
0
100
AcDbSymbolTable
 70
     1
  0
BLOCK_RECORD
  5
2
102
{ACAD_XDICTIONARY
360
3
102
}
330
1
100
AcDbSymbolTableRecord
100
AcDbBlockTableRecord
  2
*Model_Space
340
D
  0
BLOCK_RECORD
  5
F
330
1
100
AcDbSymbolTableRecord
100
AcDbBlockTableRecord
  2
*Paper_Space
340
12
  0
BLOCK_RECORD
  5
5C
330
1
100
AcDbSymbolTableRecord
100
AcDbBlockTableRecord
  2
Pollar
340
0
102
{BLKREFS
331
5A
331
61
331
62
331
63
331
64
331
65
331
66
102
}
1001
ACAD
1000
DesignCenter Data
1002
{
1070
     1
1070
     4
1002
}
  0
ENDTAB
  0
ENDSEC
  0
SECTION
  2
BLOCKS
  0
BLOCK
  5
5
330
2
100
AcDbEntity
  8
0
100
AcDbBlockBegin
  2
*Model_Space
 70
     0
 10
0.0
 20
0.0
 30
0.0
  3
*Model_Space
  1

  0
ENDBLK
  5
C
330
2
100
AcDbEntity
  8
0
100
AcDbBlockEnd
  0
BLOCK
  5
10
330
F
100
AcDbEntity
 67
     1
  8
0
100
AcDbBlockBegin
  2
*Paper_Space
 70
     0
 10
0.0
 20
0.0
 30
0.0
  3
*Paper_Space
  1

  0
ENDBLK
  5
11
330
F
100
AcDbEntity
 67
     1
  8
0
100
AcDbBlockEnd
  0
BLOCK
  5
5D
330
5C
100
AcDbEntity
  8
0
 48
0.5
100
AcDbBlockBegin
  2
Pollar
 70
     0
 10
0.0
 20
0.0
 30
0.0
  3
Pollar
  1

  0
LWPOLYLINE
  5
5E
330
5C
100
AcDbEntity
  8
0
100
AcDbPolyline
 90
        8
 70
     0
 43
0.0
 10
4.0
 20
0.5
 10
1.936491673103708
 20
0.5
 42
0.7745966692414834
 10
-1.936491673103708
 20
0.5
 10
-4.0
 20
0.5
 10
-4.0
 20
-0.5000000000000001
 10
-1.936491673103708
 20
-0.5000000000000001
 42
0.7745966692414834
 10
1.936491673103708
 20
-0.5000000000000001
 10
4.0
 20
-0.5
  0
HATCH
  5
5F
330
5C
100
AcDbEntity
  8
0
100
AcDbHatch
 10
0.0
 20
0.0
 30
0.0
210
0.0
220
0.0
230
1.0
  2
SOLID
 70
     1
 71
     0
 91
        1
 92
        7
 72
     1
 73
     1
 93
        8
 10
3.999999999999998
 20
0.5
 42
0.0
 10
1.936491673103708
 20
0.5
 42
0.7745966692414829
 10
-1.936491673103708
 20
0.5
 42
0.0
 10
-4.0
 20
0.5
 42
0.0
 10
-4.0
 20
-0.5000000000000001
 42
0.0
 10
-1.936491673103708
 20
-0.5000000000000001
 42
0.7745966692414834
 10
1.936491673103708
 20
-0.5000000000000001
 42
0.0
 10
3.999999999999998
 20
-0.5
 42
0.0
 97
        0
 75
     0
 76
     1
 47
0.0110122143098251
 98
        1
 10
-0.2323396290510642
 20
0.4735252133957088
  0
ENDBLK
  5
60
330
5C
100
AcDbEntity
  8
0
 48
0.5
100
AcDbBlockEnd
  0
ENDSEC
  0
SECTION
  2
ENTITIES
  0
LWPOLYLINE
  5
2D
330
2
100
AcDbEntity
  8
0
  6
Continuous
 62
     3
100
AcDbPolyline
 90
      265
 70
     1
 43
0.0
 38
1.958412421624396E+99
 10
701370.698846
 20
6474194.351057
 10
701378.9740460001
 20
6474193.358033001
 10
701383.442654
 20
6474202.460753
 10
701379.3050540002
 20
6474210.570449002
 10
701374.339934
 20
6474218.680144
 10
701378.643038
 20
6474227.120848
 10
701386.752734
 20
6474229.768912
 10
701387.745758
 20
6474238.540624001
 10
701396.8484780001
 20
6474242.347216003
 10
701402.6411180001
 20
6474233.41
 10
701406.2822060001
 20
6474221.990224
 10
701407.4407340001
 20
6474213.549521
 10
701406.116702
 20
6474204.612305002
 10
701405.785694
 20
6474194.185553
 10
701408.102749
 20
6474183.758801
 10
701407.9372450003
 20
6474174.490577
 10
701409.7577890002
 20
6474164.394834
 10
701414.7229089999
 20
6474152.809553999
 10
701416.212445
 20
6474143.375826002
 10
701417.8674850001
 20
6474134.43861
 10
701418.695005
 20
6474126.328914
 10
701420.0190370001
 20
6474117.060691
 10
701420.846557
 20
6474105.309906998
 10
701421.0120610001
 20
6474096.538194999
 10
701403.3031340002
 20
6474089.090515
 10
701394.0349100001
 20
6474086.276947
 10
701385.097694
 20
6474078.167251
 10
701381.7876140001
 20
6474069.064531
 10
701381.7876140001
 20
6474060.623827997
 10
701391.2213420001
 20
6474053.176148
 10
701399.0000300001
 20
6474044.073428
 10
701397.841502
 20
6474035.136212003
 10
701394.6969260001
 20
6474025.53698
 10
701394.2004140003
 20
6474016.930771999
 10
701397.3449899999
 20
6474006.669525
 10
701402.475614
 20
6473994.587733001
 10
701406.2822060001
 20
6473986.147029002
 10
701415.053917
 20
6473982.009429001
 10
701423.991133
 20
6473980.023381
 10
701433.590365
 20
6473979.361365
 10
701442.5275810001
 20
6473988.629589
 10
701448.816733
 20
6473998.559828999
 10
701458.0849560001
 20
6474005.179988997
 10
701466.5256600001
 20
6474010.145109
 10
701472.152796
 20
6474018.91682
 10
701473.807836
 20
6474028.01954
 10
701471.656284
 20
6474045.231955998
 10
701467.684188
 20
6474054.665684
 10
701459.5744920001
 20
6474062.113363999
 10
701452.457821
 20
6474070.554067
 10
701448.9822370001
 20
6474078.829267
 10
701443.355101
 20
6474087.104467001
 10
701440.0450210001
 20
6474095.710674999
 10
701441.369053
 20
6474105.640914999
 10
701450.8027810001
 20
6474112.095571
 10
701459.243484
 20
6474118.715730001
 10
701464.0431000002
 20
6474127.321938
 10
701472.152796
 20
6474133.61109
 10
701480.427996
 20
6474132.287058
 10
701488.7031959999
 20
6474126.659921997
 10
701495.819868
 20
6474116.564179
 10
701500.1229720001
 20
6474108.454483
 10
701503.7640600001
 20
6474087.931987003
 10
701503.102044
 20
6474078.663763
 10
701493.502812
 20
6474045.562964
 10
701487.710172
 20
6474004.683477
 10
701487.3791640001
 20
6473994.753237002
 10
701489.861724
 20
6473985.981525
 10
701493.6683160001
 20
6473977.706325
 10
701497.1438999999
 20
6473969.265621
 10
701499.129948
 20
6473960.659414
 10
701500.1229720001
 20
6473952.21871
 10
701499.7919640001
 20
6473944.109013999
 10
701498.467932
 20
6473934.84079
 10
701498.136924
 20
6473926.731094
 10
701495.323356
 20
6473906.374102997
 10
701495.819868
 20
6473896.609367
 10
701493.3373079999
 20
6473886.844630999
 10
701492.344284
 20
6473878.072918997
 10
701491.682268
 20
6473869.135703
 10
701483.241564
 20
6473862.35004
 10
701475.1318680001
 20
6473861.026008003
 10
701471.159772
 20
6473852.750808
 10
701472.3183
 20
6473842.820567999
 10
701474.304348
 20
6473832.228312003
 10
701476.621404
 20
6473823.4566
 10
701479.4349720002
 20
6473814.519385
 10
701481.090012
 20
6473805.582168999
 10
701478.441948
 20
6473787.045721
 10
701475.62838
 20
6473778.605017001
 10
701467.518684
 20
6473774.963929002
 10
701458.746972
 20
6473775.129433001
 10
701450.306269
 20
6473778.770521001
 10
701441.5345569999
 20
6473774.798425
 10
701435.5764130002
 20
6473766.192217
 10
701432.597341
 20
6473756.923994
 10
701435.2454050001
 20
6473747.159258
 10
701444.182621
 20
6473745.17321
 10
701451.7958049999
 20
6473754.772442
 10
701468.511708
 20
6473747.65577
 10
701476.621404
 20
6473741.035609998
 10
701473.6423319999
 20
6473731.105369997
 10
701465.5326359999
 20
6473723.657689999
 10
701456.760925
 20
6473717.86505
 10
701453.6163489999
 20
6473709.258843
 10
701453.4508450001
 20
6473701.149147
 10
701456.760925
 20
6473692.211930997
 10
701462.884572
 20
6473682.447195
 10
701468.346204
 20
6473674.171995
 10
701474.6353560001
 20
6473663.57974
 10
701478.9384600003
 20
6473652.82198
 10
701486.7171479998
 20
6473636.933596
 10
701493.0063
 20
6473622.038235999
 10
701494.992348
 20
6473610.949469
 10
701495.6543640001
 20
6473602.508765
 10
701499.460956
 20
6473588.937437001
 10
701503.267548
 20
6473578.345180999
 10
701506.743132
 20
6473567.752925
 10
701511.046235
 20
6473557.98819
 10
701516.838875
 20
6473548.554462
 10
701526.934619
 20
6473542.927326
 10
701535.044315
 20
6473539.78275
 10
701544.3125390001
 20
6473533.990109999
 10
701554.904795
 20
6473529.355998
 10
701564.504026
 20
6473524.225373997
 10
701572.7792260001
 20
6473518.26723
 10
701581.5509380002
 20
6473506.681951
 10
701588.336602
 20
6473493.607135
 10
701596.94281
 20
6473471.595103001
 10
701599.756378
 20
6473460.175328
 10
701598.5978500001
 20
6473451.072608003
 10
701596.94281
 20
6473441.969888
 10
701599.5908739999
 20
6473433.529183997
 10
701607.8660739999
 20
6473429.888095999
 10
701618.127321
 20
6473427.074528
 10
701628.8850810001
 20
6473421.612896
 10
701637.6567930001
 20
6473417.640800001
 10
701647.9180410001
 20
6473409.200097002
 10
701659.0068090001
 20
6473399.931873
 10
701670.4265840002
 20
6473389.670625
 10
701679.198296
 20
6473386.029537
 10
701688.135512
 20
6473385.533025
 10
701696.9072240001
 20
6473385.864033
 10
701707.0029680002
 20
6473385.864033
 10
701716.105687
 20
6473382.057441001
 10
701725.0429030001
 20
6473375.437280998
 10
701736.131671
 20
6473366.003553
 10
701743.579351
 20
6473355.411298
 10
701748.213463
 20
6473345.481058
 10
701747.8824550001
 20
6473332.075234
 10
701744.7378790001
 20
6473321.813986
 10
701738.779735
 20
6473311.552739
 10
701729.842519
 20
6473305.760098999
 10
701718.753751
 20
6473303.774051
 10
701701.044824
 20
6473303.939555003
 10
701690.6180719999
 20
6473305.594595
 10
701680.5223279999
 20
6473306.587619
 10
701671.0886
 20
6473308.739171
 10
701661.15836
 20
6473310.559715002
 10
701641.959897
 20
6473315.524833999
 10
701632.5261689999
 20
6473319.993441999
 10
701621.271897
 20
6473328.930658001
 10
701610.348633
 20
6473336.87485
 10
701600.9149060001
 20
6473343.991522
 10
701542.491995
 20
6473378.250849
 10
701480.262492
 20
6473427.240032
 10
701477.945436
 20
6473428.564064
 10
701474.966364
 20
6473430.88112
 10
701475.1318680001
 20
6473431.70864
 10
701466.5256600001
 20
6473440.149344
 10
701457.5884450001
 20
6473446.107488
 10
701449.147741
 20
6473452.396639999
 10
701428.956253
 20
6473473.912159
 10
701420.350045
 20
6473477.553247001
 10
701411.247325
 20
6473481.856351001
 10
701401.151582
 20
6473492.614110998
 10
701397.013982
 20
6473501.882335
 10
701391.7178540001
 20
6473511.481566999
 10
701386.5872300001
 20
6473519.756766003
 10
701379.3050540002
 20
6473529.687005998
 10
701373.181406
 20
6473538.624221999
 10
701366.2302380001
 20
6473547.395934
 10
701359.2790699999
 20
6473555.671134
 10
701351.0038710001
 20
6473563.118814
 10
701342.8941749999
 20
6473571.063005
 10
701331.474399
 20
6473590.426973
 10
701313.434463
 20
6473619.886683999
 10
701305.986784
 20
6473628.327387999
 10
701297.3805759999
 20
6473633.292508001
 10
701289.6018880001
 20
6473643.71926
 10
701283.643744
 20
6473652.159964
 10
701278.5131200004
 20
6473660.766172002
 10
701275.0375360001
 20
6473670.365403002
 10
701271.06544
 20
6473679.302619
 10
701265.7693120003
 20
6473689.067355
 10
701259.6456640001
 20
6473697.673563
 10
701251.370465
 20
6473702.969691
 10
701244.2537930002
 20
6473711.244890997
 10
701238.130145
 20
6473720.678618
 10
701233.496033
 20
6473730.112346
 10
701230.1859529999
 20
6473739.049562001
 10
701228.530913
 20
6473747.986778
 10
701228.034401
 20
6473757.420506
 10
701225.551841
 20
6473766.688729
 10
701226.710369
 20
6473775.294937
 10
701233.1650250001
 20
6473783.570137003
 10
701235.9785930001
 20
6473792.010841001
 10
701234.6545609999
 20
6473801.113560998
 10
701225.717345
 20
6473808.726745001
 10
701216.1181130001
 20
6473810.547289
 10
701208.008417
 20
6473811.540313
 10
701199.4022100001
 20
6473819.981016
 10
701191.6235220001
 20
6473829.083735997
 10
701187.6514260001
 20
6473838.848472
 10
701185.8308819999
 20
6473847.289176001
 10
701188.4789460001
 20
6473856.226392
 10
701193.60957
 20
6473866.487639
 10
701198.905698
 20
6473874.928343
 10
701198.243682
 20
6473883.203543
 10
701190.961506
 20
6473892.140759
 10
701186.327394
 20
6473900.581462999
 10
701186.1618900001
 20
6473909.187671
 10
701189.637474
 20
6473917.793878
 10
701197.912674
 20
6473916.63535
 10
701207.015393
 20
6473912.166743
 10
701213.966561
 20
6473902.070999002
 10
701212.3115210001
 20
6473921.931478002
 10
701214.1320650002
 20
6473928.22063
 10
701213.966561
 20
6473932.192726
 10
701210.325473
 20
6473940.467926
 10
701206.8498890001
 20
6473949.73615
 10
701210.656481
 20
6473958.83887
 10
701218.6006730002
 20
6473967.445077
 10
701224.2278090001
 20
6473985.650517001
 10
701233.992545
 20
6473993.594709
 10
701242.4332490002
 20
6473997.401301001
 10
701251.2049610001
 20
6474003.193941
 10
701259.9766720001
 20
6474009.483092999
 10
701268.417376
 20
6474010.145109
 10
701276.6925760003
 20
6474002.035413
 10
701284.9677760001
 20
6474011.138133
 10
701285.298784
 20
6474019.909844001
 10
701282.981728
 20
6474028.84706
 10
701285.6297920001
 20
6474038.446291999
 10
701294.898016
 20
6474040.43234
 10
701301.1871680001
 20
6474048.376531999
 10
701309.2968630001
 20
6474057.810259997
 10
701313.9309750001
 20
6474068.071507
 10
701314.4274870001
 20
6474076.843218999
 10
701322.868191
 20
6474078.994771
 10
701331.474399
 20
6474079.491283
 10
701333.1294390001
 20
6474088.428498999
 10
701325.8472629999
 20
6474107.461458999
 10
701325.0197430001
 20
6474116.233171002
 10
701327.171295
 20
6474126.494417999
 10
701327.336799
 20
6474135.597138
 10
701336.7705270001
 20
6474140.893266
 10
701345.5422390001
 20
6474142.548305999
 10
701349.679839
 20
6474150.658001997
 10
701350.672863
 20
6474159.429713997
 10
701350.1763509999
 20
6474169.525457
 10
701351.1693750001
 20
6474178.131665
 10
701351.0038710001
 20
6474189.385937003
 10
701352.327903
 20
6474198.654161
 10
701362.258142
 20
6474198.654161
  0
LWPOLYLINE
  5
2E
330
2
100
AcDbEntity
  8
0
  6
Continuous
 62
     3
100
AcDbPolyline
 90
       94
 70
     1
 43
0.0
 38
1.958412421624396E+99
 10
701274.37552
 20
6474426.387659998
 10
701294.7325120001
 20
6474476.204363
 10
701315.420511
 20
6474512.118730999
 10
701316.2480310001
 20
6474532.641226
 10
701323.530207
 20
6474536.11681
 10
701333.7914550001
 20
6474529.496649997
 10
701336.6050229999
 20
6474520.062923001
 10
701332.301919
 20
6474510.463691001
 10
701327.336799
 20
6474500.533451
 10
701333.1294390001
 20
6474490.603210998
 10
701342.3976630001
 20
6474482.990027
 10
701344.8802230001
 20
6474474.052811
 10
701346.0387510001
 20
6474463.62606
 10
701344.5492150001
 20
6474453.364812002
 10
701345.211231
 20
6474441.614028002
 10
701349.5143350001
 20
6474432.1803
 10
701358.948062
 20
6474425.56014
 10
701368.216286
 20
6474416.622925
 10
701372.8503980002
 20
6474405.699661
 10
701375.498462
 20
6474395.603917001
 10
701375.3329580001
 20
6474386.004684999
 10
701373.677918
 20
6474376.074445
 10
701373.0159020001
 20
6474366.971725999
 10
701372.0228779999
 20
6474356.544974
 10
701376.6569899999
 20
6474346.283726
 10
701384.601182
 20
6474336.684494
 10
701390.559326
 20
6474325.595726001
 10
701393.8694060001
 20
6474315.003471
 10
701394.2004140003
 20
6474305.238734999
 10
701389.5663020001
 20
6474295.970511
 10
701380.6290859999
 20
6474291.832910997
 10
701359.775582
 20
6474287.033295
 10
701350.0108470001
 20
6474292.660431
 10
701351.9968949998
 20
6474303.252687002
 10
701358.4515499999
 20
6474312.686414999
 10
701352.493407
 20
6474321.954638
 10
701342.8941749999
 20
6474321.458126
 10
701333.7914550001
 20
6474313.513934998
 10
701323.695711
 20
6474304.411215
 10
701329.3228470002
 20
6474294.977487003
 10
701339.0875829999
 20
6474287.860815
 10
701333.1294390001
 20
6474278.261583
 10
701324.0267189999
 20
6474278.096079
 10
701314.9239989999
 20
6474270.317391003
 10
701309.4623670001
 20
6474261.214672
 10
701303.0077119999
 20
6474251.946448
 10
701292.746464
 20
6474246.981328
 10
701289.2708799999
 20
6474237.878608001
 10
701285.9608000001
 20
6474227.782864
 10
701280.002656
 20
6474218.51464
 10
701277.520096
 20
6474208.749905001
 10
701273.713504
 20
6474198.985169
 10
701271.06544
 20
6474188.558417
 10
701265.603808
 20
6474177.138641
 10
701258.321632
 20
6474168.035921
 10
701247.729377
 20
6474166.049874002
 10
701237.633633
 20
6474163.567314
 10
701228.034401
 20
6474161.581266001
 10
701217.938657
 20
6474158.933202
 10
701207.511905
 20
6474156.450641999
 10
701196.2576340001
 20
6474163.236306
 10
701186.9894100001
 20
6474170.352976997
 10
701183.1828180001
 20
6474180.283217
 10
701184.1758420001
 20
6474189.385937003
 10
701190.961506
 20
6474198.819665
 10
701193.4440659999
 20
6474210.073937
 10
701196.423138
 20
6474220.666192
 10
701206.1878739999
 20
6474231.589456
 10
701211.4840010001
 20
6474241.6852
 10
701219.759201
 20
6474252.111951998
 10
701229.192929
 20
6474259.228624
 10
701239.4541770001
 20
6474262.042192
 10
701248.722401
 20
6474263.862735998
 10
701258.321632
 20
6474262.042192
 10
701268.913888
 20
6474265.186768
 10
701274.210016
 20
6474274.454991001
 10
701278.347616
 20
6474284.219727
 10
701278.5131200004
 20
6474294.315471
 10
701277.0235840001
 20
6474304.080207
 10
701267.920864
 20
6474314.506959
 10
701258.8181439999
 20
6474312.355407
 10
701249.7154249999
 20
6474304.576719
 10
701240.6127050001
 20
6474305.735247001
 10
701239.7851850001
 20
6474315.168975
 10
701242.4332490002
 20
6474324.10619
 10
701246.0743370001
 20
6474333.870926
 10
701249.0534090003
 20
6474343.801166003
 10
701251.039457
 20
6474354.724430002
 10
701253.1910090001
 20
6474365.482189999
 10
701258.156128
 20
6474377.729485
 10
701260.142176
 20
6474386.997709
 10
701260.804192
 20
6474396.762445
 10
701265.107296
 20
6474406.858188999
 10
701270.899936
 20
6474415.960908999
  0
LWPOLYLINE
  5
2F
330
2
100
AcDbEntity
  8
0
  6
Continuous
 62
     3
100
AcDbPolyline
 90
       23
 70
     0
 43
0.0
 10
705309.2706690638
 20
6476075.366910074
 10
705309.8594720002
 20
6476079.110571999
 10
705310.19048
 20
6476086.889259
 10
705311.018
 20
6476095.660971
 10
705313.9970720002
 20
6476104.267179001
 10
705314.9900960001
 20
6476112.045866999
 10
705316.148624
 20
6476120.155562998
 10
705318.300176
 20
6476128.430763
 10
705319.7897119999
 20
6476137.367978
 10
705320.617232
 20
6476144.650154
 10
705319.7897119999
 20
6476151.93233
 10
705319.4587040001
 20
6476160.20753
 10
705319.9552159999
 20
6476168.979241998
 10
705319.1276960001
 20
6476176.592426001
 10
705318.6311840002
 20
6476183.543593
 10
705318.300176
 20
6476192.646312997
 10
705318.1346720002
 20
6476200.921513
 10
705316.479632
 20
6476216.147880998
 10
705315.98312
 20
6476225.085097
 10
705315.3211040002
 20
6476235.511848
 10
705315.4866079999
 20
6476245.11108
 10
705314.659088
 20
6476254.710312
 10
705314.4935840002
 20
6476255.703336001
  0
LWPOLYLINE
  5
30
330
2
100
AcDbEntity
  8
0
  6
Continuous
 62
     3
100
AcDbPolyline
 90
      300
 70
     0
 43
0.0
 10
705292.481552
 20
6476054.284972
 10
705291.654032
 20
6476046.837292
 10
705290.8268211358
 20
6476009.188663267
 10
705302.4428108386
 20
6475939.930842376
 10
705298.108688
 20
6475905.496879001
 10
705295.791632
 20
6475889.608495
 10
705309.693968
 20
6475746.778546001
 10
705306.2183840001
 20
6475663.033524
 10
705306.05288
 20
6475653.434292
 10
705311.6800159997
 20
6475638.207924
 10
705314.4935840002
 20
6475629.436212
 10
705315.98312
 20
6475618.512949
 10
705336.836623
 20
6475240.336316003
 10
705333.6920470002
 20
6475215.510717
 10
705331.8715040003
 20
6475206.407996997
 10
705330.8784800002
 20
6475198.629309
 10
705327.5684
 20
6475184.892476999
 10
705326.74088
 20
6475172.14867
 10
705331.209488
 20
6475158.577342
 10
705334.5195670002
 20
6475138.716862002
 10
705335.181583
 20
6475117.532351
 10
705335.181583
 20
6475099.161407
 10
705333.361039
 20
6475079.300926998
 10
705331.540496
 20
6475055.468352
 10
705328.39592
 20
6475022.367553
 10
705327.733904
 20
6475000.024513
 10
705327.402896
 20
6474994.893888998
 10
705333.6920470002
 20
6474940.112066002
 10
705336.671119
 20
6474911.148867001
 10
705341.8017430002
 20
6474871.758916
 10
705343.125775
 20
6474850.077892
 10
705343.456783
 20
6474836.010051997
 10
705344.6153109998
 20
6474819.956165
 10
705338.657167
 20
6474740.67975
 10
705341.1397270001
 20
6474733.066566003
 10
705344.1187989999
 20
6474725.78439
 10
705354.214543
 20
6474710.558023
 10
705366.1308310002
 20
6474694.504134999
 10
705374.4060310002
 20
6474684.739399
 10
705382.6812309999
 20
6474678.450247
 10
705390.294414
 20
6474670.175048
 10
705400.5556619998
 20
6474659.251783998
 10
705407.8378380002
 20
6474654.783176
 10
705424.88475
 20
6474646.67348
 10
705434.3184770002
 20
6474638.729288
 10
705442.7591810003
 20
6474622.178887999
 10
705447.2277890003
 20
6474614.565705
 10
705455.0064770002
 20
6474615.724233001
 10
705460.4681090001
 20
6474623.337416003
 10
705464.936717
 20
6474630.454088
 10
705470.5638529998
 20
6474638.729288
 10
705476.190989
 20
6474646.011464
 10
705477.5150210002
 20
6474653.955656
 10
705481.4871170002
 20
6474661.403336
 10
705488.438284
 20
6474665.540936
 10
705496.7134840002
 20
6474665.044424
 10
705505.1541880001
 20
6474657.43124
 10
705507.8022520003
 20
6474650.645576
 10
705506.3127160001
 20
6474636.412232
 10
705497.8720120002
 20
6474624.164936001
 10
705489.1003
 20
6474612.579657
 10
705443.917709
 20
6474568.224586
 10
705428.0293260001
 20
6474552.832714
 10
705419.0921100001
 20
6474540.916426
 10
705411.9754380002
 20
6474530.986186
 10
705404.031246
 20
6474518.076875
 10
705397.57659
 20
6474506.822603
 10
705392.6114700002
 20
6474493.416779
 10
705384.998286
 20
6474487.458635
 10
705377.881615
 20
6474485.803595
 10
705369.109903
 20
6474486.465611
 10
705356.697103
 20
6474486.134603
 10
705349.4149270003
 20
6474484.810571
 10
705341.305231
 20
6474478.852426997
 10
705331.374992
 20
6474470.577226997
 10
705321.7757600001
 20
6474462.302027998
 10
705314.4935840002
 20
6474454.026827999
 10
705305.8873760003
 20
6474446.082635997
 10
705297.2811680001
 20
6474435.986892
 10
705286.357904
 20
6474427.215180001
 10
705278.082705
 20
6474421.091532
 10
705266.3319210002
 20
6474411.657805001
 10
705253.257105
 20
6474404.541133001
 10
705237.368721
 20
6474397.258957
 10
705223.300882
 20
6474392.128333001
 10
705210.2260659999
 20
6474383.522125
 10
705201.9508660001
 20
6474375.246924997
 10
705202.447378
 20
6474368.130254
 10
705209.729554
 20
6474365.647694
 10
705217.673746
 20
6474368.130254
 10
705225.121426
 20
6474366.971725999
 10
705232.403601
 20
6474359.524046
 10
705233.562129
 20
6474352.24187
 10
705231.0795699998
 20
6474344.79419
 10
705222.638866
 20
6474337.512014
 10
705211.21909
 20
6474319.472078
 10
705205.757458
 20
6474311.858895
 10
705197.6477620002
 20
6474303.749199
 10
705189.3725620002
 20
6474294.977487003
 10
705173.318675
 20
6474286.702287002
 10
705163.553939
 20
6474282.895695
 10
705146.5070270002
 20
6474283.557710998
 10
705098.014356
 20
6474291.336399001
 10
705090.401172
 20
6474289.019343
 10
705079.974421
 20
6474287.860815
 10
705058.458901
 20
6474291.667406999
 10
705049.025173
 20
6474294.149967001
 10
705036.1158609998
 20
6474296.467023
 10
705023.8685660001
 20
6474297.791055001
 10
705007.48367
 20
6474301.266638999
 10
704997.2224220002
 20
6474299.942607
 10
704970.907287
 20
6474289.681358999
 10
704957.9979749998
 20
6474282.730191
 10
704948.7297510002
 20
6474279.254607
 10
704933.6688869998
 20
6474276.772047
 10
704924.731672
 20
6474268.993358997
 10
704924.731672
 20
6474252.608463999
 10
704929.696792
 20
6474232.251472
 10
704928.37276
 20
6474222.65224
 10
704922.5801199998
 20
6474213.218513
 10
704913.146392
 20
6474206.763856999
 10
704889.9758320001
 20
6474197.495633002
 10
704877.066521
 20
6474193.192529002
 10
704864.984729
 20
6474189.716945
 10
704853.233945
 20
6474187.068881
 10
704842.1451770003
 20
6474186.572368997
 10
704831.552921
 20
6474190.047953001
 10
704822.2846979999
 20
6474192.034001
 10
704814.0094979998
 20
6474194.847569
 10
704804.2447620002
 20
6474196.833617
 10
704796.797082
 20
6474195.509584999
 10
704787.859866
 20
6474191.868497
 10
704777.267611
 20
6474191.702993
 10
704767.668379
 20
6474190.047953001
 10
704758.731163
 20
6474185.910353001
 10
704749.959451
 20
6474181.607249001
 10
704730.760987
 20
6474174.987089
 10
704708.08694
 20
6474165.387858
 10
704662.2423329998
 20
6474179.124688999
 10
704654.132637
 20
6474184.255313
 10
704645.526429
 20
6474193.192529002
 10
704638.244253
 20
6474197.661137002
 10
704631.1275810002
 20
6474194.682065
 10
704622.6868779998
 20
6474189.551441003
 10
704614.246174
 20
6474183.262289
 10
704593.723678
 20
6474179.952208999
 10
704581.6418859998
 20
6474178.628177
 10
704567.2430390002
 20
6474183.758801
 10
704554.002719
 20
6474184.586321
 10
704543.7414710001
 20
6474182.103760998
 10
704527.1910720003
 20
6474187.565393
 10
704508.48912
 20
6474194.682065
 10
704495.910816
 20
6474198.323153
 10
704478.3673920001
 20
6474203.950288999
 10
704469.5956810001
 20
6474210.073937
 10
704465.4580810001
 20
6474224.638287997
 10
704458.506913
 20
6474235.561551997
 10
704450.893729
 20
6474242.678223999
 10
704442.6185289998
 20
6474247.312336
 10
704434.3433290002
 20
6474243.671248
 10
704432.1917770003
 20
6474233.41
 10
704422.7580499998
 20
6474229.2724
 10
704413.986338
 20
6474228.44488
 10
704400.249506
 20
6474232.582479999
 10
704385.188642
 20
6474237.713104002
 10
704373.4378590002
 20
6474243.009232
 10
704365.9901789999
 20
6474247.312336
 10
704356.887459
 20
6474254.098
 10
704348.1157470002
 20
6474261.711183999
 10
704336.3649630002
 20
6474270.648399
 10
704326.434723
 20
6474274.785999
 10
704303.7606760002
 20
6474289.184847
 10
704291.347876
 20
6474298.784079
 10
704262.0536689998
 20
6474323.940686
 10
704248.813349
 20
6474336.684494
 10
704235.5730289999
 20
6474351.579854001
 10
704213.5609979999
 20
6474378.391501
 10
704202.3067260001
 20
6474389.811276997
 10
704187.2458620002
 20
6474407.023693
 10
704174.6675589999
 20
6474419.767500001
 10
704159.4411909999
 20
6474432.676812
 10
704146.200871
 20
6474436.152396
 10
704136.9326470001
 20
6474438.303948
 10
704128.6574470001
 20
6474437.807435998
 10
704120.87876
 20
6474438.138444
 10
704113.596584
 20
6474441.117516001
 10
704105.817896
 20
6474447.241164
 10
704094.894632
 20
6474456.509388
 10
704084.46788
 20
6474460.150476001
 10
704072.882601
 20
6474463.460555997
 10
704053.3531290002
 20
6474478.355915
 10
704043.2573850002
 20
6474488.948171
 10
704031.175593
 20
6474504.340043
 10
704015.9492259999
 20
6474531.648201997
 10
704004.860458
 20
6474547.536585999
 10
703994.764714
 20
6474564.417994002
 10
703986.9860260002
 20
6474581.464905001
 10
703983.5104419999
 20
6474589.243592999
 10
703982.0209060002
 20
6474594.539721
 10
703979.8693539998
 20
6474603.311433003
 10
703979.2073380002
 20
6474616.551752998
 10
703976.0627620002
 20
6474637.074248001
 10
703971.5941550003
 20
6474649.487048
 10
703966.1325229999
 20
6474660.74132
 10
703954.3817390002
 20
6474669.01652
 10
703944.4514989999
 20
6474675.305671
 10
703932.5352110002
 20
6474683.415367
 10
703923.597996
 20
6474690.201030997
 10
703915.6538040001
 20
6474697.483207002
 10
703887.021612
 20
6474725.949894
 10
703878.7464120002
 20
6474730.915013999
 10
703870.140205
 20
6474733.894086
 10
703862.6925249999
 20
6474746.141382
 10
703858.0584129999
 20
6474756.237126
 10
703856.899885
 20
6474765.008838
 10
703856.0723649998
 20
6474783.214276998
 10
703855.079341
 20
6474797.447621
 10
703855.079341
 20
6474811.680965
 10
703848.790189
 20
6474834.520516002
 10
703835.715373
 20
6474855.043012
 10
703824.792109
 20
6474861.663172
 10
703809.234734
 20
6474869.938372001
 10
703787.5537100001
 20
6474884.668226998
 10
703770.8378069997
 20
6474895.260483
 10
703756.7699670001
 20
6474899.398083
 10
703746.343215
 20
6474899.894595
 10
703737.9025109999
 20
6474901.053123
 10
703726.1517270002
 20
6474908.500803
 10
703711.4218720002
 20
6474924.389186002
 10
703702.65016
 20
6474938.953538
 10
703697.519536
 20
6474949.38029
 10
703692.554416
 20
6474964.606658001
 10
703685.7687520001
 20
6474978.177985
 10
703678.4865760002
 20
6474989.597761
 10
703667.2323050003
 20
6475002.838081
 10
703656.143537
 20
6475011.444289
 10
703647.371825
 20
6475017.898945
 10
703628.338865
 20
6475025.015616
 10
703619.0706420001
 20
6475029.318719999
 10
703599.044658
 20
6475040.07648
 10
703590.1074419999
 20
6475045.538112001
 10
703582.9907700001
 20
6475047.524159997
 10
703567.2678910001
 20
6475056.62688
 10
703552.5380350001
 20
6475063.412544
 10
703542.938803
 20
6475068.21216
 10
703529.036467
 20
6475076.652863
 10
703517.285684
 20
6475086.748607
 10
703500.5697800001
 20
6475103.795518999
 10
703487.494964
 20
6475119.187391001
 10
703477.39922
 20
6475133.089726
 10
703471.441076
 20
6475144.343998
 10
703463.827893
 20
6475170.162622
 10
703455.5526930001
 20
6475201.773884997
 10
703447.9395090001
 20
6475214.352188999
 10
703433.209653
 20
6475232.557628
 10
703420.631349
 20
6475248.446012001
 10
703404.577462
 20
6475269.134012003
 10
703391.6681500001
 20
6475293.794107
 10
703383.7239579999
 20
6475308.689467
 10
703376.607286
 20
6475323.419323
 10
703368.9941029999
 20
6475344.107322
 10
703364.5254949999
 20
6475358.837178
 10
703362.2084390001
 20
6475373.236026
 10
703361.380919
 20
6475383.166265
 10
703361.049911
 20
6475397.234105003
 10
703360.0568869998
 20
6475407.495353
 10
703356.2502950001
 20
6475418.087609
 10
703351.1196710001
 20
6475425.204281
 10
703345.9890470002
 20
6475433.148471998
 10
703337.2173350001
 20
6475441.75468
 10
703330.431671
 20
6475449.698872
 10
703314.046776
 20
6475476.014008003
 10
703305.771576
 20
6475492.398903001
 10
703300.806456
 20
6475502.991158997
 10
703294.5173039999
 20
6475519.045047
 10
703293.358776
 20
6475531.292342
 10
703296.172344
 20
6475541.057078
 10
703301.137464
 20
6475551.814838
 10
703308.585144
 20
6475559.262517999
 10
703318.1843760001
 20
6475566.710198001
 10
703322.652983
 20
6475580.778037
 10
703321.9909670002
 20
6475598.817973
 10
703320.004919
 20
6475610.237749
 10
703314.5432880001
 20
6475627.450163998
 10
703309.578168
 20
6475640.855988
 10
703302.7925040001
 20
6475655.42034
 10
703294.5173039999
 20
6475667.171124
 10
703274.987832
 20
6475687.031603
 10
703267.705657
 20
6475694.810291003
 10
703252.1482810001
 20
6475717.980850999
 10
703242.8800569999
 20
6475727.414579
 10
703236.259897
 20
6475737.344818
 10
703232.949817
 20
6475746.447538
 10
703232.2878010001
 20
6475773.424689999
 10
703231.129273
 20
6475792.457649
 10
703227.984697
 20
6475810.663088999
 10
703219.709497
 20
6475820.758833
 10
703212.9238340004
 20
6475832.178607999
 10
703204.3176260001
 20
6475847.901488
 10
703198.855994
 20
6475858.493744
  0
LWPOLYLINE
  5
31
330
2
100
AcDbEntity
  8
0
  6
Continuous
 62
     3
100
AcDbPolyline
 90
      166
 70
     0
 43
0.0
 38
1.958412421624396E+99
 10
706342.273403
 20
6476054.284972
 10
706347.404027
 20
6476046.837292
 10
706352.369147
 20
6476039.058603999
 10
706356.3412429999
 20
6476029.459373001
 10
706360.313339
 20
6476017.543084999
 10
706365.4439629998
 20
6476009.433389
 10
706375.0431950002
 20
6476001.323693
 10
706390.6005700001
 20
6475992.220973
 10
706406.1579460001
 20
6475980.966701
 10
706419.232762
 20
6475964.085294
 10
706429.8250180002
 20
6475942.900782
 10
706438.927738
 20
6475928.501934999
 10
706451.671545
 20
6475913.937583001
 10
706468.7184570002
 20
6475899.869743
 10
706478.648697
 20
6475889.773999
 10
706488.0824250002
 20
6475877.857712
 10
706491.558008
 20
6475869.582512001
 10
706489.5719609999
 20
6475860.645295999
 10
706485.7653689998
 20
6475852.370096
 10
706477.9866810003
 20
6475848.563504
 10
706469.049465
 20
6475846.411952
 10
706461.932793
 20
6475843.101871999
 10
706458.622713
 20
6475833.50264
 10
706459.119225
 20
6475824.730929
 10
706461.6017850004
 20
6475815.297201001
 10
706468.221945
 20
6475806.359984999
 10
706474.1800890002
 20
6475797.257265003
 10
706482.1242810001
 20
6475792.457649
 10
706491.7235119998
 20
6475797.091761002
 10
706503.6398000001
 20
6475800.236337001
 10
706513.404536
 20
6475795.271217
 10
706519.5281840002
 20
6475787.658033
 10
706529.7894320001
 20
6475769.287089999
 10
706540.878199
 20
6475747.440562003
 10
706543.3607590001
 20
6475739.992882
 10
706543.3607590001
 20
6475730.559153999
 10
706542.8642470002
 20
6475721.621938999
 10
706544.684791
 20
6475709.871155
 10
706551.139447
 20
6475692.989747
 10
706553.6220070001
 20
6475685.211058999
 10
706565.8693029998
 20
6475653.103283998
 10
706577.6200870002
 20
6475636.552884
 10
706584.0747430002
 20
6475624.471092999
 10
706589.2053669998
 20
6475609.410229
 10
706599.4666140001
 20
6475575.978422
 10
706601.1216540002
 20
6475565.55167
 10
706599.4666140001
 20
6475556.117942
 10
706599.1356060002
 20
6475547.677237999
 10
706594.1704860001
 20
6475536.091958
 10
706592.5154460003
 20
6475523.348151
 10
706588.7088550002
 20
6475509.942327
 10
706584.2402470001
 20
6475500.839607
 10
706578.778615
 20
6475490.412855
 10
706576.296055
 20
6475482.468663
 10
706570.668919
 20
6475457.312056
 10
706566.034807
 20
6475444.402744
 10
706562.2282150001
 20
6475427.521336
 10
706553.9530150002
 20
6475417.425593
 10
706546.3398310004
 20
6475403.192249
 10
706543.3607590001
 20
6475395.910073
 10
706541.871223
 20
6475384.655801
 10
706541.043703
 20
6475372.57401
 10
706550.3119270002
 20
6475337.321658003
 10
706584.405751
 20
6475161.721917999
 10
706589.701879
 20
6475136.56531
 10
706590.5293990001
 20
6475105.947071
 10
706587.3848229998
 20
6475080.293951
 10
706585.0677670002
 20
6475070.363712002
 10
706553.787511
 20
6474853.553476
 10
706547.332855
 20
6474844.285251997
 10
706541.2092069999
 20
6474830.217412002
 10
706529.2929200002
 20
6474815.487557
 10
706511.4184880002
 20
6474807.874372999
 10
706499.0056880002
 20
6474804.564293
 10
706488.247929
 20
6474802.578245
 10
706472.3595450002
 20
6474802.412741
 10
706457.6296890002
 20
6474802.909253001
 10
706447.202937
 20
6474799.268165
 10
706430.983546
 20
6474794.137541
 10
706419.0672580001
 20
6474792.316997
 10
706406.819962
 20
6474792.482500999
 10
706394.4071619999
 20
6474794.634053
 10
706385.6354510003
 20
6474791.323973001
 10
706383.152891
 20
6474782.552261
 10
706384.807931
 20
6474774.442565002
 10
706391.097082
 20
6474766.167366001
 10
706395.8966979999
 20
6474759.050694
 10
706400.0342979999
 20
6474747.134405999
 10
706362.464891
 20
6474732.239046
 10
706352.203643
 20
6474728.928966002
 10
706337.308284
 20
6474726.280901998
 10
706323.7369560003
 20
6474724.129350001
 10
706313.475708
 20
6474722.805318
 10
706295.270268
 20
6474726.280901998
 10
706281.0369250001
 20
6474727.770438
 10
706268.789629
 20
6474730.252998
 10
706258.031869
 20
6474731.080518
 10
706245.288061
 20
6474729.92199
 10
706237.840382
 20
6474729.92199
 10
706230.0616939999
 20
6474731.742533997
 10
706220.958974
 20
6474734.225094
 10
706209.042686
 20
6474735.549126001
 10
706196.6298859998
 20
6474740.017733997
 10
706186.699647
 20
6474744.81735
 10
706173.790335
 20
6474756.899142001
 10
706158.729471
 20
6474772.953029002
 10
706145.489151
 20
6474784.869317
 10
706131.255808
 20
6474792.648005001
 10
706118.5120000001
 20
6474798.109637
 10
706105.106176
 20
6474802.247237001
 10
706098.155008
 20
6474804.233284999
 10
706067.0402570001
 20
6474806.384837003
 10
706021.1956500001
 20
6474796.289092997
 10
706014.078978
 20
6474795.792581
 10
706006.30029
 20
6474793.310021
 10
705997.0320659998
 20
6474785.200324999
 10
705973.1994910001
 20
6474772.622021
 10
705954.663043
 20
6474765.836358001
 10
705947.380867
 20
6474765.670854001
 10
705931.4924840002
 20
6474767.656901997
 10
705917.5901479999
 20
6474768.81543
 10
705902.6947879998
 20
6474771.960005
 10
705888.9579560001
 20
6474775.766597
 10
705858.505221
 20
6474784.703813
 10
705836.658693
 20
6474790.330949
 10
705818.618758
 20
6474793.972037
 10
705799.585798
 20
6474796.785605
 10
705784.855943
 20
6474797.944133
 10
705771.450119
 20
6474800.923205
 10
705745.9625029999
 20
6474805.060805
 10
705734.046216
 20
6474807.708869
 10
705720.309384
 20
6474811.515460999
 10
705709.551624
 20
6474818.632133001
 10
705671.651209
 20
6474839.982148
 10
705658.0798810002
 20
6474849.415876
 10
705636.564361
 20
6474860.504643999
 10
705622.4965220002
 20
6474862.987204001
 10
705612.731786
 20
6474862.490691999
 10
705598.82945
 20
6474857.691076
 10
705567.5491949999
 20
6474837.334084
 10
705517.0704760001
 20
6474818.466629001
 10
705508.7952760001
 20
6474819.956165
 10
705496.7134840002
 20
6474820.783684998
 10
705487.9417720002
 20
6474821.114693
 10
705477.5150210002
 20
6474819.459652999
 10
705467.7502850002
 20
6474819.294149
 10
705454.8409729999
 20
6474819.459652999
 10
705428.8568459998
 20
6474818.963141001
 10
705412.306446
 20
6474815.984069
 10
705395.0940300002
 20
6474820.287173002
 10
705387.1498380002
 20
6474824.424772
 10
705378.378127
 20
6474837.830595999
 10
705374.075023
 20
6474868.448836
 10
705367.620367
 20
6475156.756798
 10
705367.1238550001
 20
6475225.937468
 10
705358.1866390001
 20
6475352.548026001
 10
705355.042063
 20
6475395.910073
 10
705349.911439
 20
6475566.213686
 10
705347.2633750001
 20
6475624.140085
 10
705344.6153109998
 20
6475645.159092001
 10
705341.1397270001
 20
6475686.866099001
 10
705338.1606550002
 20
6475701.926962999
 10
705340.477711
 20
6475800.401841
 10
705340.808719
 20
6475845.253424
 10
705340.9742230002
 20
6475918.240687001
 10
705342.629263
 20
6475950.844974001
  0
LWPOLYLINE
  5
32
330
2
100
AcDbEntity
  8
0
  6
Continuous
 62
     3
100
AcDbPolyline
 90
      425
 70
     0
 43
0.0
 10
703198.855994
 20
6475858.493744
 10
703195.8769220001
 20
6475864.286383997
 10
703188.7602500001
 20
6475879.678255
 10
703181.643578
 20
6475901.193775
 10
703173.2028739999
 20
6475925.191855
 10
703166.251707
 20
6475944.059309997
 10
703160.128059
 20
6475959.451182001
 10
703151.6873550001
 20
6475974.67755
 10
703143.4121550001
 20
6475986.097325
 10
703135.798971
 20
6476001.820205
 10
703132.9854030001
 20
6476019.860141002
 10
703128.020283
 20
6476035.748524
 10
703119.414075
 20
6476051.967916
 10
703111.1388760002
 20
6476068.68382
 10
703108.490812
 20
6476081.262123
 10
703109.4838360001
 20
6476090.033834998
 10
703115.772988
 20
6476097.150507
 10
703121.7311310001
 20
6476106.418730998
 10
703127.8547790001
 20
6476113.535402999
 10
703136.1299789999
 20
6476109.397803001
 10
703144.0741710001
 20
6476102.777642998
 10
703150.032315
 20
6476094.502442999
 10
703157.6454989999
 20
6476090.530347
 10
703166.5827149999
 20
6476090.199338998
 10
703174.1958979999
 20
6476091.192363
 10
703181.3125700001
 20
6476095.660971
 10
703188.7602500001
 20
6476104.763691
 10
703195.8769220001
 20
6476115.521451
 10
703199.0214979998
 20
6476125.782699
 10
703202.1660739999
 20
6476133.561385998
 10
703207.6277059999
 20
6476150.277290003
 10
703214.082362
 20
6476167.158698
 10
703215.902906
 20
6476179.074985999
 10
703216.233914
 20
6476191.653288998
 10
703213.9168579999
 20
6476207.210665003
 10
703202.1660739999
 20
6476231.705256
 10
703195.2149060001
 20
6476241.801
 10
703179.161018
 20
6476261.164968
 10
703171.216826
 20
6476271.922728
 10
703168.5687629999
 20
6476283.673511001
 10
703170.058298
 20
6476293.603751001
 10
703172.3753540001
 20
6476302.706471
 10
703176.678458
 20
6476315.284775
 10
703182.3055939999
 20
6476326.042534999
 10
703185.284666
 20
6476335.145254
 10
703187.7672260001
 20
6476349.709605997
 10
703185.45017
 20
6476366.591014
 10
703178.4990020002
 20
6476382.644901
 10
703162.445115
 20
6476405.153445
 10
703158.6385229999
 20
6476413.263141
 10
703154.335419
 20
6476425.675941003
 10
703150.032315
 20
6476443.219363999
 10
703144.7361869999
 20
6476473.010083998
 10
703132.157883
 20
6476516.537634998
 10
703125.0412109999
 20
6476526.302371
 10
703117.92454
 20
6476532.757026997
 10
703109.318332
 20
6476539.211682001
 10
703100.712124
 20
6476546.328354
 10
703088.4648279999
 20
6476554.769058
 10
703067.9423330001
 20
6476559.734178001
 10
703055.364029
 20
6476560.065186
 10
703045.9303010002
 20
6476559.568674
 10
703037.9861090001
 20
6476557.251617999
 10
703027.0628450001
 20
6476553.445026
 10
703018.1256290001
 20
6476549.969441999
 10
703008.691902
 20
6476543.018274
 10
703010.346942
 20
6476521.171747
 10
703003.064766
 20
6476501.973282998
 10
702996.775614
 20
6476490.056994999
 10
702991.148478
 20
6476481.781796
 10
702985.02483
 20
6476471.686051999
 10
702977.57715
 20
6476460.43178
 10
702971.9500140001
 20
6476451.329059998
 10
702967.315903
 20
6476440.902308
 10
702959.8682229999
 20
6476434.778659998
 10
702951.4275189999
 20
6476430.475557
 10
702943.3178229999
 20
6476428.324005
 10
702935.5391350001
 20
6476429.482533001
 10
702927.760447
 20
6476433.620132
 10
702919.650751
 20
6476440.240291999
 10
702917.499199
 20
6476447.522467999
 10
702914.5201279999
 20
6476450.170532
 10
702912.6995840001
 20
6476449.839524
 10
702910.3825279999
 20
6476449.177507999
 10
702908.892992
 20
6476448.515491997
 10
702908.561984
 20
6476445.536419999
 10
702910.0515199999
 20
6476440.405795999
 10
702914.18912
 20
6476432.627108001
 10
702927.9259510001
 20
6476422.365861001
 10
702936.2011509999
 20
6476419.717797
 10
702943.4833270001
 20
6476413.759653
 10
702943.9798390001
 20
6476407.636004998
 10
702939.8422390001
 20
6476395.885220997
 10
702947.6209270001
 20
6476390.920101001
 10
702955.068607
 20
6476390.920101001
 10
702962.5162870001
 20
6476392.078629
 10
702971.619006
 20
6476394.230181
 10
702986.67987
 20
6476399.029797
 10
703007.0368620001
 20
6476401.843365001
 10
703014.153534
 20
6476401.677861
 10
703022.5942370001
 20
6476399.360805
 10
703030.7039330002
 20
6476395.719716999
 10
703034.841533
 20
6476388.106533002
 10
703033.3519970001
 20
6476379.169318
 10
702992.8035180001
 20
6476335.145254
 10
702982.7077740003
 20
6476329.683623
 10
702975.92211
 20
6476321.408423
 10
702969.632958
 20
6476313.133222999
 10
702961.3577590001
 20
6476302.540967
 10
702949.9379829999
 20
6476293.272742999
 10
702942.6558069999
 20
6476285.825062998
 10
702934.3806069999
 20
6476279.535912001
 10
702924.946879
 20
6476274.570792
 10
702917.3336950001
 20
6476273.412263999
 10
702910.217024
 20
6476278.211880002
 10
702903.100352
 20
6476286.487079001
 10
702898.797248
 20
6476290.459174999
 10
702894.32864
 20
6476298.072359
 10
702889.8600320001
 20
6476306.347559
 10
702885.7224320001
 20
6476315.450279002
 10
702880.591808
 20
6476323.725479001
 10
702876.288704
 20
6476323.725479001
 10
702869.3375359999
 20
6476314.788262999
 10
702853.118145
 20
6476313.298726999
 10
702836.898753
 20
6476319.091366999
 10
702753.484739
 20
6476301.216935
 10
702747.361091
 20
6476309.161127
 10
702739.085891
 20
6476315.946791
 10
702731.307203
 20
6476315.946791
 10
702720.880451
 20
6476314.457255
 10
702712.1087399999
 20
6476301.713447
 10
702703.502532
 20
6476291.617703
 10
702693.737796
 20
6476287.645606999
 10
702685.6281
 20
6476283.508007001
 10
702677.5184039999
 20
6476277.715368
 10
702672.3877800002
 20
6476268.28164
 10
702665.76762
 20
6476259.840936002
 10
702648.7207090001
 20
6476246.104103998
 10
702645.741637
 20
6476245.607592
 10
702638.6249649999
 20
6476241.966504
 10
702631.3427890001
 20
6476241.801
 10
702623.895109
 20
6476242.62852
 10
702616.281925
 20
6476242.297512001
 10
702608.6687420003
 20
6476241.469991999
 10
702598.24199
 20
6476238.987432
 10
702587.3187260001
 20
6476235.677352
 10
702579.5400379999
 20
6476231.539751998
 10
702571.430342
 20
6476223.926569
 10
702565.472198
 20
6476215.816873
 10
702559.348551
 20
6476207.872680999
 10
702551.404359
 20
6476202.245545001
 10
702542.798151
 20
6476201.418025
 10
702534.853959
 20
6476204.728105
 10
702526.9097670001
 20
6476211.348265
 10
702523.5996870001
 20
6476219.126953
 10
702524.4272070001
 20
6476237.828904
 10
702523.5996870001
 20
6476246.269608
 10
702520.9516229999
 20
6476257.689384
 10
702516.152007
 20
6476270.102183998
 10
702511.021384
 20
6476285.328551
 10
702508.37332
 20
6476298.734374998
 10
702512.014408
 20
6476306.513063
 10
702517.9725510001
 20
6476316.608807
 10
702525.5857350001
 20
6476324.221991002
 10
702536.840007
 20
6476327.366567
 10
702543.9566790002
 20
6476326.042534999
 10
702547.763271
 20
6476325.215015
 10
702556.865991
 20
6476327.697574999
 10
702564.644679
 20
6476333.32471
 10
702568.1202620001
 20
6476347.39255
 10
702577.057478
 20
6476357.819302001
 10
702590.4633020001
 20
6476365.101478001
 10
702599.06951
 20
6476372.880166
 10
702609.82727
 20
6476391.085605
 10
702619.260997
 20
6476418.724773
 10
702624.2261170001
 20
6476436.4337
 10
702627.7017009999
 20
6476443.715876
 10
702631.177285
 20
6476454.63914
 10
702630.5152689999
 20
6476465.727908
 10
702629.687749
 20
6476475.32714
 10
702631.3427890001
 20
6476486.581411002
 10
702633.9908529999
 20
6476493.698083
 10
702638.9559729999
 20
6476508.427938997
 10
702640.280005
 20
6476518.027171001
 10
702637.7974450001
 20
6476529.115938999
 10
702635.4803890001
 20
6476536.894626
 10
702633.825349
 20
6476547.817890001
 10
702635.8113970001
 20
6476555.100066001
 10
702642.5970609999
 20
6476565.361313999
 10
702650.872261
 20
6476572.146978001
 10
702657.8234289999
 20
6476575.126050001
 10
702667.257156
 20
6476577.608609999
 10
702683.9730599999
 20
6476579.594658002
 10
702692.413764
 20
6476582.57373
 10
702705.48858
 20
6476589.028384998
 10
702712.1087399999
 20
6476593.828001
 10
702720.3839390001
 20
6476601.110177
 10
702727.0040990001
 20
6476608.226849
 10
702730.6451870001
 20
6476618.157088998
 10
702732.4657310001
 20
6476629.576865
 10
702732.6312350003
 20
6476638.51408
 10
702735.7758109999
 20
6476650.430368001
 10
702736.768835
 20
6476664.498208
 10
702736.106819
 20
6476693.626911001
 10
702732.796739
 20
6476706.867231
 10
702729.155651
 20
6476715.142430997
 10
702725.680067
 20
6476733.182367
 10
702724.521539
 20
6476751.056798
 10
702725.514563
 20
6476762.476574
 10
702729.3211549999
 20
6476770.255262001
 10
702733.7897629999
 20
6476779.854494
 10
702740.409923
 20
6476786.971165
 10
702748.850627
 20
6476790.612253
 10
702757.125827
 20
6476792.267292998
 10
702765.070019
 20
6476792.763805
 10
702779.303362
 20
6476790.281245
 10
702793.2056979999
 20
6476785.978141
 10
702804.294466
 20
6476783.164573999
 10
702812.9006740001
 20
6476787.302173002
 10
702815.3832340001
 20
6476796.901405
 10
702815.052226
 20
6476806.500637001
 10
702810.2526100001
 20
6476817.589404999
 10
702803.135938
 20
6476827.850653001
 10
702800.9843860001
 20
6476836.787867997
 10
702803.63245
 20
6476844.732059999
 10
702807.4390420001
 20
6476852.014236001
 10
702817.865793
 20
6476864.261532
 10
702841.201857
 20
6476853.503772
 10
702867.682496
 20
6476835.62934
 10
702893.9976320001
 20
6476820.402972999
 10
702908.39648
 20
6476813.617309
 10
702939.0147189999
 20
6476804.845597
 10
702969.798462
 20
6476801.039005001
 10
702989.493438
 20
6476805.011101
 10
703001.409726
 20
6476812.293277
 10
703010.346942
 20
6476821.395996998
 10
703020.277181
 20
6476827.850653001
 10
703038.482621
 20
6476838.1119
 10
703059.9981409999
 20
6476847.876636001
 10
703075.2245079999
 20
6476855.655323999
 10
703097.7330520001
 20
6476867.90262
 10
703122.558651
 20
6476882.963483998
 10
703137.288507
 20
6476892.562715002
 10
703152.6803790001
 20
6476907.458074999
 10
703160.128059
 20
6476923.511963
 10
703176.5129540001
 20
6476944.034458
 10
703187.6017220001
 20
6476957.274777999
 10
703195.38041
 20
6476963.729433999
 10
703214.7443779999
 20
6476973.659674
 10
703231.129273
 20
6476984.748442
 10
703237.7494330001
 20
6476994.182169002
 10
703237.5839290001
 20
6477004.277912999
 10
703234.439353
 20
6477020.497305001
 10
703232.1222970001
 20
6477029.269017
 10
703237.4184250001
 20
6477036.8822
 10
703246.686649
 20
6477044.991896
 10
703250.9897529999
 20
6477059.721752
 10
703256.285881
 20
6477078.754712001
 10
703266.878137
 20
6477090.670999
 10
703273.9948080001
 20
6477096.132631
 10
703290.3797039999
 20
6477104.904343
 10
703299.31692
 20
6477109.372951
 10
703325.797559
 20
6477121.785750999
 10
703346.4855590001
 20
6477128.571415001
 10
703384.882486
 20
6477137.508630001
 10
703419.9693340001
 20
6477147.107862
 10
703505.0383880001
 20
6477160.017174
 10
703717.3800160002
 20
6477189.311381001
 10
704099.6942479998
 20
6477255.51298
 10
704128.988455
 20
6477260.974612002
 10
704143.387303
 20
6477253.85794
 10
704156.462119
 20
6477250.216852
 10
704167.881895
 20
6477248.89282
 10
704184.432294
 20
6477251.375379998
 10
704198.831142
 20
6477254.850963999
 10
704211.57495
 20
6477259.981587999
 10
704218.857126
 20
6477265.44322
 10
704226.304805
 20
6477270.573844001
 10
704235.7385329998
 20
6477267.429268001
 10
704245.8342770001
 20
6477258.82306
 10
704258.7435890002
 20
6477252.699412
 10
704273.9699570001
 20
6477250.382356
 10
704282.9071720001
 20
6477252.2029
 10
704317.4975080001
 20
6477250.382356
 10
704333.5513949999
 20
6477250.547860001
 10
704352.253347
 20
6477245.086228
 10
704371.120803
 20
6477238.13506
 10
704380.058018
 20
6477234.493973
 10
704398.9254739997
 20
6477231.349396999
 10
704407.2006739999
 20
6477232.011413
 10
704426.3991380002
 20
6477235.155988998
 10
704434.8398410001
 20
6477234.659477
 10
704454.700321
 20
6477225.556757
 10
704462.148001
 20
6477228.535829
 10
704475.2228170001
 20
6477236.976533
 10
704483.994528
 20
6477246.575764
 10
704489.1251520002
 20
6477253.85794
 10
704495.0832960002
 20
6477263.291668
 10
704501.206944
 20
6477274.049428
 10
704502.5309759999
 20
6477279.842068
 10
704510.475168
 20
6477288.448274999
 10
704516.76432
 20
6477296.888979
 10
704524.2120000001
 20
6477306.157203001
 10
704532.818207
 20
6477311.949843
 10
704541.093407
 20
6477315.259923
 10
704548.5410869999
 20
6477317.080466998
 10
704555.9887670002
 20
6477317.245971
 10
704564.429471
 20
6477316.583955
 10
704575.6837430002
 20
6477316.087443
 10
704583.1314219999
 20
6477316.583955
 10
704591.2411180002
 20
6477317.907987002
 10
704608.6190380001
 20
6477324.528147
 10
704616.232222
 20
6477328.334739
 10
704625.0039340002
 20
6477333.630867
 10
704632.6171170001
 20
6477337.106451
 10
704640.7268130002
 20
6477339.754514
 10
704650.988061
 20
6477342.733586
 10
704658.766749
 20
6477343.395602
 10
704671.1795490002
 20
6477340.41653
 10
704680.9442839999
 20
6477339.092498001
 10
704722.816796
 20
6477338.926994001
 10
704771.474971
 20
6477314.763411001
 10
704786.5358340001
 20
6477308.308755
 10
704844.958745
 20
6477222.743188998
 10
704833.3734649999
 20
6477212.978453
 10
704823.9397380001
 20
6477204.868757
 10
704816.823066
 20
6477198.248597
 10
704818.64361
 20
6477191.131925
 10
704825.0982659998
 20
6477183.518742
 10
704821.622682
 20
6477176.236566
 10
704803.251738
 20
6477170.278422
 10
704795.142042
 20
6477167.961366002
 10
704787.859866
 20
6477165.313302
 10
704779.75017
 20
6477162.168726001
 10
704781.0742020002
 20
6477160.844694002
 10
704761.379227
 20
6477152.569494003
 10
704753.2695310002
 20
6477149.755925998
 10
704739.5326989999
 20
6477147.107862
 10
704726.457884
 20
6477146.280342
 10
704714.376092
 20
6477147.43887
 10
704705.935388
 20
6477143.466774
 10
704696.0051480002
 20
6477137.839637999
 10
704685.9094040001
 20
6477132.874519
 10
704672.669085
 20
6477127.081879
 10
704661.580317
 20
6477121.785750999
 10
704642.878365
 20
6477114.338070999
 10
704624.1764140001
 20
6477105.731862999
 10
704612.2601260002
 20
6477102.421783
 10
704601.005854
 20
6477098.780695
 10
704590.579102
 20
6477096.132631
 10
704578.0007979998
 20
6477093.815575
 10
704569.891103
 20
6477091.829527
 10
704564.0984630002
 20
6477084.712856
 10
704558.305823
 20
6477076.60316
 10
704547.8790710001
 20
6477074.1206
 10
704537.948831
 20
6477073.624087998
 10
704526.529056
 20
6477071.63804
 10
704510.6406720002
 20
6477066.010904
 10
704501.04144
 20
6477060.714776
 10
704486.3115840001
 20
6477056.74268
 10
704477.043361
 20
6477054.425623999
 10
704465.954593
 20
6477048.136471998
 10
704457.844897
 20
6477040.523288
 10
704447.252641
 20
6477033.572121
 10
704438.480929
 20
6477028.110488999
 10
704424.744098
 20
6477021.821337
 10
704413.820834
 20
6477016.194201
 10
704406.3731540003
 20
6477010.898073
 10
704400.249506
 20
6477002.457369002
 10
704397.435938
 20
6476992.858137
 10
704398.9254739997
 20
6476984.582937999
 10
704405.049122
 20
6476972.66665
 10
704414.4828500002
 20
6476961.577882
 10
704425.4061140001
 20
6476953.964698
 10
704445.4320970001
 20
6476938.572826
 10
704449.073185
 20
6476930.297626999
 10
704449.4041930002
 20
6476921.525915003
 10
704446.2596169999
 20
6476913.912730997
 10
704444.108065
 20
6476905.968538999
 10
704446.0941130002
 20
6476892.231707
 10
704454.5348170001
 20
6476879.818908003
 10
704462.810017
 20
6476866.247580001
 10
704466.616609
 20
6476858.303388
 10
704481.346464
 20
6476855.48982
 10
704494.2557759999
 20
6476855.48982
 10
704503.192992
 20
6476860.951452001
 10
704511.302688
 20
6476865.42006
 10
704521.894944
 20
6476868.73014
 10
704535.631775
 20
6476866.247580001
 10
704543.079455
 20
6476862.937499999
 10
704546.224031
 20
6476854.993308001
 10
704548.5410869999
 20
6476845.890587999
 10
704544.403487
 20
6476838.277404
 10
704541.7554230002
 20
6476830.333212999
 10
704547.217055
 20
6476818.747933
 10
704557.8093109998
 20
6476813.617309
 10
704562.774431
 20
6476806.666141002
 10
704571.5461430003
 20
6476795.246365002
 10
704589.5860779999
 20
6476785.978141
 10
704609.11555
 20
6476777.371933999
 10
704650.6570529999
 20
6476779.688989998
 10
704676.475677
 20
6476779.854494
 10
704706.928412
 20
6476775.882397999
 10
704721.1617560002
 20
6476772.737822
 10
704740.525723
 20
6476773.06883
 10
704760.717211
 20
6476777.537437999
 10
704790.3424260002
 20
6476786.309149
 10
704802.92073
 20
6476788.295197
 10
704878.7215609999
 20
6476794.087837
 10
704919.104536
 20
6476806.004124999
 10
704955.846423
 20
6476860.289436
 10
704965.611159
 20
6476885.28054
 10
704979.6789990002
 20
6476897.527834998
 10
705000.0359900001
 20
6476902.492955
 10
705023.3720540003
 20
6476907.954587002
 10
705053.1627729998
 20
6476919.043355
 10
705139.721363
 20
6476792.763805
 10
705262.028817
 20
6476603.096225
 10
705272.290065
 20
6476591.510945
 10
705274.110609
 20
6476583.40125
 10
705283.378832
 20
6476532.591523
 10
705285.6958879998
 20
6476508.593443
 10
705296.6191520003
 20
6476225.085097
 10
705299.2672160002
 20
6476121.810603
 10
705292.481552
 20
6476054.284972
  0
LWPOLYLINE
  5
33
330
2
100
AcDbEntity
  8
0
  6
Continuous
 62
     3
100
AcDbPolyline
 90
      133
 70
     0
 43
0.0
 38
1.958412421624396E+99
 10
705314.4935840002
 20
6476255.703336001
 10
705313.0040480002
 20
6476266.792104
 10
705310.19048
 20
6476299.230887
 10
705309.5284640004
 20
6476311.312679
 10
705309.693968
 20
6476319.091366999
 10
705315.3211040002
 20
6476322.566951
 10
705326.906384
 20
6476325.380519
 10
705332.6990230002
 20
6476332.497190002
 10
705328.2304160001
 20
6476339.613862002
 10
705320.617232
 20
6476342.261926
 10
705313.6660639999
 20
6476349.875109997
 10
705311.349008
 20
6476357.157286003
 10
705310.5214880002
 20
6476364.604966001
 10
705309.693968
 20
6476380.824358001
 10
705307.70792
 20
6476396.712741002
 10
705305.7218720002
 20
6476411.111588999
 10
705305.556368
 20
6476425.179429001
 10
705307.2114079999
 20
6476438.750756
 10
705306.05288
 20
6476455.632163997
 10
705302.7428
 20
6476483.602339
 10
705302.7428
 20
6476496.511651
 10
705300.7567520002
 20
6476519.351203001
 10
705299.598224
 20
6476528.453923
 10
705296.288144
 20
6476540.535714
 10
705294.136592
 20
6476552.120994
 10
705292.150544
 20
6476567.678369999
 10
705290.33
 20
6476579.925666003
 10
705287.8474399998
 20
6476589.193889
 10
705266.4974249998
 20
6476628.252833002
 10
705266.000913
 20
6476635.535008
 10
705263.352849
 20
6476642.155168
 10
705257.3947049999
 20
6476644.803232
 10
705253.422609
 20
6476647.947808
 10
705248.291985
 20
6476655.06448
 10
705213.8671539998
 20
6476706.370719
 10
705118.3713479999
 20
6476851.021212
 10
705109.7651399998
 20
6476867.571612
 10
705107.448084
 20
6476875.846812
 10
705103.806996
 20
6476884.122012003
 10
705096.193812
 20
6476891.735195001
 10
705087.091092
 20
6476898.189851
 10
705024.365078
 20
6476988.886041
 10
705029.9922140002
 20
6476991.203097
 10
705063.589525
 20
6476981.934874
 10
705077.8228689998
 20
6476981.438362003
 10
705085.436052
 20
6476984.086426
 10
705092.883732
 20
6476986.899993
 10
705101.986452
 20
6476989.713561001
 10
705110.2616520002
 20
6476991.534105
 10
705119.0333640002
 20
6476992.030617
 10
705127.8050760001
 20
6476993.023641
 10
705134.7562430001
 20
6476995.009689
 10
705155.940755
 20
6476993.189145
 10
705164.215955
 20
6476988.886041
 10
705171.4981310002
 20
6476986.568985
 10
705179.4423229998
 20
6476993.685657
 10
705209.5640500002
 20
6476979.286809998
 10
705214.6946740002
 20
6476972.997658
 10
705217.673746
 20
6476972.170138
 10
705312.342032
 20
6476983.42441
 10
705447.0622850002
 20
6476973.163162
 10
705499.5270520001
 20
6476967.039514
 10
705575.493387
 20
6476964.722457998
 10
705684.3950170001
 20
6476902.492955
 10
705704.9175119998
 20
6476881.804956
 10
705715.344264
 20
6476872.04022
 10
705727.4260560003
 20
6476862.275483997
 10
705741.659399
 20
6476848.538651998
 10
705756.885767
 20
6476836.125852001
 10
705767.4780229999
 20
6476828.347165
 10
705775.091207
 20
6476824.540573
 10
705783.200903
 20
6476821.230492999
 10
705790.9795900001
 20
6476815.106845
 10
705799.2547899998
 20
6476811.134749
 10
705818.122246
 20
6476801.039005001
 10
705826.397446
 20
6476797.728925
 10
705833.5141180002
 20
6476797.397916999
 10
705838.810245
 20
6476804.680093001
 10
705841.292805
 20
6476811.796765
 10
705835.66567
 20
6476821.561501
 10
705824.08039
 20
6476832.650269
 10
705812.1641020003
 20
6476846.056092
 10
705804.7164219999
 20
6476852.676252
 10
705788.8280380002
 20
6476868.895643999
 10
705773.9326789999
 20
6476883.459996001
 10
705759.3683270003
 20
6476894.879771
 10
705746.955527
 20
6476909.940634998
 10
705741.493895
 20
6476921.194907
 10
705740.1698630002
 20
6476929.470107002
 10
705737.687303
 20
6476938.73833
 10
705729.743112
 20
6476946.020506
 10
705720.309384
 20
6476951.15113
 10
705711.372168
 20
6476955.454233998
 10
705698.297352
 20
6476958.598809999
 10
705685.38804
 20
6476963.232921999
 10
705673.637257
 20
6476968.694554
 10
705663.7070169998
 20
6476980.610842
 10
705653.6112729999
 20
6476998.650777
 10
705648.6461529998
 20
6477010.070552998
 10
705646.6601050002
 20
6477020.993816998
 10
705647.984137
 20
6477029.931033
 10
705651.4597210003
 20
6477038.371736
 10
705653.1147609998
 20
6477045.488408
 10
705654.1077850001
 20
6477053.4326
 10
705666.024073
 20
6477059.059736001
 10
705672.9752409999
 20
6477059.390744001
 10
705691.677192
 20
6477052.770583999
 10
705713.8547280001
 20
6477040.854295998
 10
705728.915592
 20
6477033.075608999
 10
705740.6663750002
 20
6477031.586073
 10
705748.2795590002
 20
6477029.103513
 10
705760.0303430003
 20
6477016.690713
 10
705770.622599
 20
6477000.967833
 10
705774.5946949999
 20
6476993.189145
 10
705780.221831
 20
6476978.790298
 10
705790.317574
 20
6476967.867034
 10
705799.0892860002
 20
6476963.232921999
 10
705806.8679739999
 20
6476960.750362001
 10
705815.9706939999
 20
6476954.130202
 10
705827.0594620002
 20
6476944.034458
 10
705836.8241970001
 20
6476933.276699
 10
705845.2649010002
 20
6476920.201883
 10
705855.5261489998
 20
6476906.630555
 10
705866.6149170003
 20
6476898.189851
 10
705879.524229
 20
6476890.576667
 10
705890.4474920002
 20
6476887.597595
 10
705900.7087399997
 20
6476879.653404
 10
705903.853316
 20
6476871.543708
 10
705907.659908
 20
6476860.951452001
 10
705912.6250280002
 20
6476850.855708002
 10
705927.3548840002
 20
6476833.643293
 10
705936.2921
 20
6476825.699101
 10
705943.4087709999
 20
6476815.768861
  0
LWPOLYLINE
  5
34
330
2
100
AcDbEntity
  8
0
  6
Continuous
 62
     3
100
AcDbPolyline
 90
       87
 70
     1
 43
0.0
 38
1.958412421624396E+99
 10
705000.0359900001
 20
6477238.300564001
 10
704993.5813340001
 20
6477236.480021
 10
704981.499542
 20
6477238.797076
 10
704968.9212390003
 20
6477242.107156
 10
704956.0119270002
 20
6477236.149013
 10
704948.8952549999
 20
6477235.818005
 10
704929.20028
 20
6477236.480021
 10
704921.7526000001
 20
6477236.314517
 10
704899.4095600003
 20
6477236.480021
 10
704891.7963760001
 20
6477237.142037
 10
704883.6866800002
 20
6477237.307541003
 10
704875.5769850003
 20
6477235.155988998
 10
704861.8401529998
 20
6477226.384277003
 10
704783.391258
 20
6477337.768467
 10
704787.032346
 20
6477350.843282001
 10
704791.666458
 20
6477358.125458001
 10
704792.9904900001
 20
6477365.738641999
 10
704795.638554
 20
6477373.351826001
 10
704803.417242
 20
6477374.179346
 10
704811.692442
 20
6477367.062674
 10
704830.3943930001
 20
6477359.780498001
 10
704837.5110649999
 20
6477357.132433999
 10
704864.4882170002
 20
6477354.649874
 10
704868.625817
 20
6477353.822354
 10
704876.0734970001
 20
6477354.484370001
 10
704883.521176
 20
6477356.96693
 10
704890.9688560001
 20
6477360.773522
 10
704898.9130479998
 20
6477364.41461
 10
704906.360728
 20
6477367.393681999
 10
704914.4704239998
 20
6477367.559186001
 10
704921.7526000001
 20
6477370.538258001
 10
704928.703768
 20
6477374.510354
 10
704936.9789670001
 20
6477382.289042
 10
704956.673943
 20
6477396.025873
 10
704962.9630950001
 20
6477401.818513
 10
704981.168534
 20
6477406.949137
 10
704989.27823
 20
6477407.280145
 10
704997.2224220002
 20
6477400.163473
 10
705006.159638
 20
6477397.515408997
 10
705015.593366
 20
6477400.494481001
 10
705050.3492049999
 20
6477415.389841
 10
705060.113941
 20
6477417.044881
 10
705078.484885
 20
6477418.865425001
 10
705096.5248199998
 20
6477422.837520999
 10
705112.413204
 20
6477425.154577
 10
705135.418259
 20
6477426.478608999
 10
705146.8380350002
 20
6477429.954193
 10
705155.6097470002
 20
6477433.760784997
 10
705163.553939
 20
6477438.560401
 10
705171.3326270001
 20
6477440.877456
 10
705207.08149
 20
6477451.635216
 10
705215.5221939999
 20
6477455.1108
 10
705224.293906
 20
6477460.241424
 10
705236.5412010002
 20
6477474.474767999
 10
705250.112529
 20
6477478.115855997
 10
705268.483473
 20
6477474.640272
 10
705283.7098399997
 20
6477477.122832
 10
705294.7986080003
 20
6477477.784848
 10
705309.693968
 20
6477470.502672
 10
705315.652112
 20
6477462.392976
 10
705317.803664
 20
6477454.614287998
 10
705308.0389280002
 20
6477429.457680997
 10
705301.2532640003
 20
6477418.037905001
 10
705293.971088
 20
6477410.921233
 10
705285.5303840002
 20
6477402.149521
 10
705278.2482090001
 20
6477392.881296999
 10
705270.1385129998
 20
6477382.951058
 10
705265.835409
 20
6477367.890194003
 10
705265.0078890001
 20
6477360.277009998
 10
705262.525329
 20
6477354.484370001
 10
705258.5532330001
 20
6477346.043666
 10
705248.788497
 20
6477334.292883
 10
705243.657873
 20
6477327.176211
 10
705234.224145
 20
6477318.238995
 10
705223.466386
 20
6477313.439379001
 10
705208.7365300001
 20
6477309.467283
 10
705195.1652020003
 20
6477308.474258999
 10
705180.600851
 20
6477307.977747
 10
705164.7124670002
 20
6477304.998675
 10
705155.1132350002
 20
6477301.523091
 10
705147.334547
 20
6477297.882003
 10
705058.789909
 20
6477277.525012
 10
705030.157718
 20
6477267.098259999
 10
705022.213526
 20
6477261.802132001
 10
705014.93135
 20
6477254.354452
 10
705011.952278
 20
6477246.906771998
 10
705001.5255260003
 20
6477238.631571999
  0
LWPOLYLINE
  5
35
330
2
100
AcDbEntity
  8
0
  6
Continuous
 62
     3
100
AcDbPolyline
 90
      253
 70
     0
 43
0.0
 10
697249.3346183377
 20
6477090.228659555
 10
697351.4342859999
 20
6477017.352728998
 10
697398.6029249999
 20
6476985.575962
 10
697439.151404
 20
6476964.887962001
 10
697437.33086
 20
6476954.130202
 10
697429.055661
 20
6476938.407321998
 10
697403.568045
 20
6476901.996443
 10
697403.4025409999
 20
6476884.784027999
 10
697409.029677
 20
6476873.198747999
 10
697440.3099319999
 20
6476841.587483999
 10
697527.3650350001
 20
6476773.399838
 10
697631.7980569999
 20
6476716.466463
 10
697697.5031430001
 20
6476691.640862999
 10
697728.286887
 20
6476671.945888
 10
697737.7206139999
 20
6476659.367584
 10
697802.4326770001
 20
6476599.620641002
 10
697813.355941
 20
6476588.531873001
 10
697819.148581
 20
6476587.538848999
 10
697855.393956
 20
6476561.885729998
 10
697876.7439720001
 20
6476542.356258002
 10
697888.991267
 20
6476521.668258999
 10
697905.872675
 20
6476506.607395
 10
697988.790177
 20
6476441.895331999
 10
698046.2200640001
 20
6476382.14839
 10
698122.020895
 20
6476338.951845999
 10
698163.065886
 20
6476307.340583
 10
698205.4349090001
 20
6476284.170023001
 10
698220.826781
 20
6476266.461096001
 10
698238.2047
 20
6476261.826983999
 10
698255.2516119999
 20
6476252.062248001
 10
698294.476059
 20
6476198.769961
 10
698326.087323
 20
6476171.130794
 10
698343.961754
 20
6476165.834666003
 10
698362.4982020001
 20
6476165.338154
 10
698391.792409
 20
6476156.731946
 10
698457.994008
 20
6476130.251307
 10
698475.86844
 20
6476118.500523
 10
698578.480918
 20
6476018.701613
 10
698588.0801500001
 20
6475998.675629
 10
698607.2786130001
 20
6475974.843054
 10
698656.764308
 20
6475937.604653998
 10
698761.693842
 20
6475837.474736001
 10
698792.3120810001
 20
6475812.318128999
 10
698855.8656160001
 20
6475777.893297999
 10
698913.6265109999
 20
6475741.813426
 10
698959.802126
 20
6475704.409523
 10
698971.0563980001
 20
6475699.113394999
 10
698988.2688140001
 20
6475705.237043
 10
699008.4603010001
 20
6475703.085491003
 10
699056.621964
 20
6475653.765300001
 10
699125.1406189999
 20
6475617.850933
 10
699161.385994
 20
6475594.845876997
 10
699176.94337
 20
6475576.805942
 10
699192.004234
 20
6475547.015222
 10
699219.974409
 20
6475518.548534997
 10
699291.63764
 20
6475485.282231
 10
699311.167111
 20
6475468.400824
 10
699328.214023
 20
6475438.941112003
 10
699349.3985340001
 20
6475422.225208999
 10
699359.3287739999
 20
6475416.929080997
 10
699367.769478
 20
6475416.763576999
 10
699387.960966
 20
6475405.178296999
 10
699405.007877
 20
6475403.854265
 10
699480.808708
 20
6475378.532153
 10
699594.840962
 20
6475326.398393999
 10
699655.580928
 20
6475306.041403
 10
699708.045695
 20
6475279.395259
 10
699727.078655
 20
6475278.898746998
 10
699785.8325740001
 20
6475260.3623
 10
699816.119805
 20
6475256.059196
 10
699824.726013
 20
6475250.928571999
 10
699831.8426850001
 20
6475241.660348
 10
699833.9942370002
 20
6475224.613437002
 10
699827.043069
 20
6475215.676221
 10
699818.6023649999
 20
6475214.848701
 10
699800.065917
 20
6475223.620412999
 10
699781.3639660001
 20
6475221.965373
 10
699766.63411
 20
6475227.2615
 10
699756.538366
 20
6475235.5367
 10
699720.4584950001
 20
6475253.907644001
 10
699674.448384
 20
6475271.285564
 10
699630.0933130001
 20
6475295.780155001
 10
699620.8250890001
 20
6475291.146043
 10
699633.072385
 20
6475262.513851999
 10
699640.354561
 20
6475212.531645
 10
699646.643712
 20
6475202.435901
 10
699674.944896
 20
6475181.747901
 10
699738.332927
 20
6475151.791678
 10
699778.21939
 20
6475139.709886001
 10
699805.031037
 20
6475139.87539
 10
699823.732989
 20
6475133.917246
 10
699853.0271959999
 20
6475109.919167
 10
699881.1628760001
 20
6475091.879230998
 10
699901.5198670001
 20
6475092.044734998
 10
699919.063291
 20
6475103.299007002
 10
699936.6067150001
 20
6475104.457535
 10
699979.1412420001
 20
6475081.121471
 10
700123.957239
 20
6475000.024513
 10
700152.423926
 20
6474989.432257
 10
700204.061173
 20
6474961.296578001
 10
700233.8518930002
 20
6474936.801986
 10
700278.703476
 20
6474908.997315
 10
700305.8461310001
 20
6474896.419010998
 10
700422.360945
 20
6474879.703107001
 10
700495.8447199999
 20
6474857.525572
 10
700534.4071510001
 20
6474852.560451997
 10
700559.23275
 20
6474833.527491998
 10
700579.92075
 20
6474825.914308
 10
700594.154094
 20
6474823.266243999
 10
700634.2060610001
 20
6474828.396868
 10
700658.0386360001
 20
6474826.079812
 10
700710.6689069999
 20
6474815.653061
 10
700740.4596270001
 20
6474804.564293
 10
700752.541419
 20
6474795.958085
 10
700835.9554330002
 20
6474774.939076999
 10
700867.401192
 20
6474768.649926001
 10
700913.7423110003
 20
6474766.167366001
 10
700991.6946939999
 20
6474751.603013999
 10
701097.9482600001
 20
6474699.800263
 10
701168.618466
 20
6474654.617672
 10
701205.8568660001
 20
6474617.544776997
 10
701216.449121
 20
6474597.022281
 10
701214.463073
 20
6474564.914505997
 10
701179.3762260001
 20
6474490.437707
 10
701178.8797140001
 20
6474464.288076001
 10
701164.811874
 20
6474401.562061
 10
701155.378147
 20
6474379.219021
 10
701104.733924
 20
6474345.787214
 10
701087.521508
 20
6474342.477133999
 10
701055.910244
 20
6474322.451149999
 10
701031.9121650001
 20
6474312.851919001
 10
700965.379558
 20
6474301.763151
 10
700928.637671
 20
6474289.019343
 10
700911.259751
 20
6474288.688335
 10
700897.853928
 20
6474284.550734997
 10
700890.9027600001
 20
6474274.123983
 10
700896.6954
 20
6474255.256527999
 10
700892.226792
 20
6474237.216592
 10
700876.83492
 20
6474230.09992
 10
700865.084136
 20
6474219.176655998
 10
700855.8159120001
 20
6474201.302225
 10
700828.6732569999
 20
6474170.683985
 10
700817.087977
 20
6474151.154513999
 10
700784.3181860001
 20
6474116.233171002
 10
700751.548395
 20
6474098.027730998
 10
700680.050668
 20
6474071.050579
 10
700628.413421
 20
6474068.071507
 10
700551.950575
 20
6474052.845140001
 10
700411.1066729999
 20
6474007.993556998
 10
700373.8682739999
 20
6473982.340437
 10
700284.66162
 20
6473940.136918001
 10
700245.271669
 20
6473933.020246001
 10
700210.5158290001
 20
6473931.53071
 10
700117.8335909999
 20
6473945.102037998
 10
700085.89132
 20
6473957.18383
 10
700050.6389680001
 20
6473954.535766
 10
699999.994745
 20
6473964.466006
 10
699960.604794
 20
6473974.065237
 10
699888.4450520002
 20
6473960.162902
 10
699835.8147810001
 20
6473933.516758003
 10
699800.727933
 20
6473921.931478002
 10
699759.5174380001
 20
6473923.752022
 10
699679.248
 20
6473904.719063
 10
699618.8390410002
 20
6473881.879511
 10
699599.971585
 20
6473867.646167
 10
699582.5936660001
 20
6473832.559319999
 10
699506.4618270001
 20
6473760.399578
 10
699468.3959079999
 20
6473717.03753
 10
699414.110597
 20
6473642.229724
 10
699354.363654
 20
6473551.864542002
 10
699325.5659590001
 20
6473481.525342999
 10
699307.6915270001
 20
6473398.276833003
 10
699312.8221510001
 20
6473273.486819
 10
699291.472136
 20
6473235.917412
 10
699274.5907279999
 20
6473224.66314
 10
699265.9845199999
 20
6473208.609252999
 10
699269.956616
 20
6473194.375908999
 10
699288.1620560003
 20
6473176.997989
 10
699299.7473350001
 20
6473158.627046
 10
699316.132231
 20
6473145.221222
 10
699327.055495
 20
6473128.836326
 10
699329.2070470001
 20
6473112.616933998
 10
699324.241927
 20
6473108.479334999
 10
699294.616711
 20
6473108.975847
 10
699284.0244560001
 20
6473103.679719002
 10
699292.1341520001
 20
6473081.833191001
 10
699304.712455
 20
6473063.793255001
 10
699308.6845510001
 20
6473040.953704003
 10
699313.1531590001
 20
6473031.519976
 10
699352.708614
 20
6473028.044392
 10
699363.9628859999
 20
6473031.188968
 10
699365.948934
 20
6473041.119208001
 10
699363.631878
 20
6473051.049448002
 10
699372.2380859999
 20
6473055.187048
 10
699412.786565
 20
6473017.286632
 10
699496.035075
 20
6472910.205546
 10
699532.1149470001
 20
6472877.104746999
 10
699565.546754
 20
6472850.789612
 10
699637.375489
 20
6472817.026796
 10
699653.7603840001
 20
6472802.958956999
 10
699675.2759040001
 20
6472793.856237
 10
699690.3367680001
 20
6472778.133357
 10
699705.232127
 20
6472768.203116999
 10
699767.6271340001
 20
6472747.515117999
 10
699799.900413
 20
6472749.004654
 10
699832.0081890001
 20
6472759.431405002
 10
699855.6752600001
 20
6472755.45931
 10
699866.43302
 20
6472748.177134
 10
699873.5496920001
 20
6472739.570926002
 10
699882.486908
 20
6472717.558894
 10
699892.251644
 20
6472672.210799
 10
699911.450107
 20
6472623.718128
 10
699958.2877380001
 20
6472543.44869
 10
699975.1691460001
 20
6472508.858354
 10
699999.994745
 20
6472417.003636
 10
700008.4354490001
 20
6472410.714483999
 10
700043.6878010001
 20
6472355.601653998
 10
700114.523511
 20
6472264.408951
 10
700143.155703
 20
6472240.410872
 10
700160.699126
 20
6472221.212408003
 10
700164.6712220001
 20
6472206.979064
 10
700164.009206
 20
6472187.946105001
 10
700173.111926
 20
6472177.188345
 10
700165.9952539999
 20
6472152.197242
 10
700169.470838
 20
6472132.833273998
 10
700166.9882779999
 20
6472115.620858001
 10
700169.470838
 20
6472051.239804
 10
700181.3871260003
 20
6472020.787068
 10
700195.454966
 20
6471995.961469
 10
700218.6255250001
 20
6471900.796671
 10
700207.536757
 20
6471870.840447
 10
700187.510774
 20
6471847.504383998
 10
700177.249526
 20
6471828.636927998
 10
700177.9115420001
 20
6471814.569088
 10
700164.6712220001
 20
6471793.550081001
 10
700159.3750939999
 20
6471793.550081001
 10
700153.085942
 20
6471786.267905001
 10
700147.9553189999
 20
6471768.889985
 10
700149.279351
 20
6471721.390338
 10
700141.6661669999
 20
6471714.935682
 10
700135.708023
 20
6471716.590722
 10
700119.6541350001
 20
6471712.784130001
 10
700123.7917350001
 20
6471699.047298999
 10
700135.708023
 20
6471690.110083
 10
700139.514615
 20
6471672.566659
 10
700137.363063
 20
6471636.983300002
 10
700137.0320550001
 20
6471621.591427998
 10
700142.328183
 20
6471614.64026
 10
700146.3705
 20
6471592.297
 10
700144.2975
 20
6471585.737000001
 10
700137.1845
 20
6471578.402999999
 10
700095.0095
 20
6471539.085
 10
700093.4105
 20
6471538.640999999
  0
LWPOLYLINE
  5
36
330
2
100
AcDbEntity
  8
0
  6
Continuous
 62
     3
100
AcDbPolyline
 90
        7
 70
     0
 43
0.0
 10
700185.1937180001
 20
6471490.512263
 10
700184.1297270558
 20
6471500.129400173
 10
700183.9273846281
 20
6471505.089374512
 10
700183.8266928984
 20
6471510.251503842
 10
700182.7123710926
 20
6471530.39523178
 10
700181.3966658279
 20
6471533.836651333
 10
700181.3966658279
 20
6471533.836651333
  0
LWPOLYLINE
  5
37
330
2
100
AcDbEntity
  8
0
  6
Continuous
 62
     3
100
AcDbPolyline
 90
       16
 70
     0
 43
0.0
 10
700181.3966658279
 20
6471533.836651333
 10
700180.9593760317
 20
6471541.562799716
 10
700178.0747977251
 20
6471544.607086388
 10
700170.5430563625
 20
6471543.805643532
 10
700161.8334999999
 20
6471535.833999999
 10
700155.9485000001
 20
6471529.944
 10
700146.5195000001
 20
6471528.2
 10
700140.5315000001
 20
6471523.927999998
 10
700134.0564999999
 20
6471515.071000001
 10
700121.0005
 20
6471495.025
 10
700108.8685
 20
6471486.157000001
 10
700093.5589548724
 20
6471476.778704624
 10
700075.5403284292
 20
6471478.378366023
 10
700064.6125
 20
6471484.966
 10
700052.3484999999
 20
6471497.616
 10
700044.8217853949
 20
6471507.523190138
  0
LWPOLYLINE
  5
38
330
2
100
AcDbEntity
  8
0
  6
Continuous
 62
     3
100
AcDbPolyline
 90
      216
 70
     0
 43
0.0
 10
700185.1937180001
 20
6471490.512263
 10
700185.6902300001
 20
6471472.803335
 10
700191.4828699999
 20
6471450.956807
 10
700201.2476050001
 20
6471441.357576002
 10
700214.9844369999
 20
6471423.648647999
 10
700212.6673810001
 20
6471411.73236
 10
700227.893749
 20
6471404.119176002
 10
700229.5487890001
 20
6471398.492041
 10
700239.4790290001
 20
6471388.727305003
 10
700247.0922130001
 20
6471365.722248997
 10
700248.5817490001
 20
6471350.164873
 10
700271.5868040001
 20
6471337.752073999
 10
700284.66162
 20
6471323.684234
 10
700273.9038600001
 20
6471309.616394001
 10
700280.3585159999
 20
6471296.872587
 10
700278.5379720001
 20
6471292.238475
 10
700301.046515
 20
6471268.074891001
 10
700302.701555
 20
6471261.454730997
 10
700290.2887560002
 20
6471228.850444
 10
700290.785268
 20
6471207.003916
 10
700286.8131719999
 20
6471190.453517
 10
700294.5918600001
 20
6471164.634893
 10
700295.584884
 20
6471113.99067
 10
700318.9209470001
 20
6471057.553807
 10
700318.258931
 20
6470908.269201999
 10
700315.9418750001
 20
6470888.574227
 10
700303.529075
 20
6470870.534291
 10
700304.356595
 20
6470857.293971
 10
700300.715507
 20
6470848.522259
 10
700287.6406920001
 20
6470836.10946
 10
700282.510068
 20
6470822.86914
 10
700258.0154760001
 20
6470798.209044001
 10
700249.740277
 20
6470783.975701
 10
700251.229812
 20
6470758.488085
 10
700262.1530760001
 20
6470737.96559
 10
700267.780212
 20
6470700.065174
 10
700261.822068
 20
6470692.617495
 10
700273.241844
 20
6470679.708183
 10
700276.055412
 20
6470671.267479
 10
700274.0693639998
 20
6470665.474839001
 10
700288.79922
 20
6470649.420951
 10
700312.797299
 20
6470597.949207999
 10
700341.5949949999
 20
6470500.963865999
 10
700343.250035
 20
6470468.525083
 10
700335.967859
 20
6470436.417308
 10
700307.335667
 20
6470376.835869
 10
700262.9805959999
 20
6470330.163742
 10
700246.0991890001
 20
6470306.165662
 10
700239.6445329999
 20
6470262.969119001
 10
700240.968565
 20
6470254.031903
 10
700264.9666439999
 20
6470207.856287998
 10
700275.5589
 20
6470196.436512
 10
700334.974835
 20
6470174.424481
 10
700358.972914
 20
6470156.550048999
 10
700415.575281
 20
6470138.510114
 10
700425.340017
 20
6470132.055458
 10
700441.228401
 20
6470107.064354
 10
700449.503601
 20
6470084.059298999
 10
700450.496625
 20
6470067.177891
 10
700443.379953
 20
6470031.760036
 10
700455.29624
 20
6469999.983268
 10
700453.6412
 20
6469983.101861
 10
700457.944304
 20
6469971.682085001
 10
700499.1548000001
 20
6469924.67895
 10
700513.057135
 20
6469899.687846
 10
700523.152879
 20
6469871.883175
 10
700536.062191
 20
6469848.878119002
 10
700552.281582
 20
6469828.852136
 10
700585.382382
 20
6469770.925737
 10
700637.516141
 20
6469711.84081
 10
700641.819245
 20
6469698.931498002
 10
700639.005677
 20
6469684.532651001
 10
700630.8959810001
 20
6469675.429930997
 10
700629.902957
 20
6469667.320235
 10
700623.2827970001
 20
6469664.506667001
 10
700612.194029
 20
6469642.991147001
 10
700606.897901
 20
6469639.019051002
 10
700599.7812299999
 20
6469638.191531998
 10
700590.181998
 20
6469631.90238
 10
700584.3893579999
 20
6469617.00702
 10
700586.871918
 20
6469594.498476001
 10
700597.7951819999
 20
6469584.899244997
 10
700609.380461
 20
6469580.099629
 10
700626.592877
 20
6469579.106605
 10
700629.902957
 20
6469581.589165001
 10
700638.012653
 20
6469606.911276001
 10
700648.108397
 20
6469609.890348
 10
700683.0297399999
 20
6469594.994988
 10
700720.2681390001
 20
6469565.700781
 10
700723.0817069999
 20
6469547.991853
 10
700715.4685229998
 20
6469506.284846
 10
700723.578219
 20
6469479.969711
 10
700720.7646510001
 20
6469473.349551001
 10
700711.6619310001
 20
6469470.866991001
 10
700699.083628
 20
6469474.673583
 10
700693.456492
 20
6469471.860015
 10
700685.181292
 20
6469454.647599
 10
700687.6638520001
 20
6469433.463087997
 10
700691.9669560002
 20
6469423.036336
 10
700696.27006
 20
6469414.761136
 10
700707.6898350002
 20
6469411.451056
 10
700727.384811
 20
6469430.153008
 10
700747.079787
 20
6469425.849904
 10
700752.706923
 20
6469429.656495998
 10
700755.685994
 20
6469437.766191
 10
700762.8026659999
 20
6469440.745263
 10
700784.152682
 20
6469426.346416002
 10
700788.952298
 20
6469420.553776002
 10
700790.938346
 20
6469407.644464
 10
700777.8635300001
 20
6469359.648305003
 10
700772.2363940001
 20
6469359.648305003
 10
700763.6301859999
 20
6469368.751025
 10
700757.8375460001
 20
6469369.744048999
 10
700745.424747
 20
6469349.718065
 10
700733.839467
 20
6469340.615344997
 10
700727.219307
 20
6469337.636273
 10
700709.510379
 20
6469341.939377
 10
700696.9320760001
 20
6469338.132785
 10
700680.712684
 20
6469312.314162
 10
700678.7266359999
 20
6469304.204465998
 10
700679.7196600001
 20
6469292.619185999
 10
700690.808428
 20
6469270.607155
 10
700695.608044
 20
6469250.415667
 10
700695.277036
 20
6469201.591988
 10
700682.3677239999
 20
6469155.581876999
 10
700680.050668
 20
6469134.066358
 10
700719.7716270001
 20
6469076.967479
 10
700722.585195
 20
6469064.554679
 10
700709.179371
 20
6469036.253495
 10
700708.6828590001
 20
6469023.840695999
 10
700713.482475
 20
6469009.93836
 10
700727.8813230001
 20
6468993.222456
 10
700755.189482
 20
6468984.947256
 10
700764.788714
 20
6468977.334073001
 10
700805.5026970001
 20
6468900.705722002
 10
700816.425961
 20
6468886.306874
 10
700830.328297
 20
6468879.190203
 10
700854.326376
 20
6468876.211131
 10
700869.7182479998
 20
6468879.190203
 10
700880.1449999999
 20
6468898.223162
 10
700884.9446159999
 20
6468901.202234
 10
700894.5438480002
 20
6468895.409594
 10
700906.4601350001
 20
6468901.698746
 10
700909.935719
 20
6468897.395642
 10
700910.432231
 20
6468868.101435
 10
700934.7613189999
 20
6468846.089403
 10
700944.360551
 20
6468851.716539001
 10
700955.94583
 20
6468848.902971
 10
700975.971814
 20
6468790.48006
 10
700994.177254
 20
6468756.386237
 10
700990.8671739999
 20
6468744.469949
 10
700964.5520380001
 20
6468743.476924998
 10
700955.94583
 20
6468750.262589
 10
700945.3535749999
 20
6468773.764157
 10
700938.5679110001
 20
6468776.081212999
 10
700914.7353350001
 20
6468743.476924998
 10
700909.935719
 20
6468726.26451
 10
700915.231847
 20
6468702.762941999
 10
700918.045415
 20
6468697.466814001
 10
700935.7543430002
 20
6468687.867582
 10
700943.864039
 20
6468664.035007
 10
700951.973735
 20
6468656.256319
 10
700965.0485499999
 20
6468650.960191
 10
700979.2818940002
 20
6468647.650111001
 10
700987.0605819999
 20
6468651.456703
 10
700999.9698939999
 20
6468650.629183001
 10
701013.872229
 20
6468633.747774997
 10
701027.2780530002
 20
6468633.251263001
 10
701042.5044210001
 20
6468641.857470998
 10
701054.586213
 20
6468635.237311
 10
701071.7986279999
 20
6468637.554367001
 10
701090.997092
 20
6468634.740799
 10
701101.920356
 20
6468625.638079998
 10
701100.927332
 20
6468612.728768
 10
701087.521508
 20
6468604.12256
 10
701082.3908839999
 20
6468583.434560001
 10
701077.591268
 20
6468580.124480999
 10
701050.7796210001
 20
6468578.138433001
 10
701033.8982130001
 20
6468571.021761
 10
701026.781541
 20
6468562.912065
 10
701017.678821
 20
6468541.231041
 10
701004.76951
 20
6468525.01165
 10
701002.783462
 20
6468506.80621
 10
701006.590053
 20
6468497.206978
 10
701005.762533
 20
6468489.097282001
 10
700999.473382
 20
6468484.794178
 10
700998.480358
 20
6468472.712387
 10
701006.093541
 20
6468432.991427
 10
700999.9698939999
 20
6468422.068164001
 10
700977.4613500001
 20
6468414.289475998
 10
700968.3586300001
 20
6468406.17978
 10
700954.4562949999
 20
6468385.988291998
 10
700954.952806
 20
6468371.258437001
 10
700961.572966
 20
6468346.267333
 10
700969.351654
 20
6468338.157637
 10
700996.1633020001
 20
6468324.751814
 10
701033.4017010001
 20
6468295.457606
 10
701043.4974449998
 20
6468278.245191002
 10
701044.986981
 20
6468265.335879
 10
701038.697829
 20
6468235.048647002
 10
701045.980005
 20
6468226.938952
 10
701060.213348
 20
6468218.332744003
 10
701065.012964
 20
6468202.113352
 10
701062.6959079999
 20
6468196.320712
 10
701035.387749
 20
6468173.812169002
 10
701024.7954930001
 20
6468150.807113
 10
701019.0028530001
 20
6468129.291593001
 10
701020.9889010001
 20
6468087.088074
 10
701026.781541
 20
6468066.400075
 10
701047.304037
 20
6468020.058956
 10
701078.418788
 20
6467996.557388
 10
701091.3281
 20
6467979.179468001
 10
701099.106788
 20
6467961.470541
 10
701097.12074
 20
6467940.451532999
 10
701084.8734439999
 20
6467920.260046
 10
701082.4120916947
 20
6467908.983617998
  0
LWPOLYLINE
  5
39
330
2
100
AcDbEntity
  8
ramp
  6
Continuous
100
AcDbPolyline
 90
        2
 70
     0
 43
0.0
 10
700042.0335000001
 20
6471498.587000001
 10
700039.2475000001
 20
6471503.198999998
  0
LWPOLYLINE
  5
3B
330
2
100
AcDbEntity
  8
ramp
  6
Continuous
100
AcDbPolyline
 90
        2
 70
     0
 43
0.0
 10
700037.8945000001
 20
6471497.502
 10
700041.4632163487
 20
6471499.570765653
  0
LWPOLYLINE
  5
3C
330
2
100
AcDbEntity
  8
ramp
  6
Continuous
100
AcDbPolyline
 90
        2
 70
     0
 43
0.0
 10
700036.1835000001
 20
6471500.009999998
 10
700039.8352335008
 20
6471502.226054234
  0
LWPOLYLINE
  5
3D
330
2
100
AcDbEntity
  8
ramp
  6
Continuous
100
AcDbPolyline
 90
        2
 70
     0
 43
0.0
 10
700036.6387664993
 20
6471499.288945766
 10
700040.2905
 20
6471501.504999999
  0
LWPOLYLINE
  5
3E
330
2
100
AcDbEntity
  8
ramp
  6
Continuous
100
AcDbPolyline
 90
        2
 70
     0
 43
0.0
 10
700037.3536912555
 20
6471498.105445057
 10
700041.0054247564
 20
6471500.32149929
  0
LWPOLYLINE
  5
3F
330
2
100
AcDbEntity
  8
ramp
  6
Continuous
100
AcDbPolyline
 90
        3
 70
     0
 43
0.0
 10
700039.2475000001
 20
6471503.198999998
 10
700041.8035000001
 20
6471504.662
 10
700041.8035000001
 20
6471504.662
  0
LWPOLYLINE
  5
40
330
2
100
AcDbEntity
  8
ramp
  6
Continuous
100
AcDbPolyline
 90
        2
 70
     0
 43
0.0
 10
700042.0335000001
 20
6471498.587000001
 10
700044.6110859773
 20
6471500.11280715
  0
LWPOLYLINE
  5
41
330
2
100
AcDbEntity
  8
ramp
  6
Continuous
100
AcDbPolyline
 90
        2
 70
     0
 43
0.0
 10
700041.0375
 20
6471505.782
 10
700044.6110859773
 20
6471500.11280715
  0
POINT
  5
42
330
2
100
AcDbEntity
  8
Punktid
 48
0.5
100
AcDbPoint
 10
700045.1395
 20
6471500.308000002
 30
0.0
  0
POINT
  5
44
330
2
100
AcDbEntity
  8
3dPunktid
 48
0.5
100
AcDbPoint
 10
700045.1395
 20
6471500.308000002
 30
2.149999999999999
  0
POINT
  5
46
330
2
100
AcDbEntity
  8
Punktid
 48
0.5
100
AcDbPoint
 10
700045.1404999999
 20
6471500.310999998
 30
0.0
  0
POINT
  5
47
330
2
100
AcDbEntity
  8
3dPunktid
 48
0.5
100
AcDbPoint
 10
700045.1404999999
 20
6471500.310999998
 30
2.16
  0
POINT
  5
48
330
2
100
AcDbEntity
  8
Punktid
 48
0.5
100
AcDbPoint
 10
700074.5505000003
 20
6471527.359
 30
0.0
  0
POINT
  5
49
330
2
100
AcDbEntity
  8
3dPunktid
 48
0.5
100
AcDbPoint
 10
700074.5505000003
 20
6471527.359
 30
1.879999999999999
  0
POINT
  5
4A
330
2
100
AcDbEntity
  8
Punktid
 48
0.5
100
AcDbPoint
 10
700041.0375
 20
6471505.782
 30
0.0
  0
POINT
  5
4B
330
2
100
AcDbEntity
  8
3dPunktid
 48
0.5
100
AcDbPoint
 10
700041.0375
 20
6471505.782
 30
2.14
  0
POINT
  5
4C
330
2
100
AcDbEntity
  8
Punktid
 48
0.5
100
AcDbPoint
 10
700041.8035000001
 20
6471504.662
 30
0.0
  0
POINT
  5
4D
330
2
100
AcDbEntity
  8
3dPunktid
 48
0.5
100
AcDbPoint
 10
700041.8035000001
 20
6471504.662
 30
2.149999999999999
  0
POINT
  5
4E
330
2
100
AcDbEntity
  8
Punktid
 48
0.5
100
AcDbPoint
 10
700044.8464999999
 20
6471500.944
 30
0.0
  0
POINT
  5
4F
330
2
100
AcDbEntity
  8
3dPunktid
 48
0.5
100
AcDbPoint
 10
700044.8464999999
 20
6471500.944
 30
2.209999999999999
  0
POINT
  5
50
330
2
100
AcDbEntity
  8
Punktid
 48
0.5
100
AcDbPoint
 10
700042.6084999999
 20
6471504.515
 30
0.0
  0
POINT
  5
51
330
2
100
AcDbEntity
  8
3dPunktid
 48
0.5
100
AcDbPoint
 10
700042.6084999999
 20
6471504.515
 30
2.149999999999999
  0
POINT
  5
52
330
2
100
AcDbEntity
  8
Punktid
 48
0.5
100
AcDbPoint
 10
700051.4925
 20
6471508.516
 30
0.0
  0
POINT
  5
53
330
2
100
AcDbEntity
  8
3dPunktid
 48
0.5
100
AcDbPoint
 10
700051.4925
 20
6471508.516
 30
1.7
  0
LWPOLYLINE
  5
54
330
2
100
AcDbEntity
  8
kaid
  6
Continuous
 62
     5
100
AcDbPolyline
 90
        9
 70
     0
 43
0.1
 10
700041.7725
 20
6471505.701999999
 10
700049.8495000002
 20
6471510.525999998
 10
700056.7615
 20
6471514.866000001
 10
700068.0795
 20
6471521.774
 10
700076.9745000001
 20
6471527.327999999
 10
700082.3654999999
 20
6471530.739
 10
700087.9955000001
 20
6471534.51
 10
700093.4105
 20
6471538.640999999
 10
700093.4105
 20
6471538.640999999
  0
LWPOLYLINE
  5
56
330
2
100
AcDbEntity
  8
ramp
  6
Continuous
100
AcDbPolyline
 90
        2
 70
     0
 43
0.1
 10
700042.6084999999
 20
6471504.515
 10
700050.6901702874
 20
6471509.51525298
  0
LWPOLYLINE
  5
57
330
2
100
AcDbEntity
  8
ramp
  6
Continuous
100
AcDbPolyline
 90
        2
 70
     0
 43
0.1
 10
700044.8464999999
 20
6471500.944
 10
700052.9281702874
 20
6471505.94425298
  0
LWPOLYLINE
  5
58
330
2
100
AcDbEntity
  8
ramp
  6
Continuous
100
AcDbPolyline
 90
        2
 70
     0
 43
0.1
 10
700052.9281702874
 20
6471505.94425298
 10
700050.6901702874
 20
6471509.51525298
  0
LWPOLYLINE
  5
59
330
2
100
AcDbEntity
  8
ramp
  6
Continuous
100
AcDbPolyline
 90
        4
 70
     0
 43
0.1
 10
700050.6901702874
 20
6471509.51525298
 10
700044.8464999999
 20
6471500.944
 10
700042.6084999999
 20
6471504.515
 10
700052.9281702874
 20
6471505.94425298
  0
INSERT
  5
5A
330
2
100
AcDbEntity
  8
pollar
 48
0.5
100
AcDbBlockReference
  2
Pollar
 10
700041.6115000004
 20
6471506.023999999
 30
0.0
 41
0.2499999999689661
 42
0.1499999999068677
 43
0.25
 50
31.12857767464731
  0
INSERT
  5
61
330
2
100
AcDbEntity
  8
pollar
 48
0.5
100
AcDbBlockReference
  2
Pollar
 10
700049.2405
 20
6471511.332000001
 30
0.0
 41
0.2499999999689661
 42
0.1499999999068677
 43
0.25
 50
31.12857767464731
  0
INSERT
  5
62
330
2
100
AcDbEntity
  8
pollar
 48
0.5
100
AcDbBlockReference
  2
Pollar
 10
700056.1271218149
 20
6471515.636063092
 30
0.0
 41
0.2499999999689661
 42
0.1499999999068677
 43
0.25
 50
31.12857767464731
  0
INSERT
  5
63
330
2
100
AcDbEntity
  8
pollar
 48
0.5
100
AcDbBlockReference
  2
Pollar
 10
700067.6914999999
 20
6471522.395
 30
0.0
 41
0.2499999999689661
 42
0.1499999999068677
 43
0.25
 50
31.12857767464731
  0
INSERT
  5
64
330
2
100
AcDbEntity
  8
pollar
 48
0.5
100
AcDbBlockReference
  2
Pollar
 10
700076.6415000001
 20
6471528.082999999
 30
0.0
 41
0.2499999999689661
 42
0.1499999999068677
 43
0.25
 50
31.12857767464731
  0
INSERT
  5
65
330
2
100
AcDbEntity
  8
pollar
 48
0.5
100
AcDbBlockReference
  2
Pollar
 10
700085.3745
 20
6471533.806
 30
0.0
 41
0.2499999999689661
 42
0.1499999999068677
 43
0.25
 50
31.12857767464731
  0
INSERT
  5
66
330
2
100
AcDbEntity
  8
pollar
 48
0.5
100
AcDbBlockReference
  2
Pollar
 10
700092.6225
 20
6471538.381
 30
0.0
 41
0.2499999999689661
 42
0.1499999999068677
 43
0.25
 50
31.12857767464731
  0
LWPOLYLINE
  5
67
330
2
100
AcDbEntity
  8
kaid
  6
Continuous
 62
     5
100
AcDbPolyline
 90
        4
 70
     1
 43
0.1
 10
705314.9890003273
 20
6476072.064247793
 10
705315.828098073
 20
6476080.451885576
 10
705335.4994261313
 20
6476078.721606333
 10
705335.0266544872
 20
6476070.596530798
  0
LWPOLYLINE
  5
68
330
2
100
AcDbEntity
  8
kaid
  6
Continuous
 62
     5
100
AcDbPolyline
 90
       14
 70
     0
 43
0.1
 10
705309.2706690638
 20
6476075.366910074
 10
705310.4252675616
 20
6476072.221545905
 10
705313.257102581
 20
6476071.749651566
 10
705314.9890003273
 20
6476066.612642086
 10
705314.9890003273
 20
6476065.302223205
 10
705332.6138888557
 20
6476063.677208099
 10
705332.561145569
 20
6476065.302223205
 10
705314.9890003273
 20
6476066.612642086
 10
705332.561145569
 20
6476065.302223205
 10
705334.3889402007
 20
6476065.205332353
 10
705339.1578923011
 20
6476070.928471682
 10
705337.9649350492
 20
6476071.291513335
 10
705337.9649350492
 20
6476072.042118397
 10
705335.2702325755
 20
6476072.171904295
  0
LWPOLYLINE
  5
69
330
2
100
AcDbEntity
  8
kaid
  6
Continuous
 62
     5
100
AcDbPolyline
 90
        4
 70
     0
 43
0.1
 10
705357.2018502177
 20
6476058.936135315
 10
705351.3339198132
 20
6476060.092246542
 10
705342.7779997169
 20
6475985.184253508
 10
705351.4394063869
 20
6475984.282929338
  0
LWPOLYLINE
  5
6A
330
2
100
AcDbEntity
  8
ramp
  6
Continuous
100
AcDbPolyline
 90
        2
 70
     0
 43
0.1
 10
705346.1811207836
 20
6476067.784836667
 10
705347.5738029447
 20
6476077.185706888
  0
LWPOLYLINE
  5
6B
330
2
100
AcDbEntity
  8
ramp
  6
Continuous
100
AcDbPolyline
 90
        2
 70
     0
 43
0.1
 10
705350.3534566234
 20
6476067.191289172
 10
705351.7461387855
 20
6476076.59215939
  0
LWPOLYLINE
  5
6C
330
2
100
AcDbEntity
  8
ramp
  6
Continuous
100
AcDbPolyline
 90
        2
 70
     0
 43
0.1
 10
705351.7461387855
 20
6476076.59215939
 10
705347.5738029447
 20
6476077.185706888
  0
LWPOLYLINE
  5
6D
330
2
100
AcDbEntity
  8
ramp
  6
Continuous
100
AcDbPolyline
 90
        4
 70
     0
 43
0.1
 10
705347.5738029447
 20
6476077.185706888
 10
705350.3534566234
 20
6476067.191289172
 10
705346.1811207836
 20
6476067.784836667
 10
705351.7461387855
 20
6476076.59215939
  0
LWPOLYLINE
  5
6E
330
2
100
AcDbEntity
  8
0
  6
Continuous
 62
     3
100
AcDbPolyline
 90
       14
 70
     0
 43
0.0
 10
705354.7241904118
 20
6476059.424288738
 10
705366.1308310002
 20
6476067.525291998
 10
705373.4130070002
 20
6476070.504363999
 10
705381.357199
 20
6476076.95902
 10
705387.64635
 20
6476084.241195
 10
705386.81883
 20
6476091.523371
 10
705380.0331670001
 20
6476094.005930997
 10
705377.0540950002
 20
6476093.509419
 10
705373.247503
 20
6476093.343915001
 10
705369.109903
 20
6476093.509419
 10
705361.827727
 20
6476085.730731
 10
705355.4498141254
 20
6476077.981766918
 10
705346.601359
 20
6476074.47646
 10
705335.797665444
 20
6476067.890165925
  0
LWPOLYLINE
  5
6F
330
2
100
AcDbEntity
  8
0
  6
Continuous
 62
     3
100
AcDbPolyline
 90
        5
 70
     0
 43
0.0
 10
705342.629263
 20
6475950.844974001
 10
705342.7947670002
 20
6475955.148078001
 10
705337.9505505167
 20
6475969.851575078
 10
705338.7982789816
 20
6475979.4090802
 10
705343.8328654538
 20
6475984.852910714
  0
LWPOLYLINE
  5
70
330
2
100
AcDbEntity
  8
0
  6
Continuous
 62
     3
100
AcDbPolyline
 90
       99
 70
     0
 43
0.0
 10
705943.4087709999
 20
6476815.768861
 10
705946.884355
 20
6476810.638237001
 10
705951.6839710001
 20
6476794.418844999
 10
705950.359939
 20
6476786.805661
 10
705946.0568350002
 20
6476779.026974
 10
705945.7258270001
 20
6476767.772702
 10
705948.373891
 20
6476754.86339
 10
705953.5045149998
 20
6476744.767646001
 10
705961.283203
 20
6476736.823454
 10
705967.7378589999
 20
6476727.058718998
 10
705969.8894109999
 20
6476721.266079001
 10
705979.4886430002
 20
6476713.321887
 10
705988.09485
 20
6476707.363742999
 10
705994.8805140002
 20
6476696.605983002
 10
706000.176642
 20
6476680.221087998
 10
705993.556482
 20
6476672.773408
 10
705991.735938
 20
6476665.325728
 10
705990.2464020002
 20
6476662.843168
 10
705982.136707
 20
6476659.202080001
 10
705974.854531
 20
6476660.195104
 10
705966.7448350001
 20
6476659.367584
 10
705958.9661469999
 20
6476660.691616001
 10
705951.6839710001
 20
6476655.06448
 10
705945.2293150001
 20
6476646.954783998
 10
705939.7676829998
 20
6476637.355552
 10
705937.781635
 20
6476630.073376997
 10
705944.898307
 20
6476623.287712999
 10
705952.5114909999
 20
6476619.977633
 10
705960.124675
 20
6476614.847009
 10
705967.0758430002
 20
6476619.481121
 10
705967.9033630001
 20
6476627.425312999
 10
705967.7378589999
 20
6476635.866016001
 10
705968.8963870001
 20
6476642.982687999
 10
705976.8405789998
 20
6476646.623776
 10
705984.9502749999
 20
6476645.299744002
 10
705992.3979540002
 20
6476648.609824
 10
706000.5076500002
 20
6476655.06448
 10
706008.617346
 20
6476662.346656
 10
706017.0580500001
 20
6476670.456352
 10
706024.174722
 20
6476673.931936002
 10
706027.9813140002
 20
6476665.491232
 10
706028.9743380002
 20
6476657.216032
 10
706033.277442
 20
6476643.313696
 10
706036.2565140002
 20
6476632.224929001
 10
706047.014273
 20
6476620.143137
 10
706057.441025
 20
6476612.198945
 10
706064.557697
 20
6476608.557857
 10
706075.811969
 20
6476601.606688999
 10
706083.590657
 20
6476594.986529001
 10
706086.5697290002
 20
6476586.545825
 10
706088.0592640002
 20
6476578.105122
 10
706088.2247680003
 20
6476570.16093
 10
706091.2038400002
 20
6476562.216738
 10
706098.6515199998
 20
6476552.120994
 10
706115.698432
 20
6476532.591523
 10
706124.9666560001
 20
6476523.488803
 10
706133.076352
 20
6476512.565539
 10
706137.710464
 20
6476503.959330997
 10
706145.158143
 20
6476487.739939
 10
706156.5779189999
 20
6476470.693028001
 10
706158.067455
 20
6476462.08682
 10
706156.7434229999
 20
6476454.970148
 10
706159.556991
 20
6476444.212387998
 10
706167.170175
 20
6476435.937187999
 10
706176.2728949999
 20
6476429.151525
 10
706182.562047
 20
6476420.379812999
 10
706191.0027500001
 20
6476411.442597
 10
706199.2779500002
 20
6476407.139493
 10
706216.986878
 20
6476402.008869
 10
706230.3927020001
 20
6476401.346853
 10
706237.674878
 20
6476399.691813
 10
706243.302013
 20
6476392.575141002
 10
706242.8055010001
 20
6476385.127461001
 10
706241.6469729999
 20
6476377.514278
 10
706239.1644129999
 20
6476370.066598
 10
706232.875262
 20
6476362.784422
 10
706228.903166
 20
6476350.702630001
 10
706231.054718
 20
6476342.592933997
 10
706241.3159649999
 20
6476333.821222
 10
706249.2601569998
 20
6476327.697574999
 10
706260.845437
 20
6476314.953767
 10
706272.099709
 20
6476302.871975
 10
706283.6849890003
 20
6476285.990566999
 10
706294.277244
 20
6476263.647528001
 10
706302.7179479998
 20
6476244.118056
 10
706308.841596
 20
6476225.581609
 10
706313.6412120002
 20
6476206.052137
 10
706314.303228
 20
6476175.764905997
 10
706312.31718
 20
6476164.510633998
 10
706314.4687320002
 20
6476151.766825998
 10
706316.9512920001
 20
6476140.678057999
 10
706318.440828
 20
6476130.582314
 10
706322.4129239998
 20
6476112.873387003
 10
706328.371068
 20
6476096.157483
 10
706331.681148
 20
6476084.241195
 10
706333.00518
 20
6476073.483435999
 10
706335.984252
 20
6476064.711723998
 10
706340.618363
 20
6476056.602028001
 10
706342.273403
 20
6476054.284972
  0
LWPOLYLINE
  5
71
330
2
100
AcDbEntity
  8
telgprojekt
  6
Continuous
 62
     1
100
AcDbPolyline
 90
        2
 70
     0
 43
0.0
 10
703619.0
 20
6472987.0
 10
701859.0
 20
6474307.0
  0
LWPOLYLINE
  5
72
330
2
100
AcDbEntity
  8
telgprojekt
  6
Continuous
 62
     1
100
AcDbPolyline
 90
        2
 70
     0
 43
0.0
 10
703631.0
 20
6473003.0
 10
701871.0
 20
6474323.0
  0
LWPOLYLINE
  5
73
330
2
100
AcDbEntity
  8
telgprojekt
  6
Continuous
 62
     1
100
AcDbPolyline
 90
        2
 70
     0
 43
0.0
 10
703607.0
 20
6472971.0
 10
701847.0
 20
6474291.0
  0
LWPOLYLINE
  5
74
330
2
100
AcDbEntity
  8
telgprojekt
  6
Continuous
 62
     1
100
AcDbPolyline
 90
        2
 70
     0
 43
0.0
 10
703638.4400000001
 20
6473012.92
 10
703602.5600000003
 20
6472965.08
  0
LWPOLYLINE
  5
75
330
2
100
AcDbEntity
  8
telgprojekt
  6
Continuous
 62
     1
100
AcDbPolyline
 90
        2
 70
     0
 43
0.0
 10
703635.44
 20
6473008.919999999
 10
701875.44
 20
6474328.92
  0
LWPOLYLINE
  5
76
330
2
100
AcDbEntity
  8
telgprojekt
  6
Continuous
 62
     1
100
AcDbPolyline
 90
        2
 70
     0
 43
0.0
 10
703602.5600000001
 20
6472965.08
 10
701842.56
 20
6474285.080000001
  0
LWPOLYLINE
  5
77
330
2
100
AcDbEntity
  8
telgprojekt
  6
Continuous
 62
     1
100
AcDbPolyline
 90
        2
 70
     0
 43
0.0
 10
703238.4400000006
 20
6473312.92
 10
703199.5600000006
 20
6473261.080000001
  0
LWPOLYLINE
  5
78
330
2
100
AcDbEntity
  8
telgprojekt
  6
Continuous
 62
     1
100
AcDbPolyline
 90
        2
 70
     0
 43
0.0
 10
702838.4400000004
 20
6473612.919999999
 10
702799.5600000004
 20
6473561.079999999
  0
LWPOLYLINE
  5
79
330
2
100
AcDbEntity
  8
telgprojekt
  6
Continuous
 62
     1
100
AcDbPolyline
 90
        2
 70
     0
 43
0.0
 10
702438.4400000008
 20
6473912.919999999
 10
702399.5600000008
 20
6473861.079999998
  0
LWPOLYLINE
  5
7A
330
2
100
AcDbEntity
  8
telgprojekt
  6
Continuous
 62
     1
100
AcDbPolyline
 90
        2
 70
     0
 43
0.0
 10
702038.4400000011
 20
6474212.919999999
 10
701999.5600000012
 20
6474161.079999999
  0
LWPOLYLINE
  5
7B
330
2
100
AcDbEntity
  8
telgprojekt
  6
Continuous
 62
     1
100
AcDbPolyline
 90
        2
 70
     0
 43
0.0
 10
703558.4400000004
 20
6473072.92
 10
703519.5600000005
 20
6473021.080000001
  0
LWPOLYLINE
  5
7C
330
2
100
AcDbEntity
  8
telgprojekt
  6
Continuous
 62
     1
100
AcDbPolyline
 90
        2
 70
     0
 43
0.0
 10
703478.4400000005
 20
6473132.92
 10
703439.5600000006
 20
6473081.08
  0
LWPOLYLINE
  5
7D
330
2
100
AcDbEntity
  8
telgprojekt
  6
Continuous
 62
     1
100
AcDbPolyline
 90
        2
 70
     0
 43
0.0
 10
703398.4400000008
 20
6473192.92
 10
703359.5600000008
 20
6473141.08
  0
LWPOLYLINE
  5
7E
330
2
100
AcDbEntity
  8
telgprojekt
  6
Continuous
 62
     1
100
AcDbPolyline
 90
        2
 70
     0
 43
0.0
 10
703318.4400000007
 20
6473252.92
 10
703279.5600000008
 20
6473201.079999999
  0
LWPOLYLINE
  5
7F
330
2
100
AcDbEntity
  8
telgprojekt
  6
Continuous
 62
     1
100
AcDbPolyline
 90
        2
 70
     0
 43
0.0
 10
703158.4400000008
 20
6473372.92
 10
703119.5600000008
 20
6473321.08
  0
LWPOLYLINE
  5
80
330
2
100
AcDbEntity
  8
telgprojekt
  6
Continuous
 62
     1
100
AcDbPolyline
 90
        2
 70
     0
 43
0.0
 10
703078.4400000007
 20
6473432.92
 10
703039.560000001
 20
6473381.08
  0
LWPOLYLINE
  5
81
330
2
100
AcDbEntity
  8
telgprojekt
  6
Continuous
 62
     1
100
AcDbPolyline
 90
        2
 70
     0
 43
0.0
 10
702998.4400000005
 20
6473492.919999999
 10
702959.5600000004
 20
6473441.079999997
  0
LWPOLYLINE
  5
82
330
2
100
AcDbEntity
  8
telgprojekt
  6
Continuous
 62
     1
100
AcDbPolyline
 90
        2
 70
     0
 43
0.0
 10
702918.4400000005
 20
6473552.919999999
 10
702879.5600000005
 20
6473501.080000001
  0
LWPOLYLINE
  5
83
330
2
100
AcDbEntity
  8
telgprojekt
  6
Continuous
 62
     1
100
AcDbPolyline
 90
        2
 70
     0
 43
0.0
 10
702758.4400000005
 20
6473672.919999999
 10
702719.5600000005
 20
6473621.079999999
  0
LWPOLYLINE
  5
84
330
2
100
AcDbEntity
  8
telgprojekt
  6
Continuous
 62
     1
100
AcDbPolyline
 90
        2
 70
     0
 43
0.0
 10
702678.4400000008
 20
6473732.919999998
 10
702639.5600000006
 20
6473681.079999997
  0
LWPOLYLINE
  5
85
330
2
100
AcDbEntity
  8
telgprojekt
  6
Continuous
 62
     1
100
AcDbPolyline
 90
        2
 70
     0
 43
0.0
 10
702598.440000001
 20
6473792.920000001
 10
702559.5600000008
 20
6473741.079999999
  0
LWPOLYLINE
  5
86
330
2
100
AcDbEntity
  8
telgprojekt
  6
Continuous
 62
     1
100
AcDbPolyline
 90
        2
 70
     0
 43
0.0
 10
702518.4400000012
 20
6473852.919999999
 10
702479.5600000008
 20
6473801.079999999
  0
LWPOLYLINE
  5
87
330
2
100
AcDbEntity
  8
telgprojekt
  6
Continuous
 62
     1
100
AcDbPolyline
 90
        2
 70
     0
 43
0.0
 10
702358.4400000008
 20
6473972.919999997
 10
702319.5600000009
 20
6473921.079999999
  0
LWPOLYLINE
  5
88
330
2
100
AcDbEntity
  8
telgprojekt
  6
Continuous
 62
     1
100
AcDbPolyline
 90
        2
 70
     0
 43
0.0
 10
702278.440000001
 20
6474032.919999999
 10
702239.560000001
 20
6473981.079999999
  0
LWPOLYLINE
  5
89
330
2
100
AcDbEntity
  8
telgprojekt
  6
Continuous
 62
     1
100
AcDbPolyline
 90
        2
 70
     0
 43
0.0
 10
702198.4400000011
 20
6474092.919999999
 10
702159.5600000011
 20
6474041.079999999
  0
LWPOLYLINE
  5
8A
330
2
100
AcDbEntity
  8
telgprojekt
  6
Continuous
 62
     1
100
AcDbPolyline
 90
        2
 70
     0
 43
0.0
 10
702118.4400000016
 20
6474152.919999998
 10
702079.5600000012
 20
6474101.079999999
  0
LWPOLYLINE
  5
8B
330
2
100
AcDbEntity
  8
telgprojekt
  6
Continuous
 62
     1
100
AcDbPolyline
 90
        2
 70
     0
 43
0.0
 10
701958.4400000012
 20
6474272.919999999
 10
701919.5600000012
 20
6474221.079999999
  0
LWPOLYLINE
  5
8C
330
2
100
AcDbEntity
  8
telgprojekt
  6
Continuous
 62
     1
100
AcDbPolyline
 90
        2
 70
     0
 43
0.0
 10
701878.4400000012
 20
6474332.919999999
 10
701842.5600000013
 20
6474285.079999999
  0
LWPOLYLINE
  5
8D
330
2
100
AcDbEntity
  8
kaid
  6
Continuous
 62
     5
100
AcDbPolyline
 90
        2
 70
     0
 43
0.1
 10
705315.4085492002
 20
6476076.258066684
 10
705335.2630403094
 20
6476074.659068566
  0
LWPOLYLINE
  5
8E
330
2
100
AcDbEntity
  8
telgprojekt
  6
Continuous
 62
     5
100
AcDbPolyline
 90
        2
 70
     0
 43
0.0
 10
705347.578948748
 20
6475181.746354909
 10
705314.1738742738
 20
6476061.980739508
  0
LWPOLYLINE
  5
8F
330
2
100
AcDbEntity
  8
telgprojekt
  6
Continuous
 62
     5
100
AcDbPolyline
 90
        4
 70
     0
 43
0.0
 38
-2.109999999999998
 10
705412.3700000001
 20
6474744.93
 10
705412.3700000001
 20
6474744.93
 10
705356.7360789232
 20
6474801.635129234
 10
705347.578948748
 20
6475181.746354909
  0
LWPOLYLINE
  5
90
330
2
100
AcDbEntity
  8
telgprojekt
  6
Continuous
 62
     5
100
AcDbPolyline
 90
        2
 70
     0
 43
0.0
 38
-1.759999999999999
 10
700259.72
 20
6471639.549999999
 10
700069.2466666667
 20
6471508.32
  0
LWPOLYLINE
  5
91
330
2
100
AcDbEntity
  8
telgprojekt
  6
Continuous
 62
     5
100
AcDbPolyline
 90
        2
 70
     0
 43
0.0
 38
-1.759999999999999
 10
700259.72
 20
6471639.549999999
 10
700602.1566666667
 20
6471607.78
  0
LWPOLYLINE
  5
92
330
2
100
AcDbEntity
  8
kaid
  6
Continuous
100
AcDbPolyline
 90
       23
 70
     0
 43
0.0
 38
-2.169999999999999
 10
703448.98
 20
6473078.96
 10
703450.4699999999
 20
6473080.65
 10
703452.02
 20
6473083.32
 10
703451.6899999999
 20
6473086.04
 10
703450.85
 20
6473087.47
 10
703449.7400000001
 20
6473088.03
 10
703450.7666666667
 20
6473089.609999998
 10
703450.34
 20
6473092.36
 10
703448.44
 20
6473094.389999999
 10
703447.17
 20
6473096.33
 10
703445.99
 20
6473097.95
 10
703444.3800000001
 20
6473100.45
 10
703445.48
 20
6473102.7
 10
703445.86
 20
6473104.469999999
 10
703450.73
 20
6473107.3
 10
703452.2066666667
 20
6473108.68
 10
703452.527487332
 20
6473112.79325414
 10
703459.8528396003
 20
6473124.069704327
 10
703459.8528396003
 20
6473124.069704327
 10
703459.8528396003
 20
6473124.069704327
 10
703458.1
 20
6473129.55
 10
703458.3825646341
 20
6473133.264544799
 10
703461.8565771655
 20
6473141.986872636
  0
LWPOLYLINE
  5
93
330
2
100
AcDbEntity
  8
kaid
  6
Continuous
100
AcDbPolyline
 90
        8
 70
     0
 43
0.0
 10
702006.6254996596
 20
6474230.530875255
 10
702005.8029423522
 20
6474228.101862048
 10
702003.1746632084
 20
6474224.921979717
 10
701997.8790710699
 20
6474215.471727013
 10
701982.5166666669
 20
6474213.74
 10
701975.2264275514
 20
6474209.52062193
 10
701967.2635224218
 20
6474208.677761554
 10
701959.8601024542
 20
6474205.472338001
  0
LWPOLYLINE
  5
94
330
2
100
AcDbEntity
  8
kaid
  6
Continuous
100
AcDbPolyline
 90
        2
 70
     0
 43
0.0
 10
701959.8601024542
 20
6474205.472338001
 10
701955.6834806447
 20
6474195.409095929
  0
LWPOLYLINE
  5
95
330
2
100
AcDbEntity
  8
telgprojekt
  6
Continuous
 62
     5
100
AcDbPolyline
 90
        3
 70
     0
 43
0.0
 38
-1.74
 10
705412.6100000002
 20
6474744.730000002
 10
705724.11
 20
6474706.42
 10
705725.4200000001
 20
6474195.37
  0
LWPOLYLINE
  5
96
330
2
100
AcDbEntity
  8
telgprojekt
  6
Continuous
 62
     5
100
AcDbPolyline
 90
        2
 70
     0
 43
0.0
 10
705620.0
 20
6475363.0
 10
705845.0
 20
6475363.0
  0
LWPOLYLINE
  5
97
330
2
100
AcDbEntity
  8
telgprojekt
  6
Continuous
 62
     5
100
AcDbPolyline
 90
        2
 70
     0
 43
0.0
 10
705620.0
 20
6475363.0
 10
705395.0
 20
6475363.0
  0
LWPOLYLINE
  5
98
330
2
100
AcDbEntity
  8
telgprojekt
  6
Continuous
 62
     5
100
AcDbPolyline
 90
        2
 70
     0
 43
0.0
 10
705695.0
 20
6475363.0
 10
705695.0
 20
6475813.0
  0
LWPOLYLINE
  5
99
330
2
100
AcDbEntity
  8
telgprojekt
  6
Continuous
 62
     5
100
AcDbPolyline
 90
        2
 70
     0
 43
0.0
 10
705545.0
 20
6475363.0
 10
705545.0
 20
6475813.0
  0
LWPOLYLINE
  5
9A
330
2
100
AcDbEntity
  8
telgprojekt
  6
Continuous
 62
     5
100
AcDbPolyline
 90
        2
 70
     0
 43
0.0
 10
705395.0
 20
6475363.0
 10
705395.0
 20
6475813.0
  0
LWPOLYLINE
  5
9B
330
2
100
AcDbEntity
  8
telgprojekt
  6
Continuous
 62
     5
100
AcDbPolyline
 90
        2
 70
     0
 43
0.0
 10
705845.0
 20
6475363.0
 10
705845.0
 20
6475813.0
  0
LWPOLYLINE
  5
9C
330
2
100
AcDbEntity
  8
telgprojekt
  6
Continuous
 62
     5
100
AcDbPolyline
 90
        2
 70
     0
 43
0.0
 10
705395.0
 20
6475588.0
 10
705845.0
 20
6475588.0
  0
LWPOLYLINE
  5
9D
330
2
100
AcDbEntity
  8
telgprojekt
  6
Continuous
 62
     5
100
AcDbPolyline
 90
        2
 70
     0
 43
0.0
 10
705395.0
 20
6475813.0
 10
705845.0
 20
6475813.0
  0
LWPOLYLINE
  5
9E
330
2
100
AcDbEntity
  8
telgprojekt
  6
Continuous
 62
     5
100
AcDbPolyline
 90
        2
 70
     0
 43
0.0
 10
705620.0
 20
6474913.0
 10
705845.0
 20
6474913.0
  0
LWPOLYLINE
  5
9F
330
2
100
AcDbEntity
  8
telgprojekt
  6
Continuous
 62
     5
100
AcDbPolyline
 90
        2
 70
     0
 43
0.0
 10
705620.0
 20
6474913.0
 10
705395.0
 20
6474913.0
  0
LWPOLYLINE
  5
A0
330
2
100
AcDbEntity
  8
telgprojekt
  6
Continuous
 62
     5
100
AcDbPolyline
 90
        2
 70
     0
 43
0.0
 10
705695.0
 20
6474913.0
 10
705695.0
 20
6475363.0
  0
LWPOLYLINE
  5
A1
330
2
100
AcDbEntity
  8
telgprojekt
  6
Continuous
 62
     5
100
AcDbPolyline
 90
        2
 70
     0
 43
0.0
 10
705545.0
 20
6474913.0
 10
705545.0
 20
6475363.0
  0
LWPOLYLINE
  5
A2
330
2
100
AcDbEntity
  8
telgprojekt
  6
Continuous
 62
     5
100
AcDbPolyline
 90
        2
 70
     0
 43
0.0
 10
705395.0
 20
6474913.0
 10
705395.0
 20
6475363.0
  0
LWPOLYLINE
  5
A3
330
2
100
AcDbEntity
  8
telgprojekt
  6
Continuous
 62
     5
100
AcDbPolyline
 90
        2
 70
     0
 43
0.0
 10
705845.0
 20
6474913.0
 10
705845.0
 20
6475363.0
  0
LWPOLYLINE
  5
A4
330
2
100
AcDbEntity
  8
telgprojekt
  6
Continuous
 62
     5
100
AcDbPolyline
 90
        2
 70
     0
 43
0.0
 10
705395.0
 20
6475138.0
 10
705845.0
 20
6475138.0
  0
LWPOLYLINE
  5
A5
330
2
100
AcDbEntity
  8
telgprojekt
  6
Continuous
 62
     5
100
AcDbPolyline
 90
        2
 70
     0
 43
0.0
 10
705395.0
 20
6475363.0
 10
705845.0
 20
6475363.0
  0
LWPOLYLINE
  5
A6
330
2
100
AcDbEntity
  8
telgprojekt
  6
Continuous
 62
     5
100
AcDbPolyline
 90
        2
 70
     0
 43
0.0
 10
691255.5569341001
 20
6482752.616716001
 10
706118.9942841
 20
6480525.8541417
  0
CIRCLE
  5
A7
330
2
100
AcDbEntity
  8
telgprojekt
  6
Continuous
 62
     5
100
AcDbCircle
 10
710520.1402201001
 20
6477439.9177498
 30
0.0
 40
2.0
  0
LWPOLYLINE
  5
A8
330
2
100
AcDbEntity
  8
telgprojekt
  6
Continuous
 62
     5
100
AcDbPolyline
 90
        2
 70
     0
 43
0.0
 10
710520.1402201001
 20
6477439.9177498
 10
706118.9942841
 20
6480525.8541417
  0
CIRCLE
  5
A9
330
2
100
AcDbEntity
  8
telgprojekt
  6
Continuous
 62
     5
100
AcDbCircle
 10
709339.3179144
 20
6471961.5362757
 30
0.0
 40
2.0
  0
LWPOLYLINE
  5
AA
330
2
100
AcDbEntity
  8
telgprojekt
  6
Continuous
 62
     5
100
AcDbPolyline
 90
        2
 70
     0
 43
0.0
 10
710520.1402201001
 20
6477439.9177498
 10
709339.3179144
 20
6471961.5362757
  0
LWPOLYLINE
  5
AB
330
2
100
AcDbEntity
  8
telgprojekt
  6
Continuous
 62
     5
100
AcDbPolyline
 90
        2
 70
     0
 43
0.0
 10
708866.8961872
 20
6470588.635798301
 10
709339.3179144
 20
6471961.5362757
  0
LWPOLYLINE
  5
AC
330
2
100
AcDbEntity
  8
telgprojekt
  6
Continuous
 62
     5
100
AcDbPolyline
 90
        2
 70
     0
 43
0.0
 10
691253.0569341
 20
6482755.116716
 10
691258.0569341
 20
6482755.116716
  0
LWPOLYLINE
  5
AD
330
2
100
AcDbEntity
  8
telgprojekt
  6
Continuous
 62
     5
100
AcDbPolyline
 90
        2
 70
     0
 43
0.0
 10
691253.0569341
 20
6482750.116716
 10
691258.0569341
 20
6482750.116716
  0
LWPOLYLINE
  5
AE
330
2
100
AcDbEntity
  8
telgprojekt
  6
Continuous
 62
     5
100
AcDbPolyline
 90
        2
 70
     0
 43
0.0
 10
691253.0569341
 20
6482755.116716
 10
691253.0569341
 20
6482750.116716
  0
LINE
  5
AF
330
2
100
AcDbEntity
  8
telgprojekt
  6
Continuous
 62
     5
100
AcDbLine
 10
691253.0569341
 20
6482755.116716
 30
0.0
 11
691258.0569341
 21
6482750.116716
 31
0.0
  0
LINE
  5
B0
330
2
100
AcDbEntity
  8
telgprojekt
  6
Continuous
 62
     5
100
AcDbLine
 10
691258.0569341
 20
6482750.116716
 30
0.0
 11
691258.0569341
 21
6482755.116716
 31
0.0
  0
LINE
  5
B1
330
2
100
AcDbEntity
  8
telgprojekt
  6
Continuous
 62
     5
100
AcDbLine
 10
691258.0569341
 20
6482755.116716
 30
0.0
 11
691253.0569341
 21
6482750.116716
 31
0.0
  0
LINE
  5
B2
330
2
100
AcDbEntity
  8
telgprojekt
  6
Continuous
 62
     5
100
AcDbLine
 10
691253.0569341
 20
6482750.116716
 30
0.0
 11
691258.0569341
 21
6482750.116716
 31
0.0
  0
LINE
  5
B3
330
2
100
AcDbEntity
  8
telgprojekt
  6
Continuous
 62
     5
100
AcDbLine
 10
691258.0569341
 20
6482750.116716
 30
0.0
 11
691258.0569341
 21
6482755.116716
 31
0.0
  0
LINE
  5
B4
330
2
100
AcDbEntity
  8
telgprojekt
  6
Continuous
 62
     5
100
AcDbLine
 10
691258.0569341
 20
6482755.116716
 30
0.0
 11
691253.0569341
 21
6482755.116716
 31
0.0
  0
LINE
  5
B5
330
2
100
AcDbEntity
  8
telgprojekt
  6
Continuous
 62
     5
100
AcDbLine
 10
691253.0569341
 20
6482755.116716
 30
0.0
 11
691253.0569341
 21
6482750.116716
 31
0.0
  0
LINE
  5
B6
330
2
100
AcDbEntity
  8
telgprojekt
  6
Continuous
 62
     5
100
AcDbLine
 10
691258.0569341
 20
6482755.116716
 30
0.0
 11
691258.0569341
 21
6482750.116716
 31
0.0
  0
LWPOLYLINE
  5
B7
330
2
100
AcDbEntity
  8
telgprojekt
  6
Continuous
 62
     5
100
AcDbPolyline
 90
        2
 70
     0
 43
0.0
 10
706116.4942841
 20
6480528.354141701
 10
706121.4942841001
 20
6480528.354141701
  0
LWPOLYLINE
  5
B8
330
2
100
AcDbEntity
  8
telgprojekt
  6
Continuous
 62
     5
100
AcDbPolyline
 90
        2
 70
     0
 43
0.0
 10
706116.4942841
 20
6480523.354141699
 10
706121.4942841001
 20
6480523.354141699
  0
LWPOLYLINE
  5
B9
330
2
100
AcDbEntity
  8
telgprojekt
  6
Continuous
 62
     5
100
AcDbPolyline
 90
        2
 70
     0
 43
0.0
 10
706116.4942841
 20
6480528.354141701
 10
706116.4942841
 20
6480523.354141699
  0
LINE
  5
BA
330
2
100
AcDbEntity
  8
telgprojekt
  6
Continuous
 62
     5
100
AcDbLine
 10
706116.4942841
 20
6480528.354141701
 30
0.0
 11
706121.4942841001
 21
6480523.354141699
 31
0.0
  0
LINE
  5
BB
330
2
100
AcDbEntity
  8
telgprojekt
  6
Continuous
 62
     5
100
AcDbLine
 10
706121.4942841001
 20
6480523.354141699
 30
0.0
 11
706121.4942841001
 21
6480528.354141701
 31
0.0
  0
LINE
  5
BC
330
2
100
AcDbEntity
  8
telgprojekt
  6
Continuous
 62
     5
100
AcDbLine
 10
706121.4942841001
 20
6480528.354141701
 30
0.0
 11
706116.4942841
 21
6480523.354141699
 31
0.0
  0
LINE
  5
BD
330
2
100
AcDbEntity
  8
telgprojekt
  6
Continuous
 62
     5
100
AcDbLine
 10
706116.4942841
 20
6480523.354141699
 30
0.0
 11
706121.4942841001
 21
6480523.354141699
 31
0.0
  0
LINE
  5
BE
330
2
100
AcDbEntity
  8
telgprojekt
  6
Continuous
 62
     5
100
AcDbLine
 10
706121.4942841001
 20
6480523.354141699
 30
0.0
 11
706121.4942841001
 21
6480528.354141701
 31
0.0
  0
LINE
  5
BF
330
2
100
AcDbEntity
  8
telgprojekt
  6
Continuous
 62
     5
100
AcDbLine
 10
706121.4942841001
 20
6480528.354141701
 30
0.0
 11
706116.4942841
 21
6480528.354141701
 31
0.0
  0
LINE
  5
C0
330
2
100
AcDbEntity
  8
telgprojekt
  6
Continuous
 62
     5
100
AcDbLine
 10
706116.4942841
 20
6480528.354141701
 30
0.0
 11
706116.4942841
 21
6480523.354141699
 31
0.0
  0
LINE
  5
C1
330
2
100
AcDbEntity
  8
telgprojekt
  6
Continuous
 62
     5
100
AcDbLine
 10
706121.4942841001
 20
6480528.354141701
 30
0.0
 11
706121.4942841001
 21
6480523.354141699
 31
0.0
  0
LWPOLYLINE
  5
C2
330
2
100
AcDbEntity
  8
telgprojekt
  6
Continuous
 62
     5
100
AcDbPolyline
 90
        2
 70
     0
 43
0.0
 10
710516.0026542321
 20
6477443.56595624
 10
710521.0026542322
 20
6477443.56595624
  0
LWPOLYLINE
  5
C3
330
2
100
AcDbEntity
  8
telgprojekt
  6
Continuous
 62
     5
100
AcDbPolyline
 90
        2
 70
     0
 43
0.0
 10
710516.0026542321
 20
6477438.56595624
 10
710521.0026542322
 20
6477438.56595624
  0
LWPOLYLINE
  5
C4
330
2
100
AcDbEntity
  8
telgprojekt
  6
Continuous
 62
     5
100
AcDbPolyline
 90
        2
 70
     0
 43
0.0
 10
710516.0026542321
 20
6477443.56595624
 10
710516.0026542321
 20
6477438.56595624
  0
LINE
  5
C5
330
2
100
AcDbEntity
  8
telgprojekt
  6
Continuous
 62
     5
100
AcDbLine
 10
710516.0026542321
 20
6477443.56595624
 30
0.0
 11
710521.0026542322
 21
6477438.56595624
 31
0.0
  0
LINE
  5
C6
330
2
100
AcDbEntity
  8
telgprojekt
  6
Continuous
 62
     5
100
AcDbLine
 10
710521.0026542322
 20
6477438.56595624
 30
0.0
 11
710521.0026542322
 21
6477443.56595624
 31
0.0
  0
LINE
  5
C7
330
2
100
AcDbEntity
  8
telgprojekt
  6
Continuous
 62
     5
100
AcDbLine
 10
710521.0026542322
 20
6477443.56595624
 30
0.0
 11
710516.0026542321
 21
6477438.56595624
 31
0.0
  0
LINE
  5
C8
330
2
100
AcDbEntity
  8
telgprojekt
  6
Continuous
 62
     5
100
AcDbLine
 10
710516.0026542321
 20
6477438.56595624
 30
0.0
 11
710521.0026542322
 21
6477438.56595624
 31
0.0
  0
LINE
  5
C9
330
2
100
AcDbEntity
  8
telgprojekt
  6
Continuous
 62
     5
100
AcDbLine
 10
710521.0026542322
 20
6477438.56595624
 30
0.0
 11
710521.0026542322
 21
6477443.56595624
 31
0.0
  0
LINE
  5
CA
330
2
100
AcDbEntity
  8
telgprojekt
  6
Continuous
 62
     5
100
AcDbLine
 10
710521.0026542322
 20
6477443.56595624
 30
0.0
 11
710516.0026542321
 21
6477443.56595624
 31
0.0
  0
LINE
  5
CB
330
2
100
AcDbEntity
  8
telgprojekt
  6
Continuous
 62
     5
100
AcDbLine
 10
710516.0026542321
 20
6477443.56595624
 30
0.0
 11
710516.0026542321
 21
6477438.56595624
 31
0.0
  0
LINE
  5
CC
330
2
100
AcDbEntity
  8
telgprojekt
  6
Continuous
 62
     5
100
AcDbLine
 10
710521.0026542322
 20
6477443.56595624
 30
0.0
 11
710521.0026542322
 21
6477438.56595624
 31
0.0
  0
LWPOLYLINE
  5
CD
330
2
100
AcDbEntity
  8
telgprojekt
  6
Continuous
 62
     5
100
AcDbPolyline
 90
        2
 70
     0
 43
0.0
 10
709336.8179144
 20
6471964.036275701
 10
709341.8179144001
 20
6471964.036275701
  0
LWPOLYLINE
  5
CE
330
2
100
AcDbEntity
  8
telgprojekt
  6
Continuous
 62
     5
100
AcDbPolyline
 90
        2
 70
     0
 43
0.0
 10
709336.8179144
 20
6471959.036275701
 10
709341.8179144001
 20
6471959.036275701
  0
LWPOLYLINE
  5
CF
330
2
100
AcDbEntity
  8
telgprojekt
  6
Continuous
 62
     5
100
AcDbPolyline
 90
        2
 70
     0
 43
0.0
 10
709336.8179144
 20
6471964.036275701
 10
709336.8179144
 20
6471959.036275701
  0
LINE
  5
D0
330
2
100
AcDbEntity
  8
telgprojekt
  6
Continuous
 62
     5
100
AcDbLine
 10
709336.8179144
 20
6471964.036275701
 30
0.0
 11
709341.8179144001
 21
6471959.036275701
 31
0.0
  0
LINE
  5
D1
330
2
100
AcDbEntity
  8
telgprojekt
  6
Continuous
 62
     5
100
AcDbLine
 10
709341.8179144001
 20
6471959.036275701
 30
0.0
 11
709341.8179144001
 21
6471964.036275701
 31
0.0
  0
LINE
  5
D2
330
2
100
AcDbEntity
  8
telgprojekt
  6
Continuous
 62
     5
100
AcDbLine
 10
709341.8179144001
 20
6471964.036275701
 30
0.0
 11
709336.8179144
 21
6471959.036275701
 31
0.0
  0
LINE
  5
D3
330
2
100
AcDbEntity
  8
telgprojekt
  6
Continuous
 62
     5
100
AcDbLine
 10
709336.8179144
 20
6471959.036275701
 30
0.0
 11
709341.8179144001
 21
6471959.036275701
 31
0.0
  0
LINE
  5
D4
330
2
100
AcDbEntity
  8
telgprojekt
  6
Continuous
 62
     5
100
AcDbLine
 10
709341.8179144001
 20
6471959.036275701
 30
0.0
 11
709341.8179144001
 21
6471964.036275701
 31
0.0
  0
LINE
  5
D5
330
2
100
AcDbEntity
  8
telgprojekt
  6
Continuous
 62
     5
100
AcDbLine
 10
709341.8179144001
 20
6471964.036275701
 30
0.0
 11
709336.8179144
 21
6471964.036275701
 31
0.0
  0
LINE
  5
D6
330
2
100
AcDbEntity
  8
telgprojekt
  6
Continuous
 62
     5
100
AcDbLine
 10
709336.8179144
 20
6471964.036275701
 30
0.0
 11
709336.8179144
 21
6471959.036275701
 31
0.0
  0
LINE
  5
D7
330
2
100
AcDbEntity
  8
telgprojekt
  6
Continuous
 62
     5
100
AcDbLine
 10
709341.8179144001
 20
6471964.036275701
 30
0.0
 11
709341.8179144001
 21
6471959.036275701
 31
0.0
  0
LWPOLYLINE
  5
D8
330
2
100
AcDbEntity
  8
telgprojekt
  6
Continuous
 62
     5
100
AcDbPolyline
 90
        2
 70
     0
 43
0.0
 10
708899.8096664001
 20
6470091.1110165
 10
708904.8096664001
 20
6470091.1110165
  0
LWPOLYLINE
  5
D9
330
2
100
AcDbEntity
  8
telgprojekt
  6
Continuous
 62
     5
100
AcDbPolyline
 90
        2
 70
     0
 43
0.0
 10
708899.8096664001
 20
6470086.1110165
 10
708904.8096664001
 20
6470086.1110165
  0
LWPOLYLINE
  5
DA
330
2
100
AcDbEntity
  8
telgprojekt
  6
Continuous
 62
     5
100
AcDbPolyline
 90
        2
 70
     0
 43
0.0
 10
708899.8096664001
 20
6470091.1110165
 10
708899.8096664001
 20
6470086.1110165
  0
LINE
  5
DB
330
2
100
AcDbEntity
  8
telgprojekt
  6
Continuous
 62
     5
100
AcDbLine
 10
708899.8096664001
 20
6470091.1110165
 30
0.0
 11
708904.8096664001
 21
6470086.1110165
 31
0.0
  0
LINE
  5
DC
330
2
100
AcDbEntity
  8
telgprojekt
  6
Continuous
 62
     5
100
AcDbLine
 10
708904.8096664001
 20
6470086.1110165
 30
0.0
 11
708904.8096664001
 21
6470091.1110165
 31
0.0
  0
LINE
  5
DD
330
2
100
AcDbEntity
  8
telgprojekt
  6
Continuous
 62
     5
100
AcDbLine
 10
708904.8096664001
 20
6470091.1110165
 30
0.0
 11
708899.8096664001
 21
6470086.1110165
 31
0.0
  0
LINE
  5
DE
330
2
100
AcDbEntity
  8
telgprojekt
  6
Continuous
 62
     5
100
AcDbLine
 10
708899.8096664001
 20
6470086.1110165
 30
0.0
 11
708904.8096664001
 21
6470086.1110165
 31
0.0
  0
LINE
  5
DF
330
2
100
AcDbEntity
  8
telgprojekt
  6
Continuous
 62
     5
100
AcDbLine
 10
708904.8096664001
 20
6470086.1110165
 30
0.0
 11
708904.8096664001
 21
6470091.1110165
 31
0.0
  0
LINE
  5
E0
330
2
100
AcDbEntity
  8
telgprojekt
  6
Continuous
 62
     5
100
AcDbLine
 10
708904.8096664001
 20
6470091.1110165
 30
0.0
 11
708899.8096664001
 21
6470091.1110165
 31
0.0
  0
LINE
  5
E1
330
2
100
AcDbEntity
  8
telgprojekt
  6
Continuous
 62
     5
100
AcDbLine
 10
708899.8096664001
 20
6470091.1110165
 30
0.0
 11
708899.8096664001
 21
6470086.1110165
 31
0.0
  0
LINE
  5
E2
330
2
100
AcDbEntity
  8
telgprojekt
  6
Continuous
 62
     5
100
AcDbLine
 10
708904.8096664001
 20
6470091.1110165
 30
0.0
 11
708904.8096664001
 21
6470086.1110165
 31
0.0
  0
LWPOLYLINE
  5
E3
330
2
100
AcDbEntity
  8
telgprojekt
  6
Continuous
 62
     5
100
AcDbPolyline
 90
        2
 70
     0
 43
0.0
 10
708866.8961872
 20
6470588.635798301
 10
708902.3096664
 20
6470088.6110165
  0
LWPOLYLINE
  5
E4
330
2
100
AcDbEntity
  8
telgprojekt
  6
Continuous
 62
     5
100
AcDbPolyline
 90
        2
 70
     0
 43
0.0
 10
708864.3961872
 20
6470591.135798301
 10
708869.3961872
 20
6470591.135798301
  0
LWPOLYLINE
  5
E5
330
2
100
AcDbEntity
  8
telgprojekt
  6
Continuous
 62
     5
100
AcDbPolyline
 90
        2
 70
     0
 43
0.0
 10
708864.3961872
 20
6470586.1357983
 10
708869.3961872
 20
6470586.1357983
  0
LWPOLYLINE
  5
E6
330
2
100
AcDbEntity
  8
telgprojekt
  6
Continuous
 62
     5
100
AcDbPolyline
 90
        2
 70
     0
 43
0.0
 10
708864.3961872
 20
6470591.135798301
 10
708864.3961872
 20
6470586.1357983
  0
LINE
  5
E7
330
2
100
AcDbEntity
  8
telgprojekt
  6
Continuous
 62
     5
100
AcDbLine
 10
708864.3961872
 20
6470591.135798301
 30
0.0
 11
708869.3961872
 21
6470586.1357983
 31
0.0
  0
LINE
  5
E8
330
2
100
AcDbEntity
  8
telgprojekt
  6
Continuous
 62
     5
100
AcDbLine
 10
708869.3961872
 20
6470586.1357983
 30
0.0
 11
708869.3961872
 21
6470591.135798301
 31
0.0
  0
LINE
  5
E9
330
2
100
AcDbEntity
  8
telgprojekt
  6
Continuous
 62
     5
100
AcDbLine
 10
708869.3961872
 20
6470591.135798301
 30
0.0
 11
708864.3961872
 21
6470586.1357983
 31
0.0
  0
LINE
  5
EA
330
2
100
AcDbEntity
  8
telgprojekt
  6
Continuous
 62
     5
100
AcDbLine
 10
708864.3961872
 20
6470586.1357983
 30
0.0
 11
708869.3961872
 21
6470586.1357983
 31
0.0
  0
LINE
  5
EB
330
2
100
AcDbEntity
  8
telgprojekt
  6
Continuous
 62
     5
100
AcDbLine
 10
708869.3961872
 20
6470586.1357983
 30
0.0
 11
708869.3961872
 21
6470591.135798301
 31
0.0
  0
LINE
  5
EC
330
2
100
AcDbEntity
  8
telgprojekt
  6
Continuous
 62
     5
100
AcDbLine
 10
708869.3961872
 20
6470591.135798301
 30
0.0
 11
708864.3961872
 21
6470591.135798301
 31
0.0
  0
LINE
  5
ED
330
2
100
AcDbEntity
  8
telgprojekt
  6
Continuous
 62
     5
100
AcDbLine
 10
708864.3961872
 20
6470591.135798301
 30
0.0
 11
708864.3961872
 21
6470586.1357983
 31
0.0
  0
LINE
  5
EE
330
2
100
AcDbEntity
  8
telgprojekt
  6
Continuous
 62
     5
100
AcDbLine
 10
708869.3961872
 20
6470591.135798301
 30
0.0
 11
708869.3961872
 21
6470586.1357983
 31
0.0
  0
LWPOLYLINE
  5
EF
330
2
100
AcDbEntity
  8
telgprojekt
  6
Continuous
 62
     5
100
AcDbPolyline
 90
        2
 70
     0
 43
0.0
 10
705500.5192541
 20
6470057.7465107
 10
708902.3096664
 20
6470088.6110165
  0
LWPOLYLINE
  5
F0
330
2
100
AcDbEntity
  8
telgprojekt
  6
Continuous
 62
     5
100
AcDbPolyline
 90
        2
 70
     0
 43
0.0
 10
705498.0192540999
 20
6470060.2465107
 10
705503.0192541
 20
6470060.2465107
  0
LWPOLYLINE
  5
F1
330
2
100
AcDbEntity
  8
telgprojekt
  6
Continuous
 62
     5
100
AcDbPolyline
 90
        2
 70
     0
 43
0.0
 10
705498.0192540999
 20
6470055.246510701
 10
705503.0192541
 20
6470055.246510701
  0
LWPOLYLINE
  5
F2
330
2
100
AcDbEntity
  8
telgprojekt
  6
Continuous
 62
     5
100
AcDbPolyline
 90
        2
 70
     0
 43
0.0
 10
705498.0192540999
 20
6470060.2465107
 10
705498.0192540999
 20
6470055.246510701
  0
LINE
  5
F3
330
2
100
AcDbEntity
  8
telgprojekt
  6
Continuous
 62
     5
100
AcDbLine
 10
705498.0192540999
 20
6470060.2465107
 30
0.0
 11
705503.0192541
 21
6470055.246510701
 31
0.0
  0
LINE
  5
F4
330
2
100
AcDbEntity
  8
telgprojekt
  6
Continuous
 62
     5
100
AcDbLine
 10
705503.0192541
 20
6470055.246510701
 30
0.0
 11
705503.0192541
 21
6470060.2465107
 31
0.0
  0
LINE
  5
F5
330
2
100
AcDbEntity
  8
telgprojekt
  6
Continuous
 62
     5
100
AcDbLine
 10
705503.0192541
 20
6470060.2465107
 30
0.0
 11
705498.0192540999
 21
6470055.246510701
 31
0.0
  0
LINE
  5
F6
330
2
100
AcDbEntity
  8
telgprojekt
  6
Continuous
 62
     5
100
AcDbLine
 10
705498.0192540999
 20
6470055.246510701
 30
0.0
 11
705503.0192541
 21
6470055.246510701
 31
0.0
  0
LINE
  5
F7
330
2
100
AcDbEntity
  8
telgprojekt
  6
Continuous
 62
     5
100
AcDbLine
 10
705503.0192541
 20
6470055.246510701
 30
0.0
 11
705503.0192541
 21
6470060.2465107
 31
0.0
  0
LINE
  5
F8
330
2
100
AcDbEntity
  8
telgprojekt
  6
Continuous
 62
     5
100
AcDbLine
 10
705503.0192541
 20
6470060.2465107
 30
0.0
 11
705498.0192540999
 21
6470060.2465107
 31
0.0
  0
LINE
  5
F9
330
2
100
AcDbEntity
  8
telgprojekt
  6
Continuous
 62
     5
100
AcDbLine
 10
705498.0192540999
 20
6470060.2465107
 30
0.0
 11
705498.0192540999
 21
6470055.246510701
 31
0.0
  0
LINE
  5
FA
330
2
100
AcDbEntity
  8
telgprojekt
  6
Continuous
 62
     5
100
AcDbLine
 10
705503.0192541
 20
6470060.2465107
 30
0.0
 11
705503.0192541
 21
6470055.246510701
 31
0.0
  0
LWPOLYLINE
  5
FB
330
2
100
AcDbEntity
  8
telgprojekt
  6
Continuous
 62
     5
100
AcDbPolyline
 90
        2
 70
     0
 43
0.0
 10
705069.2300514
 20
6469983.142989
 10
705500.5192541
 20
6470057.7465107
  0
LWPOLYLINE
  5
FC
330
2
100
AcDbEntity
  8
telgprojekt
  6
Continuous
 62
     5
100
AcDbPolyline
 90
        2
 70
     0
 43
0.0
 10
705066.7300514
 20
6469985.642989001
 10
705071.7300514
 20
6469985.642989001
  0
LWPOLYLINE
  5
FD
330
2
100
AcDbEntity
  8
telgprojekt
  6
Continuous
 62
     5
100
AcDbPolyline
 90
        2
 70
     0
 43
0.0
 10
705066.7300514
 20
6469980.642989001
 10
705071.7300514
 20
6469980.642989001
  0
LWPOLYLINE
  5
FE
330
2
100
AcDbEntity
  8
telgprojekt
  6
Continuous
 62
     5
100
AcDbPolyline
 90
        2
 70
     0
 43
0.0
 10
705066.7300514
 20
6469985.642989001
 10
705066.7300514
 20
6469980.642989001
  0
LINE
  5
FF
330
2
100
AcDbEntity
  8
telgprojekt
  6
Continuous
 62
     5
100
AcDbLine
 10
705066.7300514
 20
6469985.642989001
 30
0.0
 11
705071.7300514
 21
6469980.642989001
 31
0.0
  0
LINE
  5
100
330
2
100
AcDbEntity
  8
telgprojekt
  6
Continuous
 62
     5
100
AcDbLine
 10
705071.7300514
 20
6469980.642989001
 30
0.0
 11
705071.7300514
 21
6469985.642989001
 31
0.0
  0
LINE
  5
101
330
2
100
AcDbEntity
  8
telgprojekt
  6
Continuous
 62
     5
100
AcDbLine
 10
705071.7300514
 20
6469985.642989001
 30
0.0
 11
705066.7300514
 21
6469980.642989001
 31
0.0
  0
LINE
  5
102
330
2
100
AcDbEntity
  8
telgprojekt
  6
Continuous
 62
     5
100
AcDbLine
 10
705066.7300514
 20
6469980.642989001
 30
0.0
 11
705071.7300514
 21
6469980.642989001
 31
0.0
  0
LINE
  5
103
330
2
100
AcDbEntity
  8
telgprojekt
  6
Continuous
 62
     5
100
AcDbLine
 10
705071.7300514
 20
6469980.642989001
 30
0.0
 11
705071.7300514
 21
6469985.642989001
 31
0.0
  0
LINE
  5
104
330
2
100
AcDbEntity
  8
telgprojekt
  6
Continuous
 62
     5
100
AcDbLine
 10
705071.7300514
 20
6469985.642989001
 30
0.0
 11
705066.7300514
 21
6469985.642989001
 31
0.0
  0
LINE
  5
105
330
2
100
AcDbEntity
  8
telgprojekt
  6
Continuous
 62
     5
100
AcDbLine
 10
705066.7300514
 20
6469985.642989001
 30
0.0
 11
705066.7300514
 21
6469980.642989001
 31
0.0
  0
LINE
  5
106
330
2
100
AcDbEntity
  8
telgprojekt
  6
Continuous
 62
     5
100
AcDbLine
 10
705071.7300514
 20
6469985.642989001
 30
0.0
 11
705071.7300514
 21
6469980.642989001
 31
0.0
  0
LWPOLYLINE
  5
107
330
2
100
AcDbEntity
  8
telgprojekt
  6
Continuous
 62
     3
100
AcDbPolyline
 90
       14
 70
     0
 43
0.0
 10
705148.8500434
 20
6460221.0598905
 10
705506.3206154
 20
6470245.7930494
 10
707910.2026042
 20
6475019.6585007
 10
706269.7337536
 20
6480201.053814199
 10
704689.6193294
 20
6485229.960500701
 10
702570.4425795
 20
6492276.0357291
 10
700467.3218136
 20
6499756.8746825
 10
698386.50776
 20
6506931.1195568
 10
696237.5074305001
 20
6514318.3583105
 10
694196.8117761
 20
6521278.837629201
 10
698301.7403248
 20
6526537.275827201
 10
704222.2134834
 20
6532143.4913002
 10
709482.3715167
 20
6537506.2990424
 10
712809.5720729999
 20
6541096.4903567
  0
ENDSEC
  0
SECTION
  2
OBJECTS
  0
DICTIONARY
  5
9
330
0
100
AcDbDictionary
281
     1
  3
ACAD_COLOR
350
29
  3
ACAD_GROUP
350
25
  3
ACAD_LAYOUT
350
E
  3
ACAD_MATERIAL
350
28
  3
ACAD_MLINESTYLE
350
26
  3
ACAD_PLOTSETTINGS
350
27
  3
ACAD_PLOTSTYLENAME
350
8
  3
ACDBHEADERROUNDTRIPXREC
350
113
  3
AcDbVariableDictionary
350
10E
  0
DICTIONARY
  5
14
330
13
100
AcDbDictionary
280
     1
281
     1
  3
ACAD_LAYERFILTERS
360
15
  3
ACAD_LAYERSTATES
360
16
  0
DICTIONARY
  5
3
330
2
100
AcDbDictionary
280
     1
281
     1
  3
ACAD_SORTENTS
360
108
  0
DICTIONARY
  5
29
102
{ACAD_REACTORS
330
9
102
}
330
9
100
AcDbDictionary
281
     1
  0
DICTIONARY
  5
25
102
{ACAD_REACTORS
330
9
102
}
330
9
100
AcDbDictionary
281
     1
  0
DICTIONARY
  5
E
102
{ACAD_REACTORS
330
9
102
}
330
9
100
AcDbDictionary
281
     1
  3
Layout1
350
12
  3
Model
350
D
  0
DICTIONARY
  5
28
102
{ACAD_REACTORS
330
9
102
}
330
9
100
AcDbDictionary
281
     1
  0
DICTIONARY
  5
26
102
{ACAD_REACTORS
330
9
102
}
330
9
100
AcDbDictionary
281
     1
  3
Standard
350
2B
  0
DICTIONARY
  5
27
102
{ACAD_REACTORS
330
9
102
}
330
9
100
AcDbDictionary
281
     1
  0
ACDBDICTIONARYWDFLT
  5
8
102
{ACAD_REACTORS
330
9
102
}
330
9
100
AcDbDictionary
281
     1
  3
Normal
350
7
100
AcDbDictionaryWithDefault
340
7
  0
DICTIONARY
  5
113
102
{ACAD_REACTORS
330
9
102
}
330
9
100
AcDbDictionary
281
     1
  0
DICTIONARY
  5
10E
102
{ACAD_REACTORS
330
9
102
}
330
9
100
AcDbDictionary
281
     1
  3
DIMASSOC
350
110
  3
HIDETEXT
350
10F
  3
PROJECTNAME
350
111
  0
DICTIONARY
  5
15
102
{ACAD_REACTORS
330
14
102
}
330
14
100
AcDbDictionary
281
     1
  0
DICTIONARY
  5
16
102
{ACAD_REACTORS
330
14
102
}
330
14
100
AcDbDictionary
281
     1
  0
SORTENTSTABLE
  5
108
102
{ACAD_REACTORS
330
3
102
}
330
3
100
AcDbSortentsTable
330
2
  0
LAYOUT
  5
12
102
{ACAD_XDICTIONARY
360
116
102
}
102
{ACAD_REACTORS
330
E
102
}
330
E
100
AcDbPlotSettings
  1

  2
HP3500
  4

  6

 40
0.0
 41
0.0
 42
0.0
 43
0.0
 44
0.0
 45
0.0
 46
0.0
 47
0.0
 48
0.0
 49
0.0
140
0.0
141
0.0
142
1.0
143
1.0
 70
   688
 72
     0
 73
     0
 74
     5
  7

 75
    16
147
1.0
148
0.0
149
0.0
100
AcDbLayout
  1
Layout1
 70
     1
 71
     1
 10
0.0
 20
0.0
 11
12.0
 21
9.0
 12
0.0
 22
0.0
 32
0.0
 14
1.000000000000000E+20
 24
1.000000000000000E+20
 34
1.000000000000000E+20
 15
-1.000000000000000E+20
 25
-1.000000000000000E+20
 35
-1.000000000000000E+20
146
0.0
 13
0.0
 23
0.0
 33
0.0
 16
1.0
 26
0.0
 36
0.0
 17
0.0
 27
1.0
 37
0.0
 76
     0
330
F
  0
LAYOUT
  5
D
102
{ACAD_XDICTIONARY
360
114
102
}
102
{ACAD_REACTORS
330
E
102
}
330
E
100
AcDbPlotSettings
  1

  2
HP3500
  4

  6

 40
0.0
 41
0.0
 42
0.0
 43
0.0
 44
0.0
 45
0.0
 46
0.0
 47
0.0
 48
0.0
 49
0.0
140
0.0
141
0.0
142
1.0
143
1.0
 70
  1712
 72
     0
 73
     0
 74
     0
  7

 75
     0
147
1.0
148
0.0
149
0.0
100
AcDbLayout
  1
Model
 70
     1
 71
     0
 10
0.0
 20
0.0
 11
12.0
 21
9.0
 12
0.0
 22
0.0
 32
0.0
 14
0.0
 24
0.0
 34
0.0
 15
0.0
 25
0.0
 35
0.0
146
0.0
 13
0.0
 23
0.0
 33
0.0
 16
1.0
 26
0.0
 36
0.0
 17
0.0
 27
1.0
 37
0.0
 76
     0
330
2
  0
MLINESTYLE
  5
2B
102
{ACAD_REACTORS
330
26
102
}
330
26
100
AcDbMlineStyle
  2
STANDARD
 70
     0
  3

 62
   256
 51
90.0
 52
90.0
 71
     2
 49
0.5
 62
   256
  6
BYLAYER
 49
-0.5
 62
   256
  6
BYLAYER
  0
ACDBPLACEHOLDER
  5
7
102
{ACAD_REACTORS
330
8
102
}
330
8
  0
DICTIONARYVAR
  5
110
102
{ACAD_REACTORS
330
10E
102
}
330
10E
100
DictionaryVariables
280
     0
  1
1
  0
DICTIONARYVAR
  5
10F
102
{ACAD_REACTORS
330
10E
102
}
330
10E
100
DictionaryVariables
280
     0
  1
1
  0
DICTIONARYVAR
  5
111
102
{ACAD_REACTORS
330
10E
102
}
330
10E
100
DictionaryVariables
280
     0
  1

  0
DICTIONARY
  5
116
330
12
100
AcDbDictionary
280
     1
281
     1
  3
ACAD_XREC_ROUNDTRIP
360
117
  0
DICTIONARY
  5
114
330
D
100
AcDbDictionary
280
     1
281
     1
  3
ACAD_XREC_ROUNDTRIP
360
115
  0
XRECORD
  5
117
102
{ACAD_REACTORS
330
116
102
}
330
116
100
AcDbXrecord
280
     1
102
SHADEPLOT
 70
     0
102
SHADEPLOTRESLEVEL
 70
     2
102
SHADEPLOTCUSTOMDPI
 70
   300
  0
XRECORD
  5
115
102
{ACAD_REACTORS
330
114
102
}
330
114
100
AcDbXrecord
280
     1
102
SHADEPLOT
 70
     0
102
SHADEPLOTRESLEVEL
 70
     2
102
SHADEPLOTCUSTOMDPI
 70
   300
  0
ENDSEC
  0
EOF
