<?xml version="1.0" encoding="UTF-8" standalone="no"?>
<!-- Created with dxf2svg -->
<svg
	xmlns:dc="http://purl.org/dc/elements/1.1/"
	xmlns:cc="http://web.resource.org/cc/"
	xmlns:rdf="http://www.w3.org/1999/02/22-rdf-syntax-ns#"
	xmlns:svg="http://www.w3.org/2000/svg"
	xmlns="http://www.w3.org/2000/svg"
	xmlns:sodipodi="http://inkscape.sourceforge.net/DTD/sodipodi-0.dtd"
	xmlns:inkscape="http://www.inkscape.org/namespaces/inkscape"
	>
	<g
		inkscape:label="0"
		inkscape:groupmode="layer"
		id="layer1">
	<path d="M -6.36396 821.636 L 6.36396 834.364 " fill="none" stroke="black" stroke-width="1"  />
	<path d="M 6.36396 821.636 L -6.36396 834.364 " fill="none" stroke="black" stroke-width="1"  />
	<path d="M 6.36396 -6.36396 L -6.36396 6.36396 " fill="none" stroke="black" stroke-width="1"  />
	<path d="M -6.36396 -6.36396 L 6.36396 6.36396 " fill="none" stroke="black" stroke-width="1"  />
	<circle cx="-1.154e-13in" cy="9.2in " r="0.1in" fill="none" stroke="black" stroke-width="1"  />
	<circle cx="-1.154e-13in" cy="9.2in " r="0.1in" fill="none" stroke="black" stroke-width="1"  />
	<circle cx="-5.68e-14in" cy="5.68e-14in " r="0.1in" fill="none" stroke="black" stroke-width="1"  />
	<circle cx="-5.68e-14in" cy="5.68e-14in " r="0.1in" fill="none" stroke="black" stroke-width="1"  />
	<line x1="2.2in" y1="-1.2in" x2="-2.2in" y2="-1.2in" stroke-width="1" stroke="black"  />
	<line x1="-2.2in" y1="-1.2in" x2="-2.2in" y2="8.4in" stroke-width="1" stroke="black"  />
	<line x1="-2.2in" y1="8.4in" x2="-2in" y2="8.52947in" stroke-width="1" stroke="black"  />
	<line x1="-2in" y1="8.52947in" x2="2in" y2="8.52838in" stroke-width="1" stroke="black"  />
	<line x1="2in" y1="8.52838in" x2="2.2in" y2="8.4in" stroke-width="1" stroke="black"  />
	<line x1="2.2in" y1="8.4in" x2="2.2in" y2="-1.2in" stroke-width="1" stroke="black"  />
	<line x1="2in" y1="-1.2in" x2="2in" y2="3.2in" stroke-width="1" stroke="black"  />
	<line x1="2in" y1="3.2in" x2="-2in" y2="3.2in" stroke-width="1" stroke="black"  />
	<line x1="-2in" y1="3.2in" x2="-2in" y2="-1.2in" stroke-width="1" stroke="black"  />
	<line x1="-2in" y1="-1.2in" x2="2in" y2="-1.2in" stroke-width="1" stroke="black"  />
	<line x1="2in" y1="-1.2in" x2="2in" y2="-1.2in" stroke-width="1" stroke="black"  />
	<line x1="2.6in" y1="-6.9in" x2="2.6in" y2="-5.76053in" stroke-width="1" stroke="black"  />
	<line x1="2.6in" y1="-6.9in" x2="2.6in" y2="-5.9in" stroke-width="1" stroke="black"  />
	<line x1="2.6in" y1="-5.9in" x2="2.2in" y2="-5.9in" stroke-width="1" stroke="black"  />
	<line x1="2.2in" y1="-5.9in" x2="2.2in" y2="-6.9in" stroke-width="1" stroke="black"  />
	<line x1="2.2in" y1="-6.9in" x2="2.6in" y2="-6.9in" stroke-width="1" stroke="black"  />
	<line x1="2.6in" y1="-6.9in" x2="2.2in" y2="-5.9in" stroke-width="1" stroke="black"  />
	<line x1="2.2in" y1="-5.9in" x2="2.6in" y2="-5.9in" stroke-width="1" stroke="black"  />
	<line x1="2.6in" y1="-5.9in" x2="2.2in" y2="-6.9in" stroke-width="1" stroke="black"  />
	<line x1="2.2in" y1="-6.9in" x2="2.2in" y2="-6.5in" stroke-width="1" stroke="black"  />
	<line x1="2.2in" y1="-6.5in" x2="-2.2in" y2="-6.5in" stroke-width="1" stroke="black"  />
	<line x1="-2.2in" y1="-6.5in" x2="-2.2in" y2="-6.9in" stroke-width="1" stroke="black"  />
	<line x1="-2.2in" y1="-6.9in" x2="-2.6in" y2="-6.9in" stroke-width="1" stroke="black"  />
	<line x1="-2.6in" y1="-6.9in" x2="-2.2in" y2="-5.9in" stroke-width="1" stroke="black"  />
	<line x1="-2.2in" y1="-5.9in" x2="-2.6in" y2="-5.9in" stroke-width="1" stroke="black"  />
	<line x1="-2.6in" y1="-5.9in" x2="-2.6in" y2="-6.9in" stroke-width="1" stroke="black"  />
	<line x1="-2.6in" y1="-6.9in" x2="-2.2in" y2="-6.9in" stroke-width="1" stroke="black"  />
	<line x1="-2.2in" y1="-6.9in" x2="-2.6in" y2="-5.9in" stroke-width="1" stroke="black"  />
	<line x1="-2.6in" y1="-5.9in" x2="-2.2in" y2="-5.9in" stroke-width="1" stroke="black"  />
	<line x1="-0.211469in" y1="-6.48809in" x2="0.188531in" y2="-5.48809in" stroke-width="1" stroke="black"  />
	<line x1="0.188531in" y1="-5.48809in" x2="-0.211469in" y2="-5.48809in" stroke-width="1" stroke="black"  />
	<line x1="-0.211469in" y1="-5.48809in" x2="0.188531in" y2="-6.48809in" stroke-width="1" stroke="black"  />
	<line x1="0.188531in" y1="-6.48809in" x2="-0.211469in" y2="-6.48809in" stroke-width="1" stroke="black"  />
	<line x1="-0.211469in" y1="-6.48809in" x2="-0.211469in" y2="-5.48809in" stroke-width="1" stroke="black"  />
	<line x1="-0.211469in" y1="-5.48809in" x2="0.188531in" y2="-5.48809in" stroke-width="1" stroke="black"  />
	<line x1="0.188531in" y1="-5.48809in" x2="0.188531in" y2="-6.48809in" stroke-width="1" stroke="black"  />
	<line x1="-2.2in" y1="-5.9in" x2="-2.2in" y2="-6.9in" stroke-width="1" stroke="black"  />
	<line x1="2.6in" y1="-5.9in" x2="2.58634in" y2="12.5662in" stroke-width="1" stroke="black"  />
	<line x1="2.58634in" y1="12.5662in" x2="2.47017in" y2="13.1113in" stroke-width="1" stroke="black"  />
	<line x1="2.47017in" y1="13.1113in" x2="2.32942in" y2="13.4549in" stroke-width="1" stroke="black"  />
	<line x1="2.32942in" y1="13.4549in" x2="2.07587in" y2="13.8655in" stroke-width="1" stroke="black"  />
	<line x1="2.07587in" y1="13.8655in" x2="1.73702in" y2="14.2346in" stroke-width="1" stroke="black"  />
	<line x1="1.73702in" y1="14.2346in" x2="1.37231in" y2="14.5083in" stroke-width="1" stroke="black"  />
	<line x1="1.37231in" y1="14.5083in" x2="1.05761in" y2="14.6752in" stroke-width="1" stroke="black"  />
	<line x1="1.05761in" y1="14.6752in" x2="0.692663in" y2="14.806in" stroke-width="1" stroke="black"  />
	<line x1="0.692663in" y1="14.806in" x2="0.375912in" y2="14.8727in" stroke-width="1" stroke="black"  />
	<line x1="0.375912in" y1="14.8727in" x2="-5.96e-14in" y2="14.9in" stroke-width="1" stroke="black"  />
	<line x1="-2.6in" y1="-5.9in" x2="-2.58634in" y2="12.5662in" stroke-width="1" stroke="black"  />
	<line x1="-2.58634in" y1="12.5662in" x2="-2.47017in" y2="13.1113in" stroke-width="1" stroke="black"  />
	<line x1="-2.47017in" y1="13.1113in" x2="-2.32942in" y2="13.4549in" stroke-width="1" stroke="black"  />
	<line x1="-2.32942in" y1="13.4549in" x2="-2.07587in" y2="13.8655in" stroke-width="1" stroke="black"  />
	<line x1="-2.07587in" y1="13.8655in" x2="-1.73702in" y2="14.2346in" stroke-width="1" stroke="black"  />
	<line x1="-1.73702in" y1="14.2346in" x2="-1.37231in" y2="14.5083in" stroke-width="1" stroke="black"  />
	<line x1="-1.37231in" y1="14.5083in" x2="-1.05761in" y2="14.6752in" stroke-width="1" stroke="black"  />
	<line x1="-1.05761in" y1="14.6752in" x2="-0.692663in" y2="14.806in" stroke-width="1" stroke="black"  />
	<line x1="-0.692663in" y1="14.806in" x2="-0.375912in" y2="14.8727in" stroke-width="1" stroke="black"  />
	<line x1="-0.375912in" y1="14.8727in" x2="-5.96e-14in" y2="14.9in" stroke-width="1" stroke="black"  />
	<g transform="matrix(1,0,0,1,6.36396,834.364)" >
</g>
	<g transform="matrix(1,0,0,1,-6.36396,834.364)" >
</g>
	<g transform="matrix(1,0,0,1,-6.36396,6.36396)" >
</g>
	<g transform="matrix(1,0,0,1,6.36396,6.36396)" >
</g>
	</g>
</svg>