<?xml version="1.0" encoding="UTF-8" standalone="no"?>
<!-- Created with dxf2svg -->
<svg
	xmlns:dc="http://purl.org/dc/elements/1.1/"
	xmlns:cc="http://web.resource.org/cc/"
	xmlns:rdf="http://www.w3.org/1999/02/22-rdf-syntax-ns#"
	xmlns:svg="http://www.w3.org/2000/svg"
	xmlns="http://www.w3.org/2000/svg"
	xmlns:sodipodi="http://inkscape.sourceforge.net/DTD/sodipodi-0.dtd"
	xmlns:inkscape="http://www.inkscape.org/namespaces/inkscape"
	>
	<g
		inkscape:label="0"
		inkscape:groupmode="layer"
		id="layer1">
	<path d="M -530.899 -339.185 L -573.813 -260.075 L -605.016 -175.658 L -623.872 -87.655 L -630 7.56e-13 L -623.571 89.7701 L -604.417 177.708 L -572.927 262.02 L -529.745 340.984 L -475.752 412.989 L -412.05 476.566 L -339.939 530.417 L -260.889 573.443 L -176.516 604.766 L -89.7701 623.571 L 1.24209 629.999 L 86.4249 624.044 L 174.464 605.361 L 258.943 574.324 L 338.138 531.566 L 410.432 477.96 L 474.349 414.6 L 528.586 342.778 L 572.036 263.961 L 603.811 179.757 L 623.263 91.8842 L 629.996 2.13636 L 623.872 -87.655 L 605.016 -175.658 L 573.813 -260.075 L 530.899 -339.185 " fill="none" stroke="black" stroke-width="1"  />
	<path d="M -1.8e-14 45 L 1.8e-14 -45 " fill="none" stroke="black" stroke-width="1"  />
	<path d="M -324 -72 L -292.5 -36 " fill="none" stroke="black" stroke-width="1"  />
	<path d="M 292.5 -36 L 324 -72 " fill="none" stroke="black" stroke-width="1"  />
	<path d="M -45 -1.8e-14 L 45 1.8e-14 " fill="none" stroke="black" stroke-width="1"  />
	<path d="M 0 -0 L -530.899 -339.185 " fill="none" stroke="black" stroke-width="1"  />
	<path d="M 0 -0 L 530.899 -339.185 " fill="none" stroke="black" stroke-width="1"  />
	<path d="M 42.364 -848.636 L 29.636 -861.364 " fill="none" stroke="black" stroke-width="1"  />
	<path d="M 29.636 -848.636 L 42.364 -861.364 " fill="none" stroke="black" stroke-width="1"  />
	<path d="M 38.636 -1388.64 L 51.364 -1401.36 " fill="none" stroke="black" stroke-width="1"  />
	<path d="M 51.364 -1388.64 L 38.636 -1401.36 " fill="none" stroke="black" stroke-width="1"  />
	<circle cx="0in" cy="-0in " r="0.5in" fill="none" stroke="black" stroke-width="1"  />
	<circle cx="0.5in" cy="-15.5in " r="0.1in" fill="none" stroke="black" stroke-width="1"  />
	<circle cx="0.4in" cy="-9.5in " r="0.1in" fill="none" stroke="black" stroke-width="1"  />
	<circle cx="0.5in" cy="-15.5in " r="0.1in" fill="none" stroke="black" stroke-width="1"  />
	<line x1="-3.6in" y1="-16.8in" x2="-3.6in" y2="-0.8in" stroke-width="1" stroke="black"  />
	<line x1="-3.6in" y1="-0.8in" x2="-3.25in" y2="-0.4in" stroke-width="1" stroke="black"  />
	<line x1="-3.25in" y1="-0.4in" x2="-3.25in" y2="3.5in" stroke-width="1" stroke="black"  />
	<line x1="-3.25in" y1="3.5in" x2="3.25in" y2="3.5in" stroke-width="1" stroke="black"  />
	<line x1="3.25in" y1="3.5in" x2="3.25in" y2="-0.4in" stroke-width="1" stroke="black"  />
	<line x1="3.25in" y1="-0.4in" x2="3.6in" y2="-0.8in" stroke-width="1" stroke="black"  />
	<line x1="3.6in" y1="-0.8in" x2="3.6in" y2="-16.8in" stroke-width="1" stroke="black"  />
	<line x1="3.6in" y1="-16.8in" x2="-3.6in" y2="-16.8in" stroke-width="1" stroke="black"  />
	<line x1="-3.6in" y1="-2.3in" x2="-3in" y2="-2.3in" stroke-width="1" stroke="black"  />
	<line x1="-3in" y1="-2.3in" x2="-3in" y2="-2.9in" stroke-width="1" stroke="black"  />
	<line x1="-3in" y1="-2.9in" x2="-3.6in" y2="-2.9in" stroke-width="1" stroke="black"  />
	<line x1="-3.6in" y1="-2.9in" x2="-3in" y2="-2.3in" stroke-width="1" stroke="black"  />
	<line x1="-3in" y1="-2.3in" x2="-3in" y2="-2.9in" stroke-width="1" stroke="black"  />
	<line x1="-3in" y1="-2.9in" x2="-3.6in" y2="-2.3in" stroke-width="1" stroke="black"  />
	<line x1="-3.6in" y1="-2.3in" x2="-3.6in" y2="-2.3in" stroke-width="1" stroke="black"  />
	<line x1="3.6in" y1="-2.9in" x2="3in" y2="-2.9in" stroke-width="1" stroke="black"  />
	<line x1="3in" y1="-2.9in" x2="3in" y2="-2.3in" stroke-width="1" stroke="black"  />
	<line x1="3in" y1="-2.3in" x2="3.6in" y2="-2.3in" stroke-width="1" stroke="black"  />
	<line x1="3.6in" y1="-2.3in" x2="3in" y2="-2.9in" stroke-width="1" stroke="black"  />
	<line x1="3in" y1="-2.9in" x2="3in" y2="-2.3in" stroke-width="1" stroke="black"  />
	<line x1="3in" y1="-2.3in" x2="3.6in" y2="-2.9in" stroke-width="1" stroke="black"  />
	<line x1="3.6in" y1="-2.9in" x2="3.6in" y2="-2.9in" stroke-width="1" stroke="black"  />
	<line x1="-0.75in" y1="-15.5in" x2="1.75in" y2="-9.5in" stroke-width="1" stroke="black"  />
	<line x1="1.75in" y1="-9.5in" x2="-0.75in" y2="-9.5in" stroke-width="1" stroke="black"  />
	<line x1="-0.75in" y1="-9.5in" x2="1.75in" y2="-15.5in" stroke-width="1" stroke="black"  />
	<line x1="1.75in" y1="-15.5in" x2="-0.75in" y2="-15.5in" stroke-width="1" stroke="black"  />
	<line x1="-0.75in" y1="-15.5in" x2="-0.75in" y2="-9.5in" stroke-width="1" stroke="black"  />
	<line x1="-0.75in" y1="-9.5in" x2="1.75in" y2="-9.5in" stroke-width="1" stroke="black"  />
	<line x1="1.75in" y1="-9.5in" x2="1.75in" y2="-15.5in" stroke-width="1" stroke="black"  />
	<line x1="-0.75in" y1="-9.5in" x2="-0.75in" y2="-15.5in" stroke-width="1" stroke="black"  />
	<line x1="-0.75in" y1="-15.5in" x2="1.75in" y2="-15.5in" stroke-width="1" stroke="black"  />
	<line x1="1.75in" y1="-15.5in" x2="1.75in" y2="-9.5in" stroke-width="1" stroke="black"  />
	<line x1="1.75in" y1="-9.5in" x2="-0.75in" y2="-9.5in" stroke-width="1" stroke="black"  />
	<g transform="matrix(1,0,0,1,530.899,-339.185)" >
</g>
	<g transform="matrix(1,0,0,1,1.8e-14,-45)" >
</g>
	<g transform="matrix(1,0,0,1,-292.5,-36)" >
</g>
	<g transform="matrix(1,0,0,1,324,-72)" >
</g>
	<g transform="matrix(1,0,0,1,45,1.8e-14)" >
</g>
	<g transform="matrix(1,0,0,1,-530.899,-339.185)" >
</g>
	<g transform="matrix(1,0,0,1,530.899,-339.185)" >
</g>
	<g transform="matrix(1,0,0,1,29.636,-861.364)" >
</g>
	<g transform="matrix(1,0,0,1,42.364,-861.364)" >
</g>
	<g transform="matrix(1,0,0,1,51.364,-1401.36)" >
</g>
	<g transform="matrix(1,0,0,1,38.636,-1401.36)" >
</g>
	</g>
</svg>