<?xml version="1.0" encoding="UTF-8" standalone="no"?>
<!-- Created with dxf2svg -->
<svg
	xmlns:dc="http://purl.org/dc/elements/1.1/"
	xmlns:cc="http://web.resource.org/cc/"
	xmlns:rdf="http://www.w3.org/1999/02/22-rdf-syntax-ns#"
	xmlns:svg="http://www.w3.org/2000/svg"
	xmlns="http://www.w3.org/2000/svg"
	xmlns:sodipodi="http://inkscape.sourceforge.net/DTD/sodipodi-0.dtd"
	xmlns:inkscape="http://www.inkscape.org/namespaces/inkscape"
	>
	<g
		inkscape:label="0"
		inkscape:groupmode="layer"
		id="layer1">
	<path d="M -550.618 351.784 L -588.267 284.382 L -610 234.162 L -626.58 185.281 L -638.83 137.215 L -650.452 61.9948 L -652.992 23.0744 L -653.008 -22.6157 L -650.695 -59.3922 L -642.547 -118.593 L -629.671 -174.486 L -606.103 -244.071 L -578.323 -304.096 L -556.067 -343.106 L -514.384 -402.916 L -465.633 -458.386 L -402.462 -514.739 L -364.211 -542.478 L -287.926 -586.541 L -189.499 -625.317 L -94.3988 -646.545 L -36.9172 -652.356 L 0 -653.4 " fill="none" stroke="black" stroke-width="1"  />
	<path d="M 550.618 351.784 L 588.267 284.382 L 610 234.162 L 626.58 185.281 L 638.83 137.215 L 650.452 61.9948 L 652.992 23.0744 L 653.008 -22.6157 L 650.695 -59.3922 L 642.547 -118.593 L 629.671 -174.486 L 606.103 -244.071 L 578.323 -304.096 L 556.067 -343.106 L 514.384 -402.916 L 465.633 -458.386 L 402.462 -514.739 L 364.211 -542.478 L 287.926 -586.541 L 189.499 -625.317 L 94.3988 -646.545 L 36.9172 -652.356 L 0 -653.4 " fill="none" stroke="black" stroke-width="1"  />
	<path d="M -834.269 533.005 L -891.314 430.882 L -924.242 354.79 L -949.364 280.729 L -967.924 207.902 L -985.534 93.9315 L -989.382 34.9613 L -989.407 -34.2662 L -985.902 -89.9882 L -973.557 -179.687 L -954.048 -264.373 L -918.338 -369.804 L -876.246 -460.752 L -842.525 -519.857 L -779.369 -610.478 L -705.505 -694.524 L -609.79 -779.908 L -551.835 -821.936 L -436.252 -888.698 L -287.119 -947.45 L -143.028 -979.614 L -55.9352 -988.419 L 0 -990 " fill="none" stroke="black" stroke-width="1"  />
	<path d="M 834.269 533.005 L 891.314 430.882 L 924.242 354.79 L 949.364 280.729 L 967.924 207.902 L 985.534 93.9315 L 989.382 34.9613 L 989.407 -34.2662 L 985.902 -89.9882 L 973.557 -179.687 L 954.048 -264.373 L 918.338 -369.804 L 876.246 -460.752 L 842.525 -519.857 L 779.369 -610.478 L 705.505 -694.524 L 609.79 -779.908 L 551.835 -821.936 L 436.252 -888.698 L 287.119 -947.45 L 143.028 -979.614 L 55.9352 -988.419 L 0 -990 " fill="none" stroke="black" stroke-width="1"  />
	<path d="M 562.5 549 L 454.5 549 L 454.5 657 L 562.5 657 L 454.5 549 L 454.5 657 L 562.5 549 " fill="none" stroke="black" stroke-width="1"  />
	<path d="M -562.5 1062 L -562.5 690.857 " fill="none" stroke="black" stroke-width="1"  />
	<path d="M 0 -261 L -360 -261 L -360 -144 L -562.5 -144 L -562.5 1062 L -360 1062 L -360 1179 L 0 1179 " fill="none" stroke="black" stroke-width="1"  />
	<path d="M 0 -261 L 360 -261 L 360 -144 L 562.5 -144 L 562.5 1062 L 360 1062 L 360 1179 L 0 1179 " fill="none" stroke="black" stroke-width="1"  />
	<path d="M 326.636 753.364 L 339.364 740.636 " fill="none" stroke="black" stroke-width="1"  />
	<path d="M 326.636 740.636 L 339.364 753.364 " fill="none" stroke="black" stroke-width="1"  />
	<path d="M -256.564 1019.64 L -243.836 1032.36 " fill="none" stroke="black" stroke-width="1"  />
	<path d="M 333 747 L -207 972 L -207 747 L 333 972 L 333 747 L -207 747 L -207 972 L 333 972 " fill="none" stroke="black" stroke-width="1"  />
	<path d="M -256.564 1032.36 L -243.836 1019.64 " fill="none" stroke="black" stroke-width="1"  />
	<path d="M -562.5 657 L -454.5 657 L -454.5 549 L -562.5 549 L -454.5 657 L -454.5 549 L -562.5 657 " fill="none" stroke="black" stroke-width="1"  />
	<path d="M -207 747 L 333 747 L 333 972 L -207 972 " fill="none" stroke="black" stroke-width="1"  />
	<path d="M 45 -0 L -45 -0 " fill="none" stroke="black" stroke-width="1"  />
	<path d="M 0 -45 L 0 45 " fill="none" stroke="black" stroke-width="1"  />
	<path d="M834.267 533.009 A 990,990 0 0,0 -834.271,533.003" fill="none" stroke="black" stroke-width="1"  />
	<circle cx="3.7in" cy="8.3in " r="0.1in" fill="none" stroke="black" stroke-width="1"  />
	<circle cx="-2.78in" cy="11.4in " r="0.1in" fill="none" stroke="black" stroke-width="1"  />
	<circle cx="3.7in" cy="8.3in " r="0.1in" fill="none" stroke="black" stroke-width="1"  />
	<circle cx="0in" cy="-0in " r="0.5in" fill="none" stroke="black" stroke-width="1"  />
	<g transform="matrix(1,0,0,1,0,-653.4)" >
</g>
	<g transform="matrix(1,0,0,1,0,-653.4)" >
</g>
	<g transform="matrix(1,0,0,1,0,-990)" >
</g>
	<g transform="matrix(1,0,0,1,0,-990)" >
</g>
	<g transform="matrix(1,0,0,1,562.5,549)" >
</g>
	<g transform="matrix(1,0,0,1,-562.5,690.857)" >
</g>
	<g transform="matrix(1,0,0,1,0,1179)" >
</g>
	<g transform="matrix(1,0,0,1,0,1179)" >
</g>
	<g transform="matrix(1,0,0,1,339.364,740.636)" >
</g>
	<g transform="matrix(1,0,0,1,339.364,753.364)" >
</g>
	<g transform="matrix(1,0,0,1,-243.836,1032.36)" >
</g>
	<g transform="matrix(1,0,0,1,333,972)" >
</g>
	<g transform="matrix(1,0,0,1,-243.836,1019.64)" >
</g>
	<g transform="matrix(1,0,0,1,-562.5,657)" >
</g>
	<g transform="matrix(1,0,0,1,-207,972)" >
</g>
	<g transform="matrix(1,0,0,1,-45,-0)" >
</g>
	<g transform="matrix(1,0,0,1,0,45)" >
</g>
	</g>
</svg>